<?xml version="1.0" standalone="no"?>
<!DOCTYPE svg PUBLIC "-//W3C//DTD SVG 1.1//EN" "http://www.w3.org/Graphics/SVG/1.1/DTD/svg11.dtd" >
<svg xmlns="http://www.w3.org/2000/svg">
<metadata></metadata>
<defs>
<font id="baskerville_fsitalic" horiz-adv-x="500" >
<font-face units-per-em="1000" ascent="733" descent="-267" />
<missing-glyph horiz-adv-x="250" />
<glyph unicode="&#xfb01;" horiz-adv-x="502" d="M-165 -227q0 22 13 37t31 15q14 0 24.5 -9.5t10.5 -22.5q0 -12 -11 -31q-3 -4 -3 -9q0 -14 18 -14q24 0 43.5 37t45.5 130l133 477h-105l9 35h105q34 108 51 147t43 70q65 74 143 74q56 0 99 -37t43 -85q0 -22 -16 -38t-38 -16q-20 0 -36 15t-16 34q0 4 1.5 16.5 t1.5 17.5q0 23 -15.5 38t-39.5 15q-48 0 -73 -49q-18 -37 -48 -140l-18 -62h115q80 0 124 16l11 -16l-110 -340q-6 -20 -6 -26q0 -16 14 -16q17 0 32 18t39 67l31 -16q-61 -118 -134 -118q-27 0 -45.5 15.5t-18.5 37.5q0 15 11 50l79 244q6 20 6 29q0 20 -42 20h-115 l-124 -445q-65 -232 -186 -232q-34 0 -55.5 19t-21.5 48z" />
<glyph unicode="&#xfb02;" horiz-adv-x="508" d="M-165 -227q0 14 6 26t16 19t22 7q14 0 24.5 -9.5t10.5 -22.5q0 -12 -11 -31q-3 -4 -3 -9q0 -4 2.5 -7t6.5 -5t9 -2q24 0 43.5 37t45.5 130l133 477h-105l9 35h105q36 115 54.5 155t52.5 76q57 60 133 60q11 0 48.5 -7.5t45.5 -7.5q24 0 58 10l10 3l10 -6l-183 -580 q-15 -49 -15 -61q0 -23 20 -23q44 0 91 101l32 -17q-36 -70 -71.5 -102t-78.5 -32q-32 0 -51 18t-19 48q0 29 15 75l140 448q6 18 6 43q0 23 -18.5 37.5t-48.5 14.5q-53 0 -80 -48q-17 -29 -49 -138l-20 -67h97l-9 -35h-97l-124 -445q-65 -232 -186 -232q-34 0 -55.5 19 t-21.5 48z" />
<glyph unicode="&#xfb03;" horiz-adv-x="739" d="M-165 -227q0 22 13 37t31 15q14 0 24.5 -9.5t10.5 -22.5q0 -12 -11 -31q-3 -4 -3 -9q0 -14 18 -14q24 0 43.5 37t45.5 130l133 477h-105l9 35h105q32 106 53.5 152.5t52.5 78.5q60 60 133 60q72 0 120 -46q55 46 114 46q56 0 99 -37t43 -85q0 -22 -16 -38t-38 -16 q-20 0 -36 15t-16 34q0 4 1.5 16.5t1.5 17.5q0 23 -15.5 38t-38.5 15q-49 0 -74 -49q-18 -37 -48 -140l-18 -62h116q80 0 123 16l12 -16l-110 -340q-6 -20 -6 -26q0 -16 14 -16q17 0 32 18t39 67l30 -16q-59 -118 -133 -118q-27 0 -45.5 15.5t-18.5 37.5q0 18 10 50l79 244 q6 16 6 29q0 20 -42 20h-115l-123 -445q-65 -232 -187 -232q-34 0 -55.5 19t-21.5 48q0 22 13 37t32 15q14 0 24.5 -9.5t10.5 -22.5q0 -14 -12 -31q-3 -4 -3 -9q0 -14 18 -14q24 0 44 37.5t46 129.5l132 477h-154l-124 -445q-65 -232 -186 -232q-34 0 -55.5 19t-21.5 48z M231 418h155q28 93 44.5 133.5t37.5 69.5q-34 50 -88 50q-47 0 -72.5 -35.5t-55.5 -142.5z" />
<glyph unicode="&#xfb04;" horiz-adv-x="745" d="M-165 -227q0 14 6 26t16 19t22 7q14 0 24.5 -9.5t10.5 -22.5q0 -12 -11 -31q-3 -4 -3 -9q0 -4 2.5 -7t6.5 -5t9 -2q24 0 43.5 37t45.5 130l133 477h-105l9 35h105q32 106 53.5 152.5t52.5 78.5q60 60 133 60q70 0 119 -46q53 46 118 46q11 0 48.5 -7.5t46.5 -7.5 q23 0 57 10l10 3l10 -6l-183 -580q-15 -49 -15 -61q0 -23 20 -23q44 0 91 101l33 -17q-36 -70 -71.5 -102t-78.5 -32q-32 0 -51.5 18t-19.5 48q0 29 15 75l140 448q7 23 7 43q0 23 -18.5 37.5t-48.5 14.5q-53 0 -81 -48q-4 -6 -6.5 -11.5t-4.5 -11t-6 -17t-7 -21.5t-10 -33 t-14 -44l-21 -67h97l-9 -35h-97l-123 -445q-65 -232 -187 -232q-34 0 -55.5 19t-21.5 48q0 22 13 37t32 15q14 0 24.5 -9.5t10.5 -22.5q0 -14 -12 -31q-3 -4 -3 -9q0 -14 18 -14q24 0 44 37.5t46 129.5l132 477h-154l-124 -445q-65 -232 -186 -232q-34 0 -55.5 19t-21.5 48z M231 418h155q27 90 44 132t38 70q-34 51 -88 51q-47 0 -72.5 -35.5t-55.5 -142.5z" />
<glyph horiz-adv-x="1000" />
<glyph horiz-adv-x="1000" />
<glyph unicode="&#xd;" horiz-adv-x="1000" />
<glyph unicode=" "  horiz-adv-x="250" />
<glyph unicode="&#x09;" horiz-adv-x="250" />
<glyph unicode="&#xa0;" horiz-adv-x="250" />
<glyph unicode="!" horiz-adv-x="247" d="M18 41q0 23 16.5 39t39.5 16q22 0 38 -16.5t16 -38.5q0 -23 -16 -39t-39 -16t-39 16t-16 39zM105 234l95 392q9 36 20 48.5t35 12.5t41 -13.5t17 -32.5q0 -12 -13 -47l-146 -375z" />
<glyph unicode="&#x22;" horiz-adv-x="333" d="M143 409l41 199q7 35 16 48q16 24 44 24q16 0 26 -8t10 -22q0 -12 -12 -42l-80 -199h-45zM283 409l41 199q7 35 16 48q16 24 44 24q16 0 26 -8t10 -22q0 -12 -12 -42l-80 -199h-45z" />
<glyph unicode="#" d="M39 209l23 53h101l58 139h-100l22 53h101l83 196h43l-83 -196h128l83 196h42l-83 -196h94l-22 -53h-95l-58 -139h94l-23 -53h-94l-89 -209h-42l89 209h-128l-89 -209h-43l89 209h-101zM206 262h128l58 139h-128z" />
<glyph unicode="$" d="M36 97q0 15 10.5 25t26.5 10q27 0 49 -36q16 -25 29 -36.5t36 -19.5l79 274q-63 71 -85 110.5t-22 80.5q0 70 51.5 116t130.5 46q16 0 26 -1l21 74h37l-22 -78q48 -10 84.5 -38.5t36.5 -56.5q0 -13 -8.5 -22t-21.5 -9q-21 0 -38 28q-30 51 -66 58l-68 -238 q66 -74 90.5 -117.5t24.5 -89.5q0 -78 -58.5 -131t-144.5 -53q-15 0 -24 1l-29 -98h-36l30 102q-60 15 -87 31q-52 33 -52 68zM220 33q16 -2 22 -2q50 0 83 32.5t33 82.5q0 32 -13 60t-51 79zM237 529q0 -47 58 -117l61 215q-6 1 -15 1q-45 0 -74.5 -28t-29.5 -71z" />
<glyph unicode="%" horiz-adv-x="659" d="M122 430q0 86 60 163t127 77q79 0 79 -96q0 -93 -57 -168.5t-128 -75.5q-38 0 -59.5 27t-21.5 73zM168 402q0 -22 10.5 -35t28.5 -13q46 0 92 92q46 94 46 155q0 44 -37 44q-45 0 -87 -77q-21 -39 -37 -88.5t-16 -77.5zM176 0l369 667h46l-373 -667h-42zM369 97 q0 86 60 163t127 77q80 0 80 -96q0 -93 -57.5 -168.5t-128.5 -75.5q-38 0 -59.5 27t-21.5 73zM415 69q0 -22 10.5 -35t28.5 -13q47 0 93 92q46 94 46 155q0 44 -37 44q-45 0 -88 -77q-21 -39 -37 -88.5t-16 -77.5z" />
<glyph unicode="&#x26;" horiz-adv-x="881" d="M80 241q0 73 38 119t109 61q-17 37 -17 76q0 77 59 133.5t141 56.5q50 0 85 -28t35 -69q0 -56 -64 -97l-17 13q21 29 21 56q0 28 -19.5 45t-52.5 17q-56 0 -99.5 -45t-43.5 -103q0 -26 9 -55q90 -3 90 -48q0 -13 -10.5 -23.5t-24.5 -10.5q-22 0 -46 24q-19 19 -37 19 q-35 0 -59 -31t-24 -77q0 -91 82 -153.5t202 -62.5q110 0 185 55t75 135q0 56 -40 90t-107 34q-58 0 -94.5 -26.5t-36.5 -69.5q0 -22 12.5 -37t30.5 -15q8 0 14 6t6 14q0 3 -1.5 12.5t-1.5 11.5q0 11 12 19t28 8q20 0 34 -13.5t14 -32.5q0 -30 -25.5 -50.5t-62.5 -20.5 q-44 0 -71.5 28t-27.5 72q0 58 43 99q30 29 73.5 42t118.5 17l114 6q69 4 101 27.5t32 70.5t-28 78t-71 31q-16 0 -26 -5t-10 -13q0 -2 7 -12q11 -13 11 -30q0 -20 -13.5 -33t-33.5 -13q-23 0 -39 17t-16 41q0 37 33 61.5t82 24.5q64 0 106.5 -43.5t42.5 -109.5 q0 -51 -23.5 -88.5t-65.5 -53.5q-50 -18 -140 -18q62 -45 62 -132q0 -107 -100.5 -184.5t-239.5 -77.5q-136 0 -228 75t-92 186z" />
<glyph unicode="'" horiz-adv-x="193" d="M143 409l41 199q7 35 16 48q16 24 44 24q16 0 26 -8t10 -22q0 -12 -12 -42l-80 -199h-45z" />
<glyph unicode="(" horiz-adv-x="289" d="M56 93q0 124 44.5 249.5t123 224t173.5 147.5l21 -33q-127 -88 -208.5 -263.5t-81.5 -361.5q0 -156 43 -258l-34 -19q-37 55 -59 140t-22 174z" />
<glyph unicode=")" horiz-adv-x="282" d="M-92 -189q127 88 208.5 264t81.5 362q0 157 -43 257l34 20q37 -55 59 -140t22 -175q0 -189 -98 -367t-243 -253z" />
<glyph unicode="*" horiz-adv-x="460" d="M169 428q0 26 42 45q63 27 86 27q11 0 11 -11q0 -16 -53 -76q-25 -29 -44 -29q-16 0 -29 13.5t-13 30.5zM169 593q0 17 13 30.5t29 13.5q23 0 60 -47t37 -58q0 -10 -12 -10q-20 0 -84 27q-43 18 -43 44zM325 446q0 39 14 40q7 1 25 -22t33.5 -51.5t15.5 -40.5 q0 -16 -13.5 -27.5t-30.5 -11.5q-25 0 -34.5 24.5t-9.5 88.5zM325 574q0 65 9.5 89.5t34.5 24.5q18 0 31 -12t13 -28q0 -18 -31 -65.5t-43 -47.5q-14 0 -14 39zM353 511q0 8 19 16q67 26 102 24q17 -1 27 -12t10 -29q0 -17 -10.5 -28.5t-26.5 -11.5q-43 0 -106 26 q-15 6 -15 15z" />
<glyph unicode="+" d="M67 305v43h205v195h43v-195h205v-43h-205v-195h-43v195h-205z" />
<glyph unicode="," horiz-adv-x="220" d="M-26 -129q0 10 26 19q31 12 55 41t24 55q0 10 -3.5 13t-21.5 9q-13 4 -22 18.5t-9 30.5q0 23 16.5 40t38.5 17q29 0 47 -23.5t18 -61.5q0 -31 -15.5 -65t-39.5 -57q-20 -19 -50 -34.5t-46 -15.5q-7 0 -12.5 4.5t-5.5 9.5z" />
<glyph unicode="-" horiz-adv-x="163" d="M3 195l18 57h162l-18 -57h-162z" />
<glyph unicode="." horiz-adv-x="220" d="M30 42q0 23 16.5 39t39.5 16q22 0 38 -16.5t16 -38.5t-16 -38.5t-39 -16.5t-39 16.5t-16 38.5z" />
<glyph unicode="/" horiz-adv-x="398" d="M-82 -207l503 907h62l-505 -907h-60z" />
<glyph unicode="0" d="M50 192q0 85 34 179.5t92 168.5q104 134 222 134q69 0 106.5 -49t37.5 -138q0 -74 -27 -166.5t-68 -157.5q-52 -82 -116.5 -126t-132.5 -44q-69 0 -108.5 53t-39.5 146zM127 133q0 -46 21 -73t56 -27q72 0 135 107q64 106 107 271q23 86 23 131q0 91 -74 91 q-46 0 -85 -37.5t-83 -121.5q-45 -88 -72.5 -181.5t-27.5 -159.5z" />
<glyph unicode="1" d="M179 522l1 42q64 16 145.5 47t113.5 52h44l-203 -663h-90l177 580q-22 -10 -84.5 -29t-103.5 -29z" />
<glyph unicode="2" d="M14 0l11 63q193 162 266 249q104 124 104 202q0 39 -20 61.5t-54 22.5q-77 0 -126 -104l-35 12q28 73 83.5 116.5t120.5 43.5q58 0 95.5 -36t37.5 -92q0 -54 -33.5 -109t-114.5 -134q-50 -50 -246 -217h273q20 0 29.5 7t20.5 29h26l-50 -114h-388z" />
<glyph unicode="3" d="M22 114q0 20 11.5 34t28.5 14q18 0 26 -11.5t10 -41.5q3 -40 21.5 -58t56.5 -18q76 0 134 86q57 85 57 164q0 31 -15 48.5t-41 17.5q-35 0 -59 -27q-15 -16 -22 -16q-8 0 -15 9t-7 19q0 8 5 13t20 11q87 38 154 113q46 52 46 95q0 24 -19 38.5t-50 14.5q-76 0 -128 -85 l-35 20q37 53 70 77q59 43 135 43q50 0 82.5 -23.5t32.5 -60.5q0 -82 -120 -162q-45 -31 -78 -46q129 0 129 -115q0 -107 -84 -190.5t-192 -83.5q-62 0 -108 36t-46 85z" />
<glyph unicode="4" d="M28 175q0 8 30 45l361 447h76l-134 -466h62q28 0 41 42h28l-23 -82h-119l-47 -161h-84l47 161h-215q-23 0 -23 14zM93 201h184l100 348z" />
<glyph unicode="5" d="M32 116q0 24 12.5 39t32.5 15q15 0 24.5 -10.5t9.5 -26.5q0 -4 -2 -18l-1 -20q-1 -28 19.5 -46t53.5 -18q92 0 154 120q45 90 45 174q0 46 -20 70.5t-58 24.5q-35 0 -65.5 -21t-49.5 -58h-45l124 326h297l-34 -72h-248l-66 -174q55 41 119 41q61 0 98 -40.5t37 -107.5 q0 -57 -25 -117.5t-69 -109.5q-82 -94 -196 -94q-86 0 -125 57q-22 31 -22 66z" />
<glyph unicode="6" d="M75 181q0 86 39 184t105 177q112 132 243 132q50 0 84.5 -18.5t34.5 -45.5q0 -16 -11.5 -27.5t-27.5 -11.5q-11 0 -18 5.5t-19 23.5q-22 31 -59 31q-60 0 -119 -63.5t-112 -185.5q58 50 127 50q58 0 91.5 -39t33.5 -106q0 -107 -78 -200.5t-167 -93.5q-67 0 -107 51 t-40 137zM148 143q0 -52 22.5 -82.5t60.5 -30.5q69 0 121 110q36 79 36 154q0 44 -20 69t-55 25q-87 0 -134 -104q-31 -67 -31 -141z" />
<glyph unicode="7" d="M139 24q0 23 55 106l307 464h-245q-25 0 -35 -4.5t-19 -20.5q-11 -20 -20 -64h-32l35 162h401l-343 -616q-33 -58 -68 -58q-15 0 -25.5 9t-10.5 22z" />
<glyph unicode="8" d="M48 146q0 78 54.5 142.5t130.5 77.5q-51 43 -51 112q0 79 62 137.5t146 58.5q63 0 101 -37t38 -99q0 -64 -40.5 -114t-114.5 -78q32 -17 50 -51.5t18 -77.5q0 -85 -72 -159q-29 -29 -74.5 -47t-89.5 -18q-70 0 -114 42.5t-44 110.5zM126 120q0 -43 20 -66t57 -23 q76 0 123 92q36 69 36 136q0 38 -20.5 60.5t-55.5 22.5q-59 0 -109.5 -70t-50.5 -152zM259 441q0 -28 16.5 -45.5t42.5 -17.5q59 0 98 78q33 64 33 119q0 64 -60 64q-55 0 -92 -66q-38 -68 -38 -132z" />
<glyph unicode="9" d="M17 82q0 20 11.5 34t28.5 14q25 0 31 -30q7 -31 17 -42q19 -21 50 -21q49 0 97.5 36t85.5 100q32 55 63 137q-52 -46 -117 -46q-63 0 -101.5 43.5t-38.5 115.5q0 97 71.5 174t160.5 77q70 0 110 -50.5t40 -138.5q0 -117 -57 -232t-148 -187.5t-183 -72.5q-51 0 -86 25.5 t-35 63.5zM227 395q0 -47 19.5 -73t54.5 -26q37 0 69.5 23.5t51.5 64.5q30 62 30 137q0 115 -80 115q-67 0 -109 -89q-36 -75 -36 -152z" />
<glyph unicode=":" horiz-adv-x="220" d="M30 42q0 23 16.5 39t39.5 16q22 0 38 -16.5t16 -38.5t-16 -38.5t-39 -16.5t-39 16.5t-16 38.5zM108 372q0 23 16.5 39t39.5 16q22 0 38 -16.5t16 -38.5t-16 -38.5t-39 -16.5t-39 16.5t-16 38.5z" />
<glyph unicode=";" horiz-adv-x="220" d="M-23 -128q0 9 26 18q31 12 54 40.5t23 55.5q0 10 -3 13t-22 9q-13 4 -22 18.5t-9 30.5q0 23 16.5 40t38.5 17q29 0 47 -24t18 -62q0 -31 -15 -65t-39 -56q-19 -19 -49 -34.5t-46 -15.5q-7 0 -12.5 4.5t-5.5 10.5zM123 372q0 23 16.5 39t39.5 16q22 0 38 -16.5t16 -38.5 t-16.5 -38.5t-38.5 -16.5t-38.5 16.5t-16.5 38.5z" />
<glyph unicode="&#x3c;" d="M45 336l407 259v-56l-320 -202l320 -203v-56z" />
<glyph unicode="=" d="M70 232v43h453v-43h-453zM70 379v43h453v-43h-453z" />
<glyph unicode="&#x3e;" d="M48 78v56l320 203l-320 202v56l407 -258z" />
<glyph unicode="?" horiz-adv-x="435" d="M116 42q0 23 16.5 39t39.5 16q22 0 38 -16.5t16 -38.5t-16 -38.5t-39 -16.5t-39 16.5t-16 38.5zM175 563q0 50 51 87t118 37q75 0 117 -35.5t42 -97.5q0 -57 -32 -103q-21 -31 -50.5 -53.5t-82.5 -46.5q-51 -23 -69.5 -48t-36.5 -98h-51q13 82 27 110q7 18 29 30 q37 16 71 32q105 48 105 174q0 94 -83 94q-28 0 -48 -15q-14 -10 -20 -39q-5 -26 -21 -42t-36 -16q-30 0 -30 30z" />
<glyph unicode="@" horiz-adv-x="737" d="M63 183q0 158 108.5 272.5t258.5 114.5q120 0 196.5 -69t76.5 -177q0 -112 -68.5 -198.5t-157.5 -86.5q-30 0 -47 14.5t-17 39.5q0 10 1 16q-31 -38 -56 -53t-57 -15q-38 0 -59.5 22.5t-21.5 63.5q0 97 66 179t144 82q54 0 65 -48l15 41h59l-87 -236q-13 -36 -13 -53 q0 -29 28 -29q61 0 114.5 83t53.5 177q0 95 -66.5 156t-171.5 61q-132 0 -227.5 -105t-95.5 -250q0 -127 74.5 -203.5t198.5 -76.5q86 0 185 51l13 -28q-103 -55 -203 -55q-139 0 -224 85t-85 225zM283 108q0 -44 31 -44q47 0 103.5 89t56.5 164q0 22 -10.5 35t-28.5 13 q-46 0 -84 -60q-29 -46 -48.5 -102.5t-19.5 -94.5z" />
<glyph unicode="A" horiz-adv-x="599" d="M-63 0l10 31h16q31 0 53 16.5t56 65.5l391 568h45l-33 -583q-4 -30 8 -48.5t38 -18.5h23l-8 -31h-250l9 31h14q44 0 58.5 13t17.5 57l9 140h-182l-77 -115q-33 -48 -33 -67q0 -28 68 -28h15l-10 -31h-238zM236 275h159l16 255z" />
<glyph unicode="B" horiz-adv-x="636" d="M-13 0l10 31h33q34 0 48.5 12.5t27.5 52.5l145 462q10 33 10 43q0 34 -46 34h-38l10 32h278q84 0 124 -34q45 -37 45 -101q0 -55 -35.5 -98.5t-96.5 -62.5q-37 -11 -74 -13q73 -13 113 -54t40 -103q0 -75 -48 -126q-38 -41 -96 -58.5t-153 -17.5q-15 0 -90.5 2.5 t-93.5 2.5q-70 0 -113 -4zM197 70q0 -20 26 -31t72 -11q76 0 121 42q59 57 59 148q0 62 -34 91t-107 29h-57l-70 -221q-10 -31 -10 -47zM288 372h58q66 0 106 24q36 21 57 59.5t21 82.5q0 48 -28 73q-24 23 -82 23h-50z" />
<glyph unicode="C" horiz-adv-x="592" d="M71 249q0 107 54.5 209t142 165.5t179.5 63.5q45 0 87.5 -17t64.5 -45l41 42h27l-53 -215h-32q5 23 5 41q0 72 -36.5 114.5t-97.5 42.5q-115 0 -204 -162q-76 -139 -76 -278q0 -89 40 -139.5t110 -50.5q69 0 119 43.5t89 137.5h38l-77 -215h-27l-11 34q-79 -40 -148 -40 q-104 0 -169.5 75t-65.5 194z" />
<glyph unicode="D" horiz-adv-x="686" d="M-13 0l10 31h29q32 0 45 11.5t24 47.5q28 91 78.5 258.5t64.5 212.5q9 31 9 42q0 33 -52 33h-37l10 33h244q119 0 185 -52q97 -74 97 -224q0 -103 -49 -197.5t-129 -143.5q-90 -57 -228 -54l-64 1zM186 68q0 -38 90 -38q117 0 189 70q57 57 90.5 145t33.5 182 q0 139 -79 185q-44 26 -152 26l-165 -537q-7 -23 -7 -33z" />
<glyph unicode="E" horiz-adv-x="614" d="M-13 0l10 31h37q13 0 23 3t15.5 6t10.5 12.5t7 14t6.5 20t6.5 22.5l142 449q9 27 9 44q0 33 -48 33h-36l10 32h453l-1 -164h-25q-4 75 -49 112q-26 21 -83 21h-111l-82 -261h64q42 0 60.5 5t33.5 21q27 28 43 77h32l-83 -264h-32q11 41 11 67q0 57 -66 57h-75l-68 -217 q-11 -33 -11 -52q0 -41 121 -41q71 0 112.5 13t75.5 46q39 36 67 97h31l-58 -184h-553z" />
<glyph unicode="F" horiz-adv-x="573" d="M-13 0l10 31h37q43 0 54 30q2 4 3 8t4.5 15.5t7.5 25.5l142 448q9 27 9 43q0 34 -52 34h-32l10 32h475l2 -152h-30q-3 54 -32 89q-16 18 -37.5 25t-63.5 7h-130l-84 -266h119q43 0 64 21.5t37 80.5h35l-85 -267h-35q18 46 18 81q0 26 -14 36.5t-51 10.5h-100l-70 -225 q-10 -31 -10 -43q0 -34 50 -34h34l-10 -31h-275z" />
<glyph unicode="G" horiz-adv-x="679" d="M77 259q0 113 53.5 212t143.5 157.5t193 58.5q117 0 166 -66l31 46h35l-54 -216h-30q2 17 2 38q0 76 -38 118.5t-105 42.5q-133 0 -218 -165q-76 -144 -76 -289q0 -85 36.5 -130.5t104.5 -45.5q82 0 143 68l31 97q7 23 7 34q0 15 -13 20.5t-50 5.5h-22l10 39h263l-10 -39 h-22q-38 0 -52 -18q-7 -10 -18 -56l-43 -171h-17l-33 50q-74 -70 -180 -70t-172 77t-66 202z" />
<glyph unicode="H" horiz-adv-x="741" d="M-13 0l10 31h26q37 0 50 10.5t24 48.5q28 91 81 257.5t67 210.5q9 27 9 44q0 33 -53 33h-30l10 32h267l-10 -32h-11q-44 0 -57.5 -12t-30.5 -67l-60 -191h295l62 196q8 28 8 41q0 33 -56 33h-27l10 32h268l-10 -32h-12q-44 0 -57.5 -12t-30.5 -67l-141 -448 q-9 -27 -9 -45t15 -26q11 -6 68 -6l-10 -31h-275l11 31h22q14 0 24.5 1t18.5 5.5t12.5 6.5t9.5 12t6 13t6 19.5t7 21.5l68 218h-295l-69 -220q-9 -29 -9 -43q0 -34 54 -34h29l-10 -31h-275z" />
<glyph unicode="I" horiz-adv-x="351" d="M-13 0l10 31h28q36 0 49.5 10.5t24.5 47.5q3 13 6 20l140 449q9 31 9 44q0 33 -53 33h-30l9 32h268l-10 -32h-11q-44 0 -57.5 -12t-30.5 -67l-140 -448q-10 -33 -10 -44q0 -33 54 -33h29l-10 -31h-275z" />
<glyph unicode="J" horiz-adv-x="352" d="M-197 -101q0 17 12 29.5t30 12.5q22 0 34 -17q4 -8 11 -40q4 -17 18.5 -27.5t36.5 -10.5q84 0 136 163l173 549q9 31 9 44q0 33 -53 33h-30l10 32h266l-8 -32h-12q-44 0 -57.5 -12t-30.5 -67l-164 -521q-37 -116 -93.5 -169t-143.5 -53q-59 0 -101.5 25.5t-42.5 60.5z " />
<glyph unicode="K" horiz-adv-x="640" d="M-13 0l10 31h30q34 0 46.5 10.5t23.5 48.5q28 91 78.5 257.5t64.5 211.5q8 24 8 43q0 34 -53 34h-30l9 31h268l-9 -31h-12q-43 0 -56.5 -12t-30.5 -67l-76 -247l282 275q20 20 20 31t-10 15.5t-37 4.5h-19l8 31h234l-7 -31h-17q-64 0 -119 -54l-187 -181l121 -316 q13 -35 26.5 -44.5t49.5 -9.5h27l-9 -31h-271l9 31h13q36 0 50 4.5t14 16.5q0 8 -8 31l-91 253l-99 -94l-41 -134q-9 -31 -9 -43q0 -34 53 -34h30l-9 -31h-275z" />
<glyph unicode="L" horiz-adv-x="589" d="M-13 0l10 31h30q37 0 48.5 12t28.5 66l141 449q9 28 9 44q0 33 -54 33h-30l10 32h268l-10 -32h-12q-43 0 -56.5 -12t-30.5 -67l-141 -447q-7 -23 -7 -37q0 -24 25 -34t85 -10q71 0 113 15t76 53q32 35 47 82h32l-57 -178h-525z" />
<glyph unicode="M" horiz-adv-x="837" d="M-17 0l7 31h25q20 0 31 5.5t18.5 17.5t18.5 41l188 492q5 13 5 19q0 16 -14 24q-10 6 -60 6h-23l4 31h181l30 -519l335 519h178l-8 -31h-8q-47 0 -61 -10.5t-25 -56.5l-119 -475q-4 -18 -4 -24q0 -18 14 -28.5t37 -10.5h33l-9 -31h-277l7 31h26q38 0 54.5 12t23.5 46 q22 93 64.5 264.5t53.5 215.5l-367 -569h-31l-30 505l-148 -399q-13 -34 -13 -49t13 -20.5t50 -5.5h14l-7 -31h-207z" />
<glyph unicode="N" horiz-adv-x="676" d="M-13 0l9 31h20q35 0 49 13.5t28 60.5l149 493q-12 38 -47 38h-43l8 31h157l201 -515l120 416q9 32 9 43q0 15 -14 20t-54 5h-19l9 31h214l-8 -31h-19q-36 0 -48.5 -12.5t-27.5 -62.5l-174 -585h-13l-226 564l-134 -447q-8 -27 -8 -35q0 -16 15.5 -21.5t57.5 -5.5h15 l-8 -31h-218z" />
<glyph unicode="O" horiz-adv-x="626" d="M80 251q0 109 49.5 210.5t130 163.5t166.5 62q91 0 150.5 -78t59.5 -198q0 -80 -32.5 -164t-89.5 -150q-100 -117 -222 -117q-94 0 -153 75.5t-59 195.5zM182 189q0 -79 30.5 -124t84.5 -45q106 0 182 188q23 59 39 137.5t16 136.5q0 168 -105 168q-64 0 -121 -69 q-49 -58 -87.5 -178t-38.5 -214z" />
<glyph unicode="P" horiz-adv-x="578" d="M-13 0l9 31h29q43 0 64 28q7 8 20 52l134 462q8 30 8 39q0 12 -8 17q-10 6 -63 6h-15l9 32h154l69 1l47 1q91 1 141 -44q46 -43 46 -113q0 -107 -87 -163q-43 -29 -84 -37.5t-138 -8.5h-59l-55 -188q-11 -38 -11 -48q0 -17 14 -26.5t38 -9.5h34l-10 -31h-286zM272 337h62 q63 0 93 10t54 40q48 58 48 144q0 60 -28.5 82.5t-103.5 22.5h-37z" />
<glyph unicode="Q" horiz-adv-x="626" d="M33 -134q0 14 19.5 25.5t75.5 30.5q91 32 112 64q-73 19 -116.5 91t-43.5 173q0 109 49.5 210.5t130.5 164t167 62.5q89 0 149 -76.5t60 -189.5q0 -110 -49 -212.5t-129.5 -165.5t-166.5 -63h-13q-29 -28 -88 -60q28 9 56 9q25 0 47 -8t98 -43q45 -21 86 -21 q27 0 51 13.5t35 35.5q5 10 10 10q9 0 9 -16q0 -48 -39.5 -85.5t-89.5 -37.5q-59 0 -139 56q-63 43 -89.5 55.5t-55.5 12.5q-42 0 -72 -27q-23 -21 -28.5 -24.5t-15.5 -3.5q-8 0 -14 6t-6 14zM182 188q0 -78 29.5 -123t80.5 -45q108 0 184 188q24 60 41 140t17 136 q0 166 -103 166q-111 0 -191 -198q-58 -143 -58 -264z" />
<glyph unicode="R" horiz-adv-x="642" d="M-13 0l9 31h34q39 0 58 25q9 12 20 52l134 461q8 28 8 41q0 15 -14 20t-55 5h-15l9 32h154l111 3q77 2 124 -39t47 -110q0 -64 -36.5 -108.5t-104.5 -63.5q-49 -15 -96 -15q63 -18 87 -52t37 -125q11 -74 20 -91q12 -28 42 -28q32 0 61 36l18 -22q-58 -67 -129 -67 q-55 0 -79 39q-21 35 -27 136q-5 80 -10 106.5t-18 42.5q-22 25 -73 25h-34l-68 -235q-6 -18 -6 -32q0 -36 54 -36h28l-9 -31h-281zM278 363h28q63 0 87 4t49 19q35 21 56 62t21 90q0 55 -29 77.5t-100 22.5q-4 0 -32 -2z" />
<glyph unicode="S" horiz-adv-x="505" d="M15 0l46 223h28l-1 -32q-2 -74 41 -122.5t110 -48.5q54 0 89 33t35 84q0 35 -20 69t-76 93q-57 59 -79.5 102t-22.5 92q0 80 55 137t133 57q95 0 138 -68l27 52h33l-35 -205h-32q0 70 -14 103q-15 38 -46 59.5t-71 21.5q-49 0 -79.5 -32t-30.5 -83q0 -38 27 -77 q19 -27 115 -130q66 -69 66 -152q0 -84 -59 -140t-148 -56q-97 0 -155 74l-36 -54h-38z" />
<glyph unicode="T" horiz-adv-x="603" d="M78 0l10 31h32q53 0 72 25q6 7 21 56l164 520h-83q-59 0 -94.5 -28.5t-58.5 -94.5h-31l58 158h546l-50 -158h-33q15 48 15 70q0 29 -17.5 41t-57.5 12h-99l-167 -530q-6 -20 -6 -32q0 -39 74 -39h31l-10 -31h-316z" />
<glyph unicode="U" horiz-adv-x="727" d="M123 136q0 38 17 90l105 333q9 30 9 43q0 34 -48 34h-36l10 31h276l-9 -31h-28q-40 0 -56 -19q-9 -11 -20 -46l-119 -380q-11 -36 -11 -61q0 -50 42.5 -80t113.5 -30q74 0 125 42q48 40 83 149l114 362q8 24 8 41q0 14 -13.5 18t-57.5 4h-13l10 31h219l-10 -31h-26 q-32 0 -48 -16q-9 -10 -21 -49l-118 -376q-37 -115 -97 -163q-65 -52 -166 -52q-112 0 -184 52q-51 37 -51 104z" />
<glyph unicode="V" horiz-adv-x="603" d="M131 635v32h269v-32h-11q-42 0 -54.5 -4t-20.5 -19q-6 -11 -9 -59l-24 -440l307 461q15 22 15 36q0 6 -2 10t-6.5 7t-12.5 4.5t-19 2.5t-27 1h-15v32h229v-32h-12q-37 0 -53.5 -11t-46.5 -57q-77 -115 -219 -327.5t-180 -268.5h-59l31 587q0 9 0.5 15t1 8.5t0.5 4.5v4 q0 29 -12 37t-56 8h-14z" />
<glyph unicode="W" horiz-adv-x="885" d="M132 636v31h262v-31h-11q-51 0 -62.5 -9t-13.5 -49l-21 -416l306 505h48l-25 -505l259 409q18 28 18 42q0 11 -8 16q-7 5 -15 6t-46 1h-12v31h228v-31h-23q-35 0 -50 -13t-50 -68l-368 -582h-36l25 513l-316 -513h-37l27 591l1 16q2 40 -8.5 48t-60.5 8h-11z" />
<glyph unicode="X" horiz-adv-x="654" d="M-30 0v31h25q26 0 40.5 9t57.5 54l231 238l-73 241q-11 39 -15 44q-14 19 -48 19h-30v31h260v-31h-12q-30 0 -36.5 -1t-13.5 -7q-8 -6 -8 -18q0 -16 9 -46l45 -152l160 165q25 25 25 41q0 11 -9.5 14.5t-40.5 3.5h-19v31h231v-31h-29q-37 0 -68 -25l-47 -48l-189 -197 l83 -280q10 -33 24 -44t46 -11h28v-31h-268v31h21q30 0 42.5 5t11.5 17q0 8 -7 32l-61 202l-203 -209q-15 -16 -15 -26q0 -21 46 -21h33v-31h-227z" />
<glyph unicode="Y" horiz-adv-x="625" d="M116 0l10 31h20q47 0 61.5 12.5t31.5 65.5l65 212l-88 266q-10 29 -16 35q-16 13 -47 13h-31l7 32h262l-8 -32h-11q-33 0 -41.5 -2t-16.5 -10q-7 -7 -7 -16q0 -7 7 -31l65 -209l198 213q19 20 19 33t-12 18q-10 4 -58 4h-12l8 32h256l-8 -32h-13q-44 0 -64.5 -9.5 t-57.5 -48.5l-236 -243l-67 -227q-7 -26 -7 -40q0 -20 13 -28t46 -8h26l-9 -31h-285z" />
<glyph unicode="Z" horiz-adv-x="632" d="M20 0l6 19l518 616l-194 -5q-72 -2 -112 -31t-70 -103h-34l54 171h489l-5 -15l-516 -619l201 3q78 1 126 38t80 117h38l-57 -191h-524z" />
<glyph unicode="[" horiz-adv-x="300" d="M-54 -210l284 910h201l-12 -36h-128l-261 -838h128l-11 -36h-201z" />
<glyph unicode="\" horiz-adv-x="398" d="M204 700h56l17 -907h-54z" />
<glyph unicode="]" horiz-adv-x="300" d="M-94 -210l11 36h129l261 838h-128l11 36h201l-284 -910h-201z" />
<glyph unicode="^" d="M51 415l191 299h7l200 -299h-81l-135 204l-133 -204h-49z" />
<glyph unicode="_" d="M0 -99h500v-43h-500v43z" />
<glyph unicode="`" d="M249 617q0 10 17 10h68l37 -122q1 -3 1 -8q0 -10 -14 -10q-10 0 -14 6l-92 117q-3 3 -3 7z" />
<glyph unicode="a" horiz-adv-x="458" d="M28 99q0 57 29 124t78 124q79 93 163 93q34 0 51 -29l6 16h77l-111 -363q-4 -9 -4 -18q0 -17 15 -17q19 0 43 24t47 65l27 -13q-65 -118 -138 -118q-26 0 -43 19t-17 47v11q-40 -42 -70 -59.5t-62 -17.5q-42 0 -66.5 30.5t-24.5 81.5zM104 85q0 -56 35 -56q31 0 65.5 37 t60.5 99q69 163 69 209q0 14 -10.5 23.5t-25.5 9.5q-53 0 -122 -115q-72 -122 -72 -207z" />
<glyph unicode="b" horiz-adv-x="415" d="M36 71q0 31 14 75l149 475q4 16 4 20q0 18 -36 18h-34l12 31q91 0 149 17l9 -7l-98 -317q47 57 105 57q43 0 68 -31t25 -83q0 -85 -38.5 -164t-101.5 -127t-131 -48q-44 0 -70 23t-26 61zM110 59q0 -35 35 -35q65 0 131 129q25 49 42.5 109.5t17.5 98.5q0 40 -33 43 q-32 2 -64.5 -33t-64.5 -104q-26 -57 -45 -119.5t-19 -88.5z" />
<glyph unicode="c" horiz-adv-x="328" d="M28 114q0 73 38 149.5t96 126.5t113 50q28 0 47 -17.5t19 -42.5q0 -19 -11 -32t-27 -13q-13 0 -22 9.5t-9 22.5q0 3 2.5 13.5t2.5 13.5q0 12 -17 12q-22 0 -43.5 -24.5t-49.5 -81.5q-63 -131 -63 -220q0 -53 40 -53q31 0 62 32t54 88l30 -14q-30 -69 -71 -107.5 t-85 -38.5q-48 0 -77 34.5t-29 92.5z" />
<glyph unicode="d" horiz-adv-x="458" d="M29 103q0 74 41.5 153.5t105 131.5t122.5 52q31 0 52 -22l64 203q5 15 5 20q0 18 -42 18h-28l12 31q95 0 148 17l11 -7l-197 -621q-8 -24 -8 -33q0 -7 4.5 -11.5t10.5 -4.5q19 0 43 24t47 64l28 -13q-66 -118 -139 -118q-26 0 -44 20t-16 48q0 6 1 9q-71 -77 -127 -77 q-42 0 -68 32t-26 84zM104 81q0 -54 40 -54q45 0 83 60.5t81 199.5l21 67q5 17 5 24q0 26 -32 26q-36 0 -79.5 -46t-78.5 -123q-40 -86 -40 -154z" />
<glyph unicode="e" horiz-adv-x="325" d="M25 103q0 74 37 154t93.5 132t109.5 52q27 0 45.5 -18t18.5 -45q0 -52 -57.5 -107.5t-161.5 -103.5q-13 -44 -13 -78q0 -62 43 -62q58 0 113 117l33 -17q-72 -140 -166 -140q-42 0 -68.5 32.5t-26.5 83.5zM123 209l16 8q61 33 100.5 77.5t39.5 80.5q0 13 -7.5 21t-18.5 8 q-34 0 -71 -55.5t-59 -139.5z" />
<glyph unicode="f" horiz-adv-x="276" d="M-165 -227q0 22 13 37t31 15q14 0 24.5 -9.5t10.5 -22.5q0 -12 -11 -31q-3 -4 -3 -9q0 -14 18 -14q24 0 43.5 37t45.5 130l133 477h-105l9 35h105l7 24q25 86 46.5 129.5t54.5 78.5q56 59 131 59q39 0 67.5 -20t28.5 -47q0 -17 -11.5 -29t-29.5 -12q-33 0 -43 39 q-4 18 -10 24t-20 6q-36 0 -62 -34q-27 -39 -52 -128l-25 -90h97l-9 -35h-97l-124 -444q-65 -233 -186 -233q-34 0 -55.5 19t-21.5 48z" />
<glyph unicode="g" horiz-adv-x="392" d="M-58 -139q0 38 25 63.5t62 25.5q33 0 33 -13q0 -6 -17 -16q-38 -23 -38 -62q0 -37 40 -61.5t100 -24.5q57 0 95.5 26t38.5 65q0 37 -53 61q-30 14 -126 40q-48 14 -68.5 32t-20.5 48q0 35 29 60t81 35q-55 38 -55 103q0 77 53.5 137t121.5 60q41 0 74 -32q39 38 70 38 q18 0 30 -10.5t12 -26.5q0 -13 -9.5 -22.5t-22.5 -9.5t-22 12q-9 11 -19 11q-13 0 -22 -12q21 -38 21 -74q0 -48 -23 -94.5t-58 -71.5q-35 -24 -122 -36q-45 -6 -61.5 -15t-16.5 -28q0 -18 20 -29q11 -5 111 -27q70 -15 101.5 -42t31.5 -72q0 -68 -59.5 -113.5t-149.5 -45.5 q-82 0 -134.5 34t-52.5 87zM134 205q0 -61 45 -61q51 0 86 92q26 68 26 122t-45 54q-24 0 -42 -19t-38 -64q-32 -75 -32 -124z" />
<glyph unicode="h" horiz-adv-x="452" d="M5 0l196 621q4 16 4 20q0 10 -6 13t-30 5h-34l12 31q94 0 149 17l10 -7l-105 -337q66 77 135 77q31 0 51.5 -18.5t20.5 -47.5q0 -21 -14 -64l-72 -228q-9 -28 -9 -39q0 -6 4.5 -10.5t10.5 -4.5q34 0 88 88l26 -13q-62 -116 -141 -116q-27 0 -45.5 16.5t-18.5 40.5 q0 20 20 86l66 212q7 21 7 34q0 9 -6 15t-16 6q-37 0 -82 -47q-49 -52 -79 -151l-62 -199h-80z" />
<glyph unicode="i" horiz-adv-x="266" d="M40 311q14 29 24 46.5t26.5 39.5t37 32.5t44.5 10.5q26 0 42.5 -13.5t16.5 -35.5q0 -16 -11 -50l-85 -263q-6 -18 -6 -26q0 -16 14 -16q17 0 32 18t39 67l30 -16q-61 -118 -133 -118q-27 0 -45.5 15.5t-18.5 37.5q0 18 10 50l82 251q8 26 8 34q0 12 -11 12 q-15 0 -28 -18.5t-33 -66.5zM186 588q0 22 16 37.5t38 15.5t37.5 -15.5t15.5 -37.5t-15.5 -38t-37.5 -16t-38 16t-16 38z" />
<glyph unicode="j" horiz-adv-x="256" d="M-153 -214q0 19 12.5 32t29.5 13q13 0 22.5 -9t9.5 -22q0 -12 -10 -26q-6 -9 -6 -13q0 -16 25 -16q28 0 47.5 36.5t57.5 154.5l103 325q30 93 30 113q0 15 -14 15q-17 0 -37 -23t-37 -62l-33 9q63 127 149 127q51 0 51 -49q0 -39 -34 -146l-97 -308q-29 -91 -62 -139 q-54 -79 -128 -79q-34 0 -56.5 19t-22.5 48zM200 588q0 22 16 37.5t38 15.5t37.5 -15.5t15.5 -37.5t-15.5 -38t-37.5 -16t-38 16t-16 38z" />
<glyph unicode="k" horiz-adv-x="444" d="M5 0l193 621q4 12 4 19q0 19 -45 19h-24l12 31q58 0 86.5 3.5t62.5 13.5l11 -7l-142 -450q4 5 13 16q27 33 42 50.5t42.5 46.5t48.5 44t47.5 27.5t49.5 12.5q19 0 31.5 -10.5t12.5 -26.5q0 -15 -12 -26t-29 -11q-7 0 -28 5t-28 5q-22 0 -59.5 -33t-77.5 -87 q45 -7 62.5 -36t21.5 -103q3 -61 11 -74q7 -9 18 -9q40 0 63 83l30 -13q-16 -56 -50 -90t-74 -34q-32 0 -50.5 23t-18.5 64q0 9 2 51t2 55q0 55 -41 55q-16 0 -38 -14l-70 -221h-79z" />
<glyph unicode="l" horiz-adv-x="252" d="M29 53q0 26 15 75l154 493q5 17 5 19q0 19 -37 19h-33l12 31q94 0 149 17l10 -7l-183 -579q-15 -48 -15 -61q0 -23 20 -23q44 0 91 101l33 -17q-37 -71 -72 -102.5t-78 -31.5q-32 0 -51.5 18t-19.5 48z" />
<glyph unicode="m" horiz-adv-x="683" d="M33 306q60 134 127 134q54 0 54 -60q0 -17 -7 -46q65 106 135 106q35 0 55 -20.5t20 -56.5q0 -13 -2 -25q72 102 143 102q35 0 58.5 -19t23.5 -47q0 -23 -11 -58l-75 -238q-6 -18 -6 -29q0 -21 16 -21q36 0 81 96l29 -20q-58 -117 -137 -117q-29 0 -47.5 17.5t-18.5 45.5 q0 19 13 60l71 225q8 24 8 38q0 24 -25 24q-42 0 -84.5 -58t-74.5 -158l-57 -181h-79l104 338q6 20 6 32q0 27 -26 27q-40 0 -80 -56.5t-72 -158.5l-57 -182h-80l91 290q21 66 21 79q0 17 -14 17q-27 0 -73 -88z" />
<glyph unicode="n" horiz-adv-x="470" d="M33 306q60 134 126 134q23 0 36.5 -13.5t13.5 -38.5q0 -28 -11 -68q82 120 153 120q33 0 55 -20.5t22 -51.5t-17 -79l-69 -203q-7 -20 -7 -31q0 -16 15 -16q38 0 79 85l32 -15q-27 -56 -66.5 -89t-79.5 -33q-27 0 -43.5 15t-16.5 39q0 29 19 83l61 178q18 54 18 71 q0 11 -7 17.5t-18 6.5q-42 0 -96 -84q-32 -50 -58 -135l-56 -178h-80l91 289q20 63 20 79q0 18 -13 18q-14 0 -34 -24t-39 -64z" />
<glyph unicode="o" horiz-adv-x="391" d="M38 141q0 117 67 208.5t153 91.5q50 0 80.5 -40t30.5 -104q0 -121 -67.5 -215.5t-153.5 -94.5q-50 0 -80 42t-30 112zM106 89q0 -65 45 -65q49 0 97 106q22 49 38 113.5t16 104.5q0 25 -12 40t-32 15q-30 0 -54 -27t-49 -89q-49 -124 -49 -198z" />
<glyph unicode="p" horiz-adv-x="431" d="M-118 -253l10 30h18q33 0 43 8t21 41l168 532q-42 -42 -95 -150h-38q36 73 106 179l45 66q0 1 2.5 4.5t6.5 10.5t8 13l31 89h81q-17 -39 -30 -77l-33 -96q46 43 91 43q46 0 73 -36.5t27 -98.5q0 -114 -72.5 -216t-153.5 -102q-43 0 -72 44l-65 -207q-7 -21 -7 -29 q0 -11 9 -14.5t37 -3.5h23l-10 -30h-224zM142 76q0 -20 12.5 -34t31.5 -14q25 0 50 20.5t43 55.5q29 56 47 120.5t18 116.5q0 61 -44 61q-51 0 -86 -82q-25 -61 -48.5 -139.5t-23.5 -104.5z" />
<glyph unicode="q" horiz-adv-x="420" d="M35 125q0 113 74.5 214t156.5 101q50 0 69 -49l12 36h79l-195 -618q-3 -9 -3 -16q-1 -10 7.5 -13t40.5 -3h13l-9 -30h-216l10 30h9q42 0 52 6.5t21 39.5l62 199q-44 -36 -84 -36q-45 0 -72 37.5t-27 101.5zM110 97q0 -33 14 -52t38 -19q48 0 79 74q9 21 56 175 q16 55 16 77t-11.5 34.5t-31.5 12.5q-39 0 -76 -56t-60.5 -124.5t-23.5 -121.5z" />
<glyph unicode="r" horiz-adv-x="319" d="M33 297q44 143 107 143q55 0 55 -82q0 -25 -7 -66q28 72 62 113.5t63 41.5q20 0 33 -15.5t13 -39.5q0 -20 -10.5 -35t-23.5 -15q-7 0 -11 3.5t-16 20.5q-7 10 -16 10q-37 0 -101 -203l-55 -173h-75l60 219q32 115 32 155q0 20 -13 20q-14 0 -31 -26.5t-32 -70.5h-34z" />
<glyph unicode="s" horiz-adv-x="291" d="M-10 79q0 16 9.5 26t23.5 10q36 0 39 -59q1 -20 10 -28t31 -8q29 0 50 17.5t21 41.5q0 17 -7.5 36.5t-49.5 104.5q-36 74 -36 107q0 49 37 81t93 32q45 0 72 -17t27 -46q0 -16 -10 -26t-26 -10t-21.5 6.5t-8.5 29.5q-1 13 -12 21.5t-27 8.5q-23 0 -38 -13.5t-15 -34.5 q0 -26 37 -94q55 -100 55 -147q0 -55 -41.5 -93.5t-101.5 -38.5q-46 0 -78.5 27.5t-32.5 65.5z" />
<glyph unicode="t" horiz-adv-x="279" d="M35 48q0 21 14 66l85 270h-66l11 35h66l45 143h80l-46 -144h69l-11 -34h-68l-95 -300q-6 -19 -6 -28q0 -22 19 -22q44 0 92 113l33 -16q-63 -144 -154 -144q-31 0 -49.5 16.5t-18.5 44.5z" />
<glyph unicode="u" horiz-adv-x="463" d="M43 317q24 59 57.5 91t70.5 32q53 0 53 -56q0 -29 -15 -75l-68 -216q-9 -30 -9 -38q0 -22 20 -22q40 0 88 72.5t84 185.5l43 136h79l-107 -347q-7 -21 -7 -34q0 -15 14 -15q28 0 73 91l29 -14q-62 -121 -125 -121q-25 0 -39.5 18.5t-14.5 50.5q0 19 5 44 q-78 -113 -152 -113q-29 0 -47.5 19t-18.5 49q0 24 9 53l79 248q5 16 5 23q0 13 -10 13q-30 0 -63 -83z" />
<glyph unicode="v" horiz-adv-x="391" d="M40 344q15 57 29.5 79t37.5 22q10 0 19 -6t27 -26q18 -21 30 -21q9 0 14.5 8t15.5 34q3 7 11 7q11 0 18 -6.5t7 -16.5q0 -9 -10 -25q-44 -73 -88 -186q-26 -67 -26 -108q0 -29 12.5 -46t34.5 -17q60 0 113 99q41 79 41 144q0 19 -20 78q-8 24 -8 43q0 17 11 29t27 12 q19 0 31 -24.5t12 -65.5q0 -125 -69 -245q-68 -120 -165 -120q-43 0 -70 25t-27 65q0 58 43 138q10 21 68 109q0 1 3 5.5t6.5 10t7.5 10.5q-7 0 -8 -1l-12 -1q-7 -1 -34 14q-19 13 -33 13q-20 0 -21 -36z" />
<glyph unicode="w" horiz-adv-x="662" d="M47 94q0 62 41 132q9 15 83 119l11 16q-16 -4 -23 -4q-10 0 -42 17q-12 6 -19 6q-18 0 -23 -38l-26 8q7 44 25 73t40 29q12 0 22.5 -8.5t31.5 -32.5q12 -15 22 -15q12 0 17 23q3 16 7 21.5t13 5.5t16.5 -7t7.5 -15q0 -12 -28 -56q-42 -67 -70.5 -143.5t-28.5 -123.5 q0 -29 13 -46.5t34 -17.5q50 0 130 90q-3 33 -3 48q0 95 46 180t97 85q20 0 31.5 -14.5t11.5 -39.5q0 -41 -32 -105.5t-82 -123.5q4 -52 25 -84.5t50 -32.5q53 0 105.5 78.5t52.5 158.5q0 21 -3.5 35t-20.5 61q-8 21 -8 36q0 16 11 27.5t27 11.5q21 0 33 -25t12 -69 q0 -118 -66 -239q-33 -60 -77 -94t-89 -34q-73 0 -114 97q-87 -97 -160 -97q-45 0 -73 29.5t-28 77.5zM367 221q0 -8 1 -13q80 114 80 169q0 19 -13 19q-20 0 -40 -44q-28 -60 -28 -131z" />
<glyph unicode="x" horiz-adv-x="414" d="M-11 19q0 45 34 109l31 -7q-25 -50 -25 -66q0 -12 9 -12q17 0 80 83l68 89l-34 128q-6 36 -17 36q-10 0 -17.5 -14.5t-18.5 -53.5l-27 5q38 134 90 134q35 0 55 -70l25 -90l39 52q47 62 69 83t42 21q31 0 31 -36q0 -41 -27 -107l-28 8q16 47 16 59q0 17 -12 17 q-7 0 -15 -8t-34 -41l-70 -89l41 -146q7 -26 11 -33t11 -7q20 0 46 71l30 -8q-48 -139 -106 -139q-22 0 -37 21t-27 70l-24 95l-63 -82q-45 -60 -71 -82.5t-47 -22.5q-28 0 -28 33z" />
<glyph unicode="y" horiz-adv-x="358" d="M-148 -232q0 14 12 25t28 11q14 0 48 -13q8 -4 18 -4q21 0 51.5 20t55.5 50q38 46 54 103t16 148q0 125 -23 251q-5 26 -16 26t-22.5 -28.5t-18.5 -74.5l-28 16q26 142 91 142q84 0 84 -310q0 -34 -2 -58q38 57 70.5 138t32.5 121q0 12 -3 18t-22 29q-11 15 -11 31 q0 15 9 25t23 10q23 0 37 -23.5t14 -61.5q0 -81 -80 -242q-118 -237 -216 -321q-80 -67 -146 -67q-24 0 -40 11t-16 28z" />
<glyph unicode="z" horiz-adv-x="352" d="M-14 25q0 9 9 20.5t65 71.5l211 226q-17 -4 -27 -4q-33 0 -73 14q-32 10 -45 10q-21 0 -39 -42l-27 10q16 49 43.5 79t54.5 30q29 0 66 -34q33 -32 51 -32q29 0 54 42q13 24 25 24q9 0 16 -7t7 -16q0 -12 -15.5 -30.5t-97.5 -104.5l-177 -184q31 7 41 7q31 0 68 -13 t49 -13q35 0 45 59l30 -8q-11 -57 -39.5 -93.5t-61.5 -36.5q-22 0 -62 30q-48 37 -70 37q-26 0 -48 -37q-13 -21 -17.5 -25.5t-12.5 -4.5t-15.5 8t-7.5 17z" />
<glyph unicode="{" horiz-adv-x="273" d="M-21 -131q0 40 33 137q36 107 44.5 137t8.5 49t-10.5 28t-35.5 12l8 26q23 3 36 9t25 16.5t23 38.5t22 61.5t30 100.5q24 84 42 118.5t48 61.5q43 36 122 36h36l-10 -33q-41 -1 -63 -8t-42.5 -34t-35 -68t-36.5 -122q-29 -105 -56.5 -140.5t-88.5 -49.5q31 -8 44.5 -22.5 t13.5 -39.5q0 -27 -34 -128q-50 -144 -50 -180q0 -26 23 -41t57 -11h2l-11 -33h-36q-59 0 -84 18t-25 61z" />
<glyph unicode="|" d="M225 -167v834h50v-834h-50z" />
<glyph unicode="}" horiz-adv-x="273" d="M-96 -210l11 33q40 1 62.5 8t43 34t35 68t36.5 122q28 105 55.5 140.5t89.5 49.5q-59 13 -59 62q0 27 34 128q50 144 50 180q0 52 -82 52l11 33h36q59 0 84 -17.5t25 -60.5q0 -38 -33 -137q-53 -156 -53 -187q0 -19 10.5 -28t35.5 -12l-8 -26q-19 -2 -30.5 -5 t-23.5 -13.5t-19 -22t-18 -40.5t-20 -59t-25 -86q-25 -86 -42 -120.5t-47 -59.5q-41 -36 -123 -36h-36z" />
<glyph unicode="~" d="M31 555q67 99 141 99q31 0 95 -22q59 -20 85 -20q54 0 99 55l18 -9q-28 -47 -65 -72.5t-77 -25.5q-26 0 -74 16q-77 27 -109 27q-22 0 -37 -9.5t-48 -38.5l-10 -9z" />
<glyph unicode="&#xa1;" horiz-adv-x="247" d="M-52 -214q0 18 12 47l147 375l49 -15l-95 -391q-9 -37 -20 -49.5t-35 -12.5t-41 13.5t-17 32.5zM133 386q0 23 16.5 39t39.5 16q22 0 38 -16.5t16 -38.5t-16.5 -38.5t-38.5 -16.5t-38.5 16.5t-16.5 38.5z" />
<glyph unicode="&#xa2;" d="M130 206q0 105 74 211t157 120l33 90h35l-32 -87q33 -1 44 -8q32 -18 32 -52q0 -19 -10.5 -31.5t-26.5 -12.5q-14 0 -22.5 9t-8.5 22q0 5 2.5 14.5t2.5 13.5q0 11 -25 13l-140 -381q7 -1 16 -1q32 0 64 32.5t54 88.5l30 -14q-63 -146 -158 -146q-12 0 -20 1l-32 -88h-35 l35 96q-69 35 -69 110zM199 197q0 -34 17 -57l132 362q-29 -16 -48 -38t-40 -64q-25 -48 -43 -108.5t-18 -94.5z" />
<glyph unicode="&#xa3;" horiz-adv-x="601" d="M14 7q0 8 21 26q101 87 156 282h-108l12 39h105q39 120 57.5 163t51.5 91q86 125 179 125q37 0 60 -15.5t23 -40.5q0 -18 -11.5 -30.5t-28.5 -12.5q-14 0 -22 5t-22 23q-17 20 -37 20q-52 0 -90 -103l-7 -21q-7 -22 -27.5 -84t-39.5 -120h163l-12 -39h-164 q-32 -81 -71 -145.5t-71 -89.5q26 11 46 11q33 0 63 -14.5t106 -66.5q90 -62 142 -62q35 0 58 27t26 73l29 4q0 -81 -42.5 -137t-104.5 -56q-48 0 -95 34q-13 10 -111 106q-55 55 -100 55q-19 0 -33 -8t-40 -34q-19 -19 -38 -19q-23 0 -23 14z" />
<glyph unicode="&#xa4;" d="M84 149l71 71q-41 53 -41 111q0 61 41 113l-71 72l28 28l72 -72q50 38 109 38q58 0 111 -41l71 71l29 -28l-72 -72q38 -49 38 -107t-38 -109l72 -71l-29 -29l-71 71q-56 -41 -113 -41q-56 0 -107 38l-72 -72zM155 333q0 -57 40 -97.5t97 -40.5q56 0 96.5 40.5t40.5 96.5 t-40 96.5t-95 40.5q-58 0 -98.5 -39.5t-40.5 -96.5z" />
<glyph unicode="&#xa5;" horiz-adv-x="604" d="M111 0l10 31h19q44 0 58.5 12.5t30.5 66.5l43 139h-154l12 39h154l10 33l-9 34h-135l13 39h111l-53 193q-8 29 -18 38.5t-34 9.5h-23l8 32h215l-8 -32h-10q-50 0 -50 -29q0 -7 7 -30l59 -208l191 212q18 19 18 34q0 13 -10 17t-42 4h-12l8 32h217l-8 -32h-13 q-26 0 -35.5 -2t-23.5 -12q-7 -5 -11 -9t-13.5 -14.5t-19.5 -20.5l-172 -183h115l-11 -39h-141l-19 -20l-14 -47h153l-12 -39h-153l-41 -142q-7 -21 -7 -41t12 -27.5t43 -7.5h25l-9 -31h-271z" />
<glyph unicode="&#xa6;" d="M225 153h50v-320h-50v320zM225 329v338h50v-338h-50z" />
<glyph unicode="&#xa7;" horiz-adv-x="533" d="M9 -112q0 32 16 53t40 21q17 0 28.5 -12.5t11.5 -31.5q0 -20 -18 -52q-5 -10 -5 -23q0 -33 32 -54.5t82 -21.5q62 0 104.5 34t42.5 84q0 37 -38 78l-153 165q-38 41 -53.5 71t-15.5 64q0 50 32 90.5t92 66.5q-44 48 -44 94q0 73 59 123t146 50q76 0 125.5 -35.5 t49.5 -91.5q0 -24 -12 -37.5t-34 -13.5q-19 0 -31 13t-12 33q0 4 1 17.5t1 17.5q0 28 -26.5 45.5t-68.5 17.5q-52 0 -90.5 -31.5t-38.5 -74.5q0 -33 31 -67l167 -178q56 -59 56 -114q0 -65 -51 -118q-23 -24 -68 -46q49 -46 49 -114q0 -74 -62.5 -125.5t-151.5 -51.5 q-84 0 -138.5 44t-54.5 111zM146 290q0 -45 46 -95l135 -145q35 13 54.5 41t19.5 64q0 43 -52 99l-132 140q-71 -31 -71 -104z" />
<glyph unicode="&#xa8;" horiz-adv-x="437" d="M167 547q0 20 15 34.5t35 14.5t34.5 -14.5t14.5 -34.5q0 -21 -14.5 -35.5t-34.5 -14.5q-21 0 -35.5 14.5t-14.5 35.5zM324 547q0 20 15 34.5t35 14.5t34.5 -14.5t14.5 -34.5t-15 -35t-35 -15t-34.5 14.5t-14.5 35.5z" />
<glyph unicode="&#xa9;" horiz-adv-x="792" d="M93 303q0 154 113.5 266.5t269.5 112.5q132 0 223 -92t91 -226q0 -153 -113 -266t-265 -113q-136 0 -227.5 91.5t-91.5 226.5zM123 305q0 -124 84 -208.5t207 -84.5q139 0 242.5 104.5t103.5 245.5q0 123 -83 208t-204 85q-142 0 -246 -104t-104 -246zM252 284 q0 97 70.5 179t154.5 82q57 0 90 -35l22 23h22l-33 -133h-25q3 20 3 28q0 41 -20.5 65t-54.5 24q-65 0 -117 -94q-45 -82 -45 -162q0 -52 22.5 -81t62.5 -29t68.5 26t51.5 82h30l-49 -134h-20l-6 19q-46 -23 -85 -23q-63 0 -102.5 45.5t-39.5 117.5z" />
<glyph unicode="&#xaa;" horiz-adv-x="305" d="M83 328q0 69 57.5 137t115.5 68q22 0 32 -13l2 5h56l-72 -218q-2 -8 -2 -10q0 -6 6 -6q24 0 55 53l24 -11q-44 -74 -92 -74q-35 0 -41 41q-41 -41 -80 -41q-28 0 -44.5 19t-16.5 50zM138 321q0 -30 19 -30q18 0 39 21.5t37 56.5q43 97 43 122q0 16 -19 16 q-32 0 -75.5 -68t-43.5 -118z" />
<glyph unicode="&#xab;" horiz-adv-x="412" d="M54 223l4 20q31 16 81 54t76 64l14 13h45q-15 -22 -68 -78t-75 -73q31 -71 48 -146h-33q-23 50 -36.5 71.5t-55.5 74.5zM209 223l4 20q32 16 81.5 53.5t75.5 64.5q9 9 15 13h45q-16 -23 -69 -78.5t-75 -72.5q31 -71 48 -146h-33q-23 50 -36.5 71.5t-55.5 74.5z" />
<glyph unicode="&#xac;" d="M30 218v48h422v-266h-54v218h-368z" />
<glyph unicode="&#xad;" horiz-adv-x="163" d="M3 195l18 57h162l-18 -57h-162z" />
<glyph unicode="&#xae;" horiz-adv-x="792" d="M93 303q0 154 113.5 266.5t269.5 112.5q132 0 223 -92t91 -226q0 -153 -113 -266t-265 -113q-136 0 -227.5 91.5t-91.5 226.5zM123 305q0 -124 84 -208.5t207 -84.5q139 0 242.5 104.5t103.5 245.5q0 123 -83 208t-204 85q-142 0 -246 -104t-104 -246zM219 133l8 25h22 q19 0 27 8.5t16 34.5l79 273q5 15 5 22t-7.5 9.5t-30.5 2.5h-13l7 25h94l65 2q48 1 76 -24t28 -67q0 -68 -62 -97q-21 -9 -62 -16q28 -13 39.5 -32.5t18.5 -69.5q7 -43 12.5 -55t20.5 -12q18 0 36 24l14 -19q-36 -43 -80 -43q-33 0 -47.5 24t-18.5 83q-2 46 -5 61t-10 24 q-12 14 -41 14h-17l-40 -136q-3 -10 -3 -18q0 -18 28 -18h22l-8 -25h-173zM400 354h12q57 0 78 13q44 26 44 87q0 31 -16 43.5t-57 12.5q-9 0 -16 -1z" />
<glyph unicode="&#xaf;" d="M215 524l14 47h243l-14 -47h-243z" />
<glyph unicode="&#xb0;" horiz-adv-x="342" d="M160 549q0 53 36 89t89 36q52 0 87.5 -36t35.5 -89q0 -52 -36 -88t-88 -36t-88 36t-36 88zM202 549q0 -35 24 -58.5t58 -23.5t58 23.5t24 58.5t-23.5 59t-57.5 24q-35 0 -59 -24t-24 -59z" />
<glyph unicode="&#xb1;" d="M43 38v43h453v-43h-453zM43 305v43h205v195h43v-195h205v-43h-205v-188h-43v188h-205z" />
<glyph unicode="&#xb2;" horiz-adv-x="332" d="M73 266l8 43q125 98 179 159.5t54 105.5q0 46 -44 46q-47 0 -77 -63l-29 10q19 46 54.5 73t79.5 27q38 0 62.5 -22t24.5 -57q0 -32 -21.5 -65.5t-72.5 -80.5q-16 -15 -122 -101l-26 -22h162q12 0 17.5 4t11.5 18h24l-35 -75h-250z" />
<glyph unicode="&#xb3;" horiz-adv-x="332" d="M79 337q0 14 8 23t20 9q13 0 19 -7.5t8 -26.5q2 -23 12.5 -32.5t33.5 -9.5q47 0 82 50q35 48 35 95q0 35 -32 35q-21 0 -43 -23q-3 -3 -8 -3q-7 0 -12.5 6.5t-5.5 13.5q0 9 18 17q50 20 87 56t37 64q0 13 -11 20.5t-29 7.5q-47 0 -80 -51l-28 15q55 75 133 75 q34 0 55.5 -15t21.5 -38q0 -31 -26.5 -58.5t-87.5 -60.5q38 -7 54.5 -23.5t16.5 -48.5q0 -64 -54 -114t-124 -50q-40 0 -70 22t-30 52z" />
<glyph unicode="&#xb4;" d="M290 493q0 5 3 9l83 125h76q13 0 13 -8q0 -4 -7 -9l-141 -117q-8 -6 -17 -6q-10 0 -10 6z" />
<glyph unicode="&#xb5;" horiz-adv-x="463" d="M-30 -159q0 8 8 30l93 238v2l95 316h80l-105 -334q-6 -14 -6 -38q0 -22 23 -22q39 0 83.5 70t82.5 188l43 136h79l-107 -347q-7 -23 -7 -34q0 -6 4.5 -10.5t9.5 -4.5q29 0 73 91l29 -14q-62 -121 -125 -121q-25 0 -39.5 18.5t-14.5 50.5q0 19 5 44q-71 -113 -138 -113 q-27 0 -53 31l-41 -168q-6 -23 -13 -31t-22 -8t-26 8.5t-11 21.5z" />
<glyph unicode="&#xb6;" d="M119 416q0 60 33.5 116.5t86.5 88.5q36 21 68.5 26.5t118.5 5.5h228l-9 -31q-61 -4 -81 -17.5t-35 -62.5l-217 -689h-40l238 756h-56l-239 -756h-40l132 418h-17q-74 0 -108 20q-28 16 -45.5 50.5t-17.5 74.5z" />
<glyph unicode="&#xb7;" horiz-adv-x="220" d="M67 223q0 23 16.5 39t39.5 16q22 0 38 -16.5t16 -38.5q0 -23 -16.5 -39t-38.5 -16t-38.5 16t-16.5 39z" />
<glyph unicode="&#xb8;" d="M76 -182l19 25q36 -12 54 -12q28 0 49 14t21 34q0 34 -58 44l41 77h27l-27 -53q74 -13 74 -65q0 -35 -34.5 -60t-83.5 -25q-42 0 -82 21z" />
<glyph unicode="&#xb9;" horiz-adv-x="332" d="M177 575l1 31q41 9 92 27.5t73 31.5h34l-131 -398h-63l111 340q-13 -5 -56 -17t-61 -15z" />
<glyph unicode="&#xba;" horiz-adv-x="263" d="M89 353q0 70 43 125t99 55q32 0 52.5 -24.5t20.5 -63.5q0 -73 -43.5 -129.5t-99.5 -56.5q-32 0 -52 25.5t-20 68.5zM139 322q0 -35 24 -35q33 0 65 75q23 55 27 113q1 13 -6 21t-18 8q-35 0 -62 -66q-30 -71 -30 -116z" />
<glyph unicode="&#xbb;" horiz-adv-x="412" d="M5 72q15 22 68.5 78t75.5 73q-29 64 -48 146h32q25 -52 38.5 -73t53.5 -73l-3 -20q-32 -16 -82 -53.5t-76 -64.5l-14 -13h-45zM160 72q15 22 68.5 78t75.5 73q-31 71 -48 146h32q24 -50 37.5 -71.5t55.5 -74.5l-4 -20q-32 -16 -82 -54t-75 -64q-9 -9 -15 -13h-45z" />
<glyph unicode="&#xbc;" horiz-adv-x="769" d="M177 575l1 31q41 9 92 27.5t73 31.5h34l-131 -398h-63l111 340q-13 -5 -56 -17t-61 -15zM216 0l370 667h52l-372 -667h-50zM436 106q0 5 20 29l228 265h54l-84 -275h34q16 0 24 25h24l-17 -55h-74l-30 -95h-60l30 95h-131q-18 0 -18 11zM487 125h107l57 188z" />
<glyph unicode="&#xbd;" horiz-adv-x="769" d="M177 575l1 31q41 9 92 27.5t73 31.5h34l-131 -398h-63l111 340q-13 -5 -56 -17t-61 -15zM216 0l370 667h52l-372 -667h-50zM427 0l7 43q126 99 179.5 159.5t53.5 104.5q0 46 -43 46q-48 0 -78 -63l-28 10q19 47 54.5 73.5t78.5 26.5q38 0 62.5 -22t24.5 -57 q0 -32 -21.5 -65.5t-72.5 -80.5q-37 -35 -148 -122h162q13 0 18 3.5t12 17.5h24l-35 -74h-250z" />
<glyph unicode="&#xbe;" horiz-adv-x="769" d="M79 337q0 14 8 23t20 9q13 0 19 -7.5t8 -26.5q2 -23 12.5 -32.5t33.5 -9.5q47 0 82 50q35 48 35 95q0 35 -32 35q-21 0 -43 -23q-3 -3 -8 -3q-7 0 -12.5 6.5t-5.5 13.5q0 9 18 17q50 20 87 56t37 64q0 13 -11 20.5t-29 7.5q-47 0 -80 -51l-28 15q55 75 133 75 q34 0 55.5 -15t21.5 -38q0 -31 -26.5 -58.5t-87.5 -60.5q38 -7 54.5 -23.5t16.5 -48.5q0 -64 -54 -114t-124 -50q-40 0 -70 22t-30 52zM217 0l369 667h52l-372 -667h-49zM436 106q0 5 20 29l228 265h54l-84 -275h34q16 0 24 25h24l-16 -55h-75l-29 -95h-60l29 95h-131 q-18 0 -18 11zM488 125h106l58 188z" />
<glyph unicode="&#xbf;" horiz-adv-x="435" d="M-45 -127q0 57 32 103q39 58 133 100q52 24 70 48.5t36 97.5h51q-12 -76 -26 -110q-9 -20 -30 -30q-14 -6 -40.5 -18t-30.5 -14q-105 -46 -105 -174q0 -94 83 -94q28 0 48 15q14 10 20 39q5 26 21 42t36 16q30 0 30 -30q0 -50 -51 -87t-118 -37q-75 0 -117 35.5t-42 97.5 zM232 385q0 23 16.5 39t39.5 16q22 0 38 -16.5t16 -38.5q0 -23 -16 -39t-39 -16t-39 16t-16 39z" />
<glyph unicode="&#xc0;" horiz-adv-x="599" d="M-63 0l10 31h16q31 0 53 16.5t56 65.5l391 568h45l-33 -583q-4 -30 8 -48.5t38 -18.5h23l-8 -31h-250l9 31h14q44 0 58.5 13t17.5 57l9 140h-182l-77 -115q-33 -48 -33 -67q0 -28 68 -28h15l-10 -31h-238zM236 275h159l16 255zM395 853q0 11 17 11h71l39 -129q2 -6 2 -8 q0 -10 -14 -10q-11 0 -16 7l-96 122q-3 3 -3 7z" />
<glyph unicode="&#xc1;" horiz-adv-x="599" d="M-63 0l10 31h16q31 0 53 16.5t56 65.5l391 568h45l-33 -583q-4 -30 8 -48.5t38 -18.5h23l-8 -31h-250l9 31h14q44 0 58.5 13t17.5 57l9 140h-182l-77 -115q-33 -48 -33 -67q0 -28 68 -28h15l-10 -31h-238zM236 275h159l16 255zM438 724q0 4 3 8l87 132h81q13 0 13 -8 q0 -5 -7 -10l-148 -122q-9 -7 -19 -7t-10 7z" />
<glyph unicode="&#xc2;" horiz-adv-x="599" d="M-63 0l10 31h16q31 0 53 16.5t56 65.5l391 568h45l-33 -583q-4 -30 8 -48.5t38 -18.5h23l-8 -31h-250l9 31h14q44 0 58.5 13t17.5 57l9 140h-182l-77 -115q-33 -48 -33 -67q0 -28 68 -28h15l-10 -31h-238zM236 275h159l16 255zM348 732q0 7 11 16l157 125l97 -125 q5 -8 5 -11q0 -7 -7.5 -14t-14.5 -7t-15 8l-79 69l-121 -69q-15 -8 -19 -8q-5 0 -9.5 5t-4.5 11z" />
<glyph unicode="&#xc3;" horiz-adv-x="599" d="M-63 0l10 31h16q31 0 53 16.5t56 65.5l391 568h45l-33 -583q-4 -30 8 -48.5t38 -18.5h23l-8 -31h-250l9 31h14q44 0 58.5 13t17.5 57l9 140h-182l-77 -115q-33 -48 -33 -67q0 -28 68 -28h15l-10 -31h-238zM236 275h159l16 255zM345 746q66 84 118 84q17 0 60 -18 q34 -13 52 -13q27 0 63 32l16 -11q-63 -78 -115 -78q-12 0 -53 15t-60 15q-26 0 -62 -36z" />
<glyph unicode="&#xc4;" horiz-adv-x="599" d="M-63 0l10 31h16q31 0 53 16.5t56 65.5l391 568h45l-33 -583q-4 -30 8 -48.5t38 -18.5h23l-8 -31h-250l9 31h14q44 0 58.5 13t17.5 57l9 140h-182l-77 -115q-33 -48 -33 -67q0 -28 68 -28h15l-10 -31h-238zM236 275h159l16 255zM341 780q0 23 16.5 39t39.5 16 q22 0 38.5 -16.5t16.5 -38.5q0 -23 -16 -39.5t-39 -16.5t-39.5 16.5t-16.5 39.5zM533 780q0 23 16.5 39t39.5 16q22 0 38.5 -16.5t16.5 -38.5q0 -23 -16.5 -39.5t-39.5 -16.5t-39 16.5t-16 39.5z" />
<glyph unicode="&#xc5;" horiz-adv-x="599" d="M-63 0l10 31h16q31 0 53 16.5t56 65.5l391 568h45l-33 -583q-4 -30 8 -48.5t38 -18.5h23l-8 -31h-250l9 31h14q44 0 58.5 13t17.5 57l9 140h-182l-77 -115q-33 -48 -33 -67q0 -28 68 -28h15l-10 -31h-238zM236 275h159l16 255zM406 802q0 37 26.5 62.5t64.5 25.5 q36 0 62 -26.5t26 -62.5q0 -37 -26.5 -63t-63.5 -26t-63 26.5t-26 63.5zM447 801q0 -20 14 -34t34 -14t34 14t14 34q0 19 -14 33t-33 14q-20 0 -34.5 -14t-14.5 -33z" />
<glyph unicode="&#xc6;" horiz-adv-x="839" d="M-63 0l9 31h27q24 0 42 12.5t43 46.5l365 496q18 23 18 36q0 8 -8 11q-6 2 -51 2h-16l9 32h486l2 -153h-27q-5 71 -30 96.5t-89 25.5h-106l-77 -268h82q40 0 63 25t38 87h32l-75 -263h-33q18 46 18 82q0 14 -11 23t-30 9h-95l-69 -240q-7 -22 -7 -35q0 -28 79 -28 q75 0 113 7t61 25q58 43 85 124h30l-53 -184h-510l9 31h27q49 0 62 29q2 5 15 49l63 222h-142l-173 -237q-23 -33 -23 -43q0 -12 11.5 -16t46.5 -4h15l-9 -31h-217zM311 365h127l78 272z" />
<glyph unicode="&#xc7;" horiz-adv-x="592" d="M71 244q0 109 54 212.5t142 167t180 63.5q45 0 87.5 -17t64.5 -45l41 42h27l-53 -215h-32q5 21 5 41q0 72 -36.5 114.5t-97.5 42.5q-84 0 -152 -85q-59 -74 -93.5 -171.5t-34.5 -188.5q0 -85 40.5 -135t109.5 -50q68 0 118.5 43.5t89.5 137.5h38l-77 -215h-27l-11 34 q-73 -37 -141 -40l-18 -36q30 -5 42 -11q36 -17 36 -57q0 -37 -36 -63t-88 -26q-45 0 -86 22l20 26q35 -12 57 -12q29 0 51 15t22 35q0 19 -14 29.5t-47 16.5l32 62q-58 7 -100 33q-52 31 -82.5 93t-30.5 137z" />
<glyph unicode="&#xc8;" horiz-adv-x="614" d="M-13 0l10 31h37q13 0 23 3t15.5 6t10.5 12.5t7 14t6.5 20t6.5 22.5l142 449q9 27 9 44q0 33 -48 33h-36l10 32h453l-1 -164h-25q-4 75 -49 112q-26 21 -83 21h-111l-82 -261h64q42 0 60.5 5t33.5 21q27 28 43 77h32l-83 -264h-32q11 41 11 67q0 57 -66 57h-75l-68 -217 q-11 -33 -11 -52q0 -41 121 -41q71 0 112.5 13t75.5 46q39 36 67 97h31l-58 -184h-553zM376 853q0 11 17 11h71l39 -129q2 -6 2 -8q0 -10 -14 -10q-11 0 -16 7l-96 122q-3 3 -3 7z" />
<glyph unicode="&#xc9;" horiz-adv-x="614" d="M-13 0l10 31h37q13 0 23 3t15.5 6t10.5 12.5t7 14t6.5 20t6.5 22.5l142 449q9 27 9 44q0 33 -48 33h-36l10 32h453l-1 -164h-25q-4 75 -49 112q-26 21 -83 21h-111l-82 -261h64q42 0 60.5 5t33.5 21q27 28 43 77h32l-83 -264h-32q11 41 11 67q0 57 -66 57h-75l-68 -217 q-11 -33 -11 -52q0 -41 121 -41q71 0 112.5 13t75.5 46q39 36 67 97h31l-58 -184h-553zM419 724q0 4 3 8l87 132h81q13 0 13 -8q0 -5 -7 -10l-148 -122q-9 -7 -19 -7t-10 7z" />
<glyph unicode="&#xca;" horiz-adv-x="614" d="M-13 0l10 31h37q13 0 23 3t15.5 6t10.5 12.5t7 14t6.5 20t6.5 22.5l142 449q9 27 9 44q0 33 -48 33h-36l10 32h453l-1 -164h-25q-4 75 -49 112q-26 21 -83 21h-111l-82 -261h64q42 0 60.5 5t33.5 21q27 28 43 77h32l-83 -264h-32q11 41 11 67q0 57 -66 57h-75l-68 -217 q-11 -33 -11 -52q0 -41 121 -41q71 0 112.5 13t75.5 46q39 36 67 97h31l-58 -184h-553zM328 732q0 7 11 16l157 125l97 -125q5 -8 5 -11q0 -7 -7.5 -14t-14.5 -7t-15 8l-79 69l-121 -69q-15 -8 -19 -8q-5 0 -9.5 5t-4.5 11z" />
<glyph unicode="&#xcb;" horiz-adv-x="614" d="M-13 0l10 31h37q13 0 23 3t15.5 6t10.5 12.5t7 14t6.5 20t6.5 22.5l142 449q9 27 9 44q0 33 -48 33h-36l10 32h453l-1 -164h-25q-4 75 -49 112q-26 21 -83 21h-111l-82 -261h64q42 0 60.5 5t33.5 21q27 28 43 77h32l-83 -264h-32q11 41 11 67q0 57 -66 57h-75l-68 -217 q-11 -33 -11 -52q0 -41 121 -41q71 0 112.5 13t75.5 46q39 36 67 97h31l-58 -184h-553zM322 780q0 23 16.5 39t39.5 16q22 0 38.5 -16.5t16.5 -38.5q0 -23 -16 -39.5t-39 -16.5t-39.5 16.5t-16.5 39.5zM514 780q0 23 16.5 39t39.5 16q22 0 38.5 -16.5t16.5 -38.5 q0 -23 -16.5 -39.5t-39.5 -16.5t-39 16.5t-16 39.5z" />
<glyph unicode="&#xcc;" horiz-adv-x="351" d="M-13 0l10 31h28q36 0 49.5 10.5t24.5 47.5q3 13 6 20l140 449q9 31 9 44q0 33 -53 33h-30l9 32h268l-10 -32h-11q-44 0 -57.5 -12t-30.5 -67l-140 -448q-10 -33 -10 -44q0 -33 54 -33h29l-10 -31h-275zM244 853q0 11 17 11h71l39 -129q2 -6 2 -8q0 -10 -14 -10 q-11 0 -16 7l-96 122q-3 3 -3 7z" />
<glyph unicode="&#xcd;" horiz-adv-x="351" d="M-13 0l10 31h28q36 0 49.5 10.5t24.5 47.5q3 13 6 20l140 449q9 31 9 44q0 33 -53 33h-30l9 32h268l-10 -32h-11q-44 0 -57.5 -12t-30.5 -67l-140 -448q-10 -33 -10 -44q0 -33 54 -33h29l-10 -31h-275zM287 724q0 4 3 8l87 132h81q13 0 13 -8q0 -5 -7 -10l-148 -122 q-9 -7 -19 -7t-10 7z" />
<glyph unicode="&#xce;" horiz-adv-x="351" d="M-13 0l10 31h28q36 0 49.5 10.5t24.5 47.5q3 13 6 20l140 449q9 31 9 44q0 33 -53 33h-30l9 32h268l-10 -32h-11q-44 0 -57.5 -12t-30.5 -67l-140 -448q-10 -33 -10 -44q0 -33 54 -33h29l-10 -31h-275zM197 732q0 7 11 16l157 125l97 -125q5 -8 5 -11q0 -7 -7.5 -14 t-14.5 -7t-15 8l-79 69l-121 -69q-15 -8 -19 -8q-5 0 -9.5 5t-4.5 11z" />
<glyph unicode="&#xcf;" horiz-adv-x="351" d="M-13 0l10 31h28q36 0 49.5 10.5t24.5 47.5q3 13 6 20l140 449q9 31 9 44q0 33 -53 33h-30l9 32h268l-10 -32h-11q-44 0 -57.5 -12t-30.5 -67l-140 -448q-10 -33 -10 -44q0 -33 54 -33h29l-10 -31h-275zM201 780q0 23 16.5 39t39.5 16q22 0 38.5 -16.5t16.5 -38.5 q0 -23 -16 -39.5t-39 -16.5t-39.5 16.5t-16.5 39.5zM358 780q0 23 16.5 39t39.5 16q22 0 38.5 -16.5t16.5 -38.5q0 -23 -16.5 -39.5t-39.5 -16.5t-39 16.5t-16 39.5z" />
<glyph unicode="&#xd0;" horiz-adv-x="686" d="M-13 0l10 31h31q43 0 57 29q3 8 16 50l66 217h-87l12 39h87l60 195q8 27 8 42q0 33 -53 33h-36l10 33h245q118 0 184 -52q97 -74 97 -224q0 -103 -49.5 -197.5t-128.5 -143.5q-90 -57 -228 -54l-64 1zM187 68q0 -38 90 -38q116 0 188 70q57 57 90.5 145t33.5 182 q0 139 -79 185q-42 26 -152 26l-84 -272h89l-12 -39h-89l-69 -226q-6 -18 -6 -33z" />
<glyph unicode="&#xd1;" horiz-adv-x="676" d="M-13 0l9 31h20q35 0 49 13.5t28 60.5l149 493q-12 38 -47 38h-43l8 31h157l201 -515l120 416q9 32 9 43q0 15 -14 20t-54 5h-19l9 31h214l-8 -31h-19q-36 0 -48.5 -12.5t-27.5 -62.5l-174 -585h-13l-226 564l-134 -447q-8 -27 -8 -35q0 -16 15.5 -21.5t57.5 -5.5h15 l-8 -31h-218zM351 746q66 84 118 84q17 0 60 -18q34 -13 52 -13q27 0 63 32l16 -11q-63 -78 -115 -78q-12 0 -53 15t-60 15q-26 0 -62 -36z" />
<glyph unicode="&#xd2;" horiz-adv-x="626" d="M80 251q0 109 49.5 210.5t130 163.5t166.5 62q91 0 150.5 -78t59.5 -198q0 -80 -32.5 -164t-89.5 -150q-100 -117 -222 -117q-94 0 -153 75.5t-59 195.5zM182 189q0 -79 30.5 -124t84.5 -45q106 0 182 188q23 59 39 137.5t16 136.5q0 168 -105 168q-64 0 -121 -69 q-49 -58 -87.5 -178t-38.5 -214zM381 853q0 11 17 11h71l39 -129q2 -6 2 -8q0 -10 -14 -10q-11 0 -16 7l-96 122q-3 3 -3 7z" />
<glyph unicode="&#xd3;" horiz-adv-x="626" d="M80 251q0 109 49.5 210.5t130 163.5t166.5 62q91 0 150.5 -78t59.5 -198q0 -80 -32.5 -164t-89.5 -150q-100 -117 -222 -117q-94 0 -153 75.5t-59 195.5zM182 189q0 -79 30.5 -124t84.5 -45q106 0 182 188q23 59 39 137.5t16 136.5q0 168 -105 168q-64 0 -121 -69 q-49 -58 -87.5 -178t-38.5 -214zM404 724q0 4 3 8l87 132h81q13 0 13 -8q0 -5 -7 -10l-148 -122q-9 -7 -19 -7t-10 7z" />
<glyph unicode="&#xd4;" horiz-adv-x="626" d="M80 251q0 109 49.5 210.5t130 163.5t166.5 62q91 0 150.5 -78t59.5 -198q0 -80 -32.5 -164t-89.5 -150q-100 -117 -222 -117q-94 0 -153 75.5t-59 195.5zM182 189q0 -79 30.5 -124t84.5 -45q106 0 182 188q23 59 39 137.5t16 136.5q0 168 -105 168q-64 0 -121 -69 q-49 -58 -87.5 -178t-38.5 -214zM307 732q0 7 11 16l157 125l97 -125q5 -8 5 -11q0 -7 -7.5 -14t-14.5 -7t-15 8l-79 69l-121 -69q-15 -8 -19 -8q-5 0 -9.5 5t-4.5 11z" />
<glyph unicode="&#xd5;" horiz-adv-x="626" d="M80 251q0 109 49.5 210.5t130 163.5t166.5 62q91 0 150.5 -78t59.5 -198q0 -80 -32.5 -164t-89.5 -150q-100 -117 -222 -117q-94 0 -153 75.5t-59 195.5zM182 189q0 -79 30.5 -124t84.5 -45q106 0 182 188q23 59 39 137.5t16 136.5q0 168 -105 168q-64 0 -121 -69 q-49 -58 -87.5 -178t-38.5 -214zM298 746q66 84 118 84q17 0 60 -18q34 -13 52 -13q27 0 63 32l16 -11q-63 -78 -115 -78q-12 0 -53 15t-60 15q-26 0 -62 -36z" />
<glyph unicode="&#xd6;" horiz-adv-x="626" d="M80 251q0 109 49.5 210.5t130 163.5t166.5 62q91 0 150.5 -78t59.5 -198q0 -80 -32.5 -164t-89.5 -150q-100 -117 -222 -117q-94 0 -153 75.5t-59 195.5zM182 189q0 -79 30.5 -124t84.5 -45q106 0 182 188q23 59 39 137.5t16 136.5q0 168 -105 168q-64 0 -121 -69 q-49 -58 -87.5 -178t-38.5 -214zM308 780q0 23 16.5 39t39.5 16q22 0 38.5 -16.5t16.5 -38.5q0 -23 -16 -39.5t-39 -16.5t-39.5 16.5t-16.5 39.5zM500 780q0 23 16.5 39t39.5 16q22 0 38.5 -16.5t16.5 -38.5q0 -23 -16.5 -39.5t-39.5 -16.5t-39 16.5t-16 39.5z" />
<glyph unicode="&#xd7;" d="M118 182l145 145l-145 145l31 30l145 -145l145 145l30 -30l-145 -145l145 -145l-30 -31l-145 145l-145 -145z" />
<glyph unicode="&#xd8;" horiz-adv-x="626" d="M76 -6l56 70q-53 74 -53 184q0 109 49.5 211t130 164.5t167.5 62.5q80 0 138 -64l53 70l30 -24l-58 -76q49 -68 49 -168q0 -88 -32.5 -173.5t-91.5 -154.5q-100 -117 -222 -117q-84 0 -135 56l-50 -65zM180 160q0 -18 2 -32l342 444q-7 35 -33.5 56t-63.5 21 q-54 0 -103.5 -50.5t-86.5 -145.5q-25 -62 -41 -145t-16 -148zM198 83q35 -64 98 -64q104 0 182 188q60 146 60 281q0 19 -2 36z" />
<glyph unicode="&#xd9;" horiz-adv-x="727" d="M123 136q0 38 17 90l105 333q9 30 9 43q0 34 -48 34h-36l10 31h276l-9 -31h-28q-40 0 -56 -19q-9 -11 -20 -46l-119 -380q-11 -36 -11 -61q0 -50 42.5 -80t113.5 -30q74 0 125 42q48 40 83 149l114 362q8 24 8 41q0 14 -13.5 18t-57.5 4h-13l10 31h219l-10 -31h-26 q-32 0 -48 -16q-9 -10 -21 -49l-118 -376q-37 -115 -97 -163q-65 -52 -166 -52q-112 0 -184 52q-51 37 -51 104zM452 853q0 11 17 11h71l39 -129q2 -6 2 -8q0 -10 -14 -10q-11 0 -16 7l-96 122q-3 3 -3 7z" />
<glyph unicode="&#xda;" horiz-adv-x="727" d="M123 136q0 38 17 90l105 333q9 30 9 43q0 34 -48 34h-36l10 31h276l-9 -31h-28q-40 0 -56 -19q-9 -11 -20 -46l-119 -380q-11 -36 -11 -61q0 -50 42.5 -80t113.5 -30q74 0 125 42q48 40 83 149l114 362q8 24 8 41q0 14 -13.5 18t-57.5 4h-13l10 31h219l-10 -31h-26 q-32 0 -48 -16q-9 -10 -21 -49l-118 -376q-37 -115 -97 -163q-65 -52 -166 -52q-112 0 -184 52q-51 37 -51 104zM488 724q0 4 3 8l87 132h81q13 0 13 -8q0 -5 -7 -10l-148 -122q-9 -7 -19 -7t-10 7z" />
<glyph unicode="&#xdb;" horiz-adv-x="727" d="M123 136q0 38 17 90l105 333q9 30 9 43q0 34 -48 34h-36l10 31h276l-9 -31h-28q-40 0 -56 -19q-9 -11 -20 -46l-119 -380q-11 -36 -11 -61q0 -50 42.5 -80t113.5 -30q74 0 125 42q48 40 83 149l114 362q8 24 8 41q0 14 -13.5 18t-57.5 4h-13l10 31h219l-10 -31h-26 q-32 0 -48 -16q-9 -10 -21 -49l-118 -376q-37 -115 -97 -163q-65 -52 -166 -52q-112 0 -184 52q-51 37 -51 104zM398 732q0 7 11 16l157 125l97 -125q5 -8 5 -11q0 -7 -7.5 -14t-14.5 -7t-15 8l-79 69l-121 -69q-15 -8 -19 -8q-5 0 -9.5 5t-4.5 11z" />
<glyph unicode="&#xdc;" horiz-adv-x="727" d="M123 136q0 38 17 90l105 333q9 30 9 43q0 34 -48 34h-36l10 31h276l-9 -31h-28q-40 0 -56 -19q-9 -11 -20 -46l-119 -380q-11 -36 -11 -61q0 -50 42.5 -80t113.5 -30q74 0 125 42q48 40 83 149l114 362q8 24 8 41q0 14 -13.5 18t-57.5 4h-13l10 31h219l-10 -31h-26 q-32 0 -48 -16q-9 -10 -21 -49l-118 -376q-37 -115 -97 -163q-65 -52 -166 -52q-112 0 -184 52q-51 37 -51 104zM391 780q0 23 16.5 39t39.5 16q22 0 38.5 -16.5t16.5 -38.5q0 -23 -16 -39.5t-39 -16.5t-39.5 16.5t-16.5 39.5zM583 780q0 23 16.5 39t39.5 16 q22 0 38.5 -16.5t16.5 -38.5q0 -23 -16.5 -39.5t-39.5 -16.5t-39 16.5t-16 39.5z" />
<glyph unicode="&#xdd;" horiz-adv-x="625" d="M116 0l10 31h20q47 0 61.5 12.5t31.5 65.5l65 212l-88 266q-10 29 -16 35q-16 13 -47 13h-31l7 32h262l-8 -32h-11q-33 0 -41.5 -2t-16.5 -10q-7 -7 -7 -16q0 -7 7 -31l65 -209l198 213q19 20 19 33t-12 18q-10 4 -58 4h-12l8 32h256l-8 -32h-13q-44 0 -64.5 -9.5 t-57.5 -48.5l-236 -243l-67 -227q-7 -26 -7 -40q0 -20 13 -28t46 -8h26l-9 -31h-285zM424 724q0 4 3 8l87 132h81q13 0 13 -8q0 -5 -7 -10l-148 -122q-9 -7 -19 -7t-10 7z" />
<glyph unicode="&#xde;" horiz-adv-x="584" d="M-22 0l10 31h35q31 0 47.5 17t31.5 63l145 462q9 27 9 40q0 11 -8 16q-7 5 -15 6t-46 1h-15l9 31h268l-9 -31h-25q-28 0 -41 -11t-24 -43h23q83 0 111 -4t54 -19q70 -41 70 -129q0 -108 -90 -167q-44 -29 -85.5 -37.5t-137.5 -8.5h-60l-33 -102q-12 -36 -12 -51 q0 -33 47 -33h38l-11 -31h-286zM246 251h61q63 0 93.5 10.5t55.5 39.5q51 61 51 147q0 63 -33 85q-26 17 -97 17h-37z" />
<glyph unicode="&#xdf;" horiz-adv-x="496" d="M-172 -222q0 21 13 35t32 14q15 0 25.5 -9t10.5 -22q0 -10 -8 -31q-2 -6 -2 -8q0 -4 3 -7t7 -3q21 0 40 34q13 24 37 112l152 560q29 109 90 169t141 60q37 0 68 -13t48.5 -35.5t17.5 -50.5q0 -35 -25 -65q-12 -15 -24.5 -25.5t-75.5 -56.5q-48 -36 -48 -57q0 -6 1 -9 t9.5 -14.5t21.5 -27t44 -50.5q33 -38 45.5 -62.5t12.5 -50.5q0 -71 -57.5 -124.5t-134.5 -53.5q-54 0 -88.5 29.5t-34.5 76.5q0 15 6.5 28t17 20t22.5 7q14 0 23.5 -8t9.5 -19q0 -3 -5.5 -22t-5.5 -24q0 -21 22 -36.5t52 -15.5q41 0 70 30.5t29 74.5q0 26 -18 52.5 t-90 109.5q-20 23 -20 47q0 34 55 81q44 38 59.5 53.5t29.5 35.5q28 40 28 81q0 30 -18.5 48.5t-48.5 18.5q-94 0 -141 -173l-156 -573q-26 -95 -70 -146t-100 -51q-31 0 -51.5 19t-20.5 47z" />
<glyph unicode="&#xe0;" horiz-adv-x="458" d="M28 99q0 57 29 124t78 124q79 93 163 93q34 0 51 -29l6 16h77l-111 -363q-4 -9 -4 -18q0 -17 15 -17q19 0 43 24t47 65l27 -13q-65 -118 -138 -118q-26 0 -43 19t-17 47v11q-40 -42 -70 -59.5t-62 -17.5q-42 0 -66.5 30.5t-24.5 81.5zM104 85q0 -56 35 -56q31 0 65.5 37 t60.5 99q69 163 69 209q0 14 -10.5 23.5t-25.5 9.5q-53 0 -122 -115q-72 -122 -72 -207zM248 617q0 10 17 10h68l37 -122q1 -3 1 -8q0 -10 -14 -10q-9 0 -14 6l-92 117q-3 3 -3 7z" />
<glyph unicode="&#xe1;" horiz-adv-x="458" d="M28 99q0 57 29 124t78 124q79 93 163 93q34 0 51 -29l6 16h77l-111 -363q-4 -9 -4 -18q0 -17 15 -17q19 0 43 24t47 65l27 -13q-65 -118 -138 -118q-26 0 -43 19t-17 47v11q-40 -42 -70 -59.5t-62 -17.5q-42 0 -66.5 30.5t-24.5 81.5zM104 85q0 -56 35 -56q31 0 65.5 37 t60.5 99q69 163 69 209q0 14 -10.5 23.5t-25.5 9.5q-53 0 -122 -115q-72 -122 -72 -207zM269 493q0 5 3 9l83 125h76q13 0 13 -8q0 -4 -7 -9l-141 -117q-8 -6 -17 -6q-10 0 -10 6z" />
<glyph unicode="&#xe2;" horiz-adv-x="458" d="M28 99q0 57 29 124t78 124q79 93 163 93q34 0 51 -29l6 16h77l-111 -363q-4 -9 -4 -18q0 -17 15 -17q19 0 43 24t47 65l27 -13q-65 -118 -138 -118q-26 0 -43 19t-17 47v11q-40 -42 -70 -59.5t-62 -17.5q-42 0 -66.5 30.5t-24.5 81.5zM104 85q0 -56 35 -56q31 0 65.5 37 t60.5 99q69 163 69 209q0 14 -10.5 23.5t-25.5 9.5q-53 0 -122 -115q-72 -122 -72 -207zM191 501q0 7 11 15l149 119l92 -119q5 -6 5 -11q0 -6 -7 -12.5t-14 -6.5q-5 0 -14 7l-76 66l-115 -66q-12 -7 -18 -7q-5 0 -9 5t-4 10z" />
<glyph unicode="&#xe3;" horiz-adv-x="458" d="M28 99q0 57 29 124t78 124q79 93 163 93q34 0 51 -29l6 16h77l-111 -363q-4 -9 -4 -18q0 -17 15 -17q19 0 43 24t47 65l27 -13q-65 -118 -138 -118q-26 0 -43 19t-17 47v11q-40 -42 -70 -59.5t-62 -17.5q-42 0 -66.5 30.5t-24.5 81.5zM104 85q0 -56 35 -56q31 0 65.5 37 t60.5 99q69 163 69 209q0 14 -10.5 23.5t-25.5 9.5q-53 0 -122 -115q-72 -122 -72 -207zM221 515q57 79 101 79q15 0 51 -16q27 -12 45 -12q24 0 54 29l14 -10q-56 -74 -99 -74q-7 0 -45 14q-35 14 -51 14q-23 0 -54 -34z" />
<glyph unicode="&#xe4;" horiz-adv-x="458" d="M28 99q0 57 29 124t78 124q79 93 163 93q34 0 51 -29l6 16h77l-111 -363q-4 -9 -4 -18q0 -17 15 -17q19 0 43 24t47 65l27 -13q-65 -118 -138 -118q-26 0 -43 19t-17 47v11q-40 -42 -70 -59.5t-62 -17.5q-42 0 -66.5 30.5t-24.5 81.5zM104 85q0 -56 35 -56q31 0 65.5 37 t60.5 99q69 163 69 209q0 14 -10.5 23.5t-25.5 9.5q-53 0 -122 -115q-72 -122 -72 -207zM198 547q0 20 15 34.5t35 14.5t34.5 -14.5t14.5 -34.5q0 -21 -14.5 -35.5t-34.5 -14.5q-21 0 -35.5 14.5t-14.5 35.5zM355 547q0 20 15 34.5t35 14.5t34.5 -14.5t14.5 -34.5t-15 -35 t-35 -15t-34.5 14.5t-14.5 35.5z" />
<glyph unicode="&#xe5;" horiz-adv-x="458" d="M28 99q0 57 29 124t78 124q79 93 163 93q34 0 51 -29l6 16h77l-111 -363q-4 -9 -4 -18q0 -17 15 -17q19 0 43 24t47 65l27 -13q-65 -118 -138 -118q-26 0 -43 19t-17 47v11q-40 -42 -70 -59.5t-62 -17.5q-42 0 -66.5 30.5t-24.5 81.5zM104 85q0 -56 35 -56q31 0 65.5 37 t60.5 99q69 163 69 209q0 14 -10.5 23.5t-25.5 9.5q-53 0 -122 -115q-72 -122 -72 -207zM251 568q0 34 25.5 59t60.5 25q34 0 59 -25t25 -60t-25 -60t-60 -25t-60 25t-25 61zM290 567q0 -19 13 -32.5t32 -13.5t32.5 13.5t13.5 32.5q0 18 -13.5 31.5t-31.5 13.5 q-19 0 -32.5 -13t-13.5 -32z" />
<glyph unicode="&#xe6;" horiz-adv-x="572" d="M28 92q0 77 41 159t105 135.5t124 53.5q37 0 53 -22l5 19h79l-11 -34q49 37 92 37q29 0 46 -17t17 -46q0 -60 -89 -125q-72 -52 -148 -83q-16 -45 -16 -84q0 -26 11.5 -40.5t31.5 -14.5q64 0 115 108l34 -7q-28 -67 -74.5 -105.5t-96.5 -38.5q-39 0 -61 21.5t-32 67.5 q-39 -49 -70.5 -69t-69.5 -20q-40 0 -63 28.5t-23 76.5zM106 78q0 -47 33 -47q22 0 47.5 21.5t43.5 53.5q37 67 72 156.5t35 115.5q0 33 -35 35q-60 3 -130 -127q-66 -126 -66 -208zM358 211q55 29 69 38q47 31 75 67t28 66q0 11 -7 18t-18 7q-38 0 -82 -59t-65 -137z" />
<glyph unicode="&#xe7;" horiz-adv-x="328" d="M-10 -182l19 25q35 -12 54 -12q28 0 49 14t21 34q0 34 -58 45l35 66q-39 10 -60.5 41t-21.5 77q0 75 37.5 153t95 128.5t113.5 50.5q28 0 47.5 -17t19.5 -43q0 -19 -11.5 -32t-27.5 -13q-13 0 -22 9.5t-9 22.5q0 3 3 13t3 14q0 12 -17 12q-22 0 -43.5 -24.5t-49.5 -81.5 q-63 -131 -63 -220q0 -53 40 -53q31 0 62.5 32.5t53.5 87.5l30 -14q-28 -65 -71 -106t-83 -40l-20 -40q36 -6 55 -20.5t19 -44.5q0 -35 -34.5 -60t-83.5 -25q-41 0 -82 21z" />
<glyph unicode="&#xe8;" horiz-adv-x="325" d="M25 103q0 74 37 154t93.5 132t109.5 52q27 0 45.5 -18t18.5 -45q0 -52 -57.5 -107.5t-161.5 -103.5q-13 -44 -13 -78q0 -62 43 -62q58 0 113 117l33 -17q-72 -140 -166 -140q-42 0 -68.5 32.5t-26.5 83.5zM123 209l16 8q61 33 100.5 77.5t39.5 80.5q0 13 -7.5 21t-18.5 8 q-34 0 -71 -55.5t-59 -139.5zM201 617q0 10 17 10h68l37 -122q1 -3 1 -8q0 -10 -14 -10q-10 0 -14 6l-92 117q-3 3 -3 7z" />
<glyph unicode="&#xe9;" horiz-adv-x="325" d="M25 103q0 74 37 154t93.5 132t109.5 52q27 0 45.5 -18t18.5 -45q0 -52 -57.5 -107.5t-161.5 -103.5q-13 -44 -13 -78q0 -62 43 -62q58 0 113 117l33 -17q-72 -140 -166 -140q-42 0 -68.5 32.5t-26.5 83.5zM123 209l16 8q61 33 100.5 77.5t39.5 80.5q0 13 -7.5 21t-18.5 8 q-34 0 -71 -55.5t-59 -139.5zM223 493q0 5 3 9l83 125h76q13 0 13 -8q0 -4 -7 -9l-141 -117q-8 -6 -17 -6q-10 0 -10 6z" />
<glyph unicode="&#xea;" horiz-adv-x="325" d="M25 103q0 74 37 154t93.5 132t109.5 52q27 0 45.5 -18t18.5 -45q0 -52 -57.5 -107.5t-161.5 -103.5q-13 -44 -13 -78q0 -62 43 -62q58 0 113 117l33 -17q-72 -140 -166 -140q-42 0 -68.5 32.5t-26.5 83.5zM123 209l16 8q61 33 100.5 77.5t39.5 80.5q0 13 -7.5 21t-18.5 8 q-34 0 -71 -55.5t-59 -139.5zM131 501q0 7 11 15l149 119l92 -119q5 -6 5 -11q0 -6 -7 -12.5t-14 -6.5q-5 0 -14 7l-76 66l-115 -66q-12 -7 -18 -7q-5 0 -9 5t-4 10z" />
<glyph unicode="&#xeb;" horiz-adv-x="325" d="M25 103q0 74 37 154t93.5 132t109.5 52q27 0 45.5 -18t18.5 -45q0 -52 -57.5 -107.5t-161.5 -103.5q-13 -44 -13 -78q0 -62 43 -62q58 0 113 117l33 -17q-72 -140 -166 -140q-42 0 -68.5 32.5t-26.5 83.5zM123 209l16 8q61 33 100.5 77.5t39.5 80.5q0 13 -7.5 21t-18.5 8 q-34 0 -71 -55.5t-59 -139.5zM152 547q0 20 15 34.5t35 14.5t34.5 -14.5t14.5 -34.5q0 -21 -14.5 -35.5t-34.5 -14.5q-21 0 -35.5 14.5t-14.5 35.5zM282 547q0 20 15 34.5t35 14.5t34.5 -14.5t14.5 -34.5t-15 -35t-35 -15t-34.5 14.5t-14.5 35.5z" />
<glyph unicode="&#xec;" horiz-adv-x="266" d="M40 311q14 29 24 46.5t26.5 39.5t37 32.5t44.5 10.5q26 0 42.5 -13.5t16.5 -35.5q0 -16 -11 -50l-85 -263q-6 -18 -6 -26q0 -16 14 -16q17 0 32 18t39 67l30 -16q-61 -118 -133 -118q-27 0 -45.5 15.5t-18.5 37.5q0 18 10 50l82 251q8 26 8 34q0 12 -11 12 q-15 0 -28 -18.5t-33 -66.5zM132 617q0 10 17 10h68l37 -122q1 -3 1 -8q0 -10 -14 -10q-10 0 -14 6l-92 117q-3 3 -3 7z" />
<glyph unicode="&#xed;" horiz-adv-x="266" d="M40 311q14 29 24 46.5t26.5 39.5t37 32.5t44.5 10.5q26 0 42.5 -13.5t16.5 -35.5q0 -16 -11 -50l-85 -263q-6 -18 -6 -26q0 -16 14 -16q17 0 32 18t39 67l30 -16q-61 -118 -133 -118q-27 0 -45.5 15.5t-18.5 37.5q0 18 10 50l82 251q8 26 8 34q0 12 -11 12 q-15 0 -28 -18.5t-33 -66.5zM160 493q0 5 3 9l83 125h76q13 0 13 -8q0 -4 -7 -9l-141 -117q-8 -6 -17 -6q-10 0 -10 6z" />
<glyph unicode="&#xee;" horiz-adv-x="266" d="M40 311q14 29 24 46.5t26.5 39.5t37 32.5t44.5 10.5q26 0 42.5 -13.5t16.5 -35.5q0 -16 -11 -50l-85 -263q-6 -18 -6 -26q0 -16 14 -16q17 0 32 18t39 67l30 -16q-61 -118 -133 -118q-27 0 -45.5 15.5t-18.5 37.5q0 18 10 50l82 251q8 26 8 34q0 12 -11 12 q-15 0 -28 -18.5t-33 -66.5zM62 501q0 7 11 15l149 119l92 -119q5 -6 5 -11q0 -6 -7 -12.5t-14 -6.5q-5 0 -14 7l-76 66l-115 -66q-12 -7 -18 -7q-5 0 -9 5t-4 10z" />
<glyph unicode="&#xef;" horiz-adv-x="266" d="M40 311q14 29 24 46.5t26.5 39.5t37 32.5t44.5 10.5q26 0 42.5 -13.5t16.5 -35.5q0 -16 -11 -50l-85 -263q-6 -18 -6 -26q0 -16 14 -16q17 0 32 18t39 67l30 -16q-61 -118 -133 -118q-27 0 -45.5 15.5t-18.5 37.5q0 18 10 50l82 251q8 26 8 34q0 12 -11 12 q-15 0 -28 -18.5t-33 -66.5zM91 547q0 20 15 34.5t35 14.5t34.5 -14.5t14.5 -34.5q0 -21 -14.5 -35.5t-34.5 -14.5q-21 0 -35.5 14.5t-14.5 35.5zM234 547q0 20 15 34.5t35 14.5t34.5 -14.5t14.5 -34.5q0 -21 -14.5 -35.5t-34.5 -14.5q-21 0 -35.5 14.5t-14.5 35.5z" />
<glyph unicode="&#xf0;" horiz-adv-x="391" d="M35 138q0 119 66 210.5t153 91.5q34 0 58 -19q2 24 2 26q0 50 -19 94l-96 -33l-10 31l91 31q-28 48 -77 89l19 27q32 -19 52 -36.5t57 -58.5l92 29l9 -31l-83 -27q19 -41 25.5 -72t6.5 -80q0 -109 -24.5 -199.5t-68.5 -142.5q-70 -81 -143 -81q-50 0 -80 41.5t-30 109.5z M103 88q0 -64 44 -64q49 0 94 98q23 51 40 117t17 107q0 56 -44 56q-54 0 -95 -95q-56 -133 -56 -219z" />
<glyph unicode="&#xf1;" horiz-adv-x="470" d="M33 306q60 134 126 134q23 0 36.5 -13.5t13.5 -38.5q0 -28 -11 -68q82 120 153 120q33 0 55 -20.5t22 -51.5t-17 -79l-69 -203q-7 -20 -7 -31q0 -16 15 -16q38 0 79 85l32 -15q-27 -56 -66.5 -89t-79.5 -33q-27 0 -43.5 15t-16.5 39q0 29 19 83l61 178q18 54 18 71 q0 11 -7 17.5t-18 6.5q-42 0 -96 -84q-32 -50 -58 -135l-56 -178h-80l91 289q20 63 20 79q0 18 -13 18q-14 0 -34 -24t-39 -64zM196 515q57 79 101 79q15 0 51 -16q27 -12 45 -12q24 0 54 29l14 -10q-56 -74 -99 -74q-7 0 -45 14q-35 14 -51 14q-23 0 -54 -34z" />
<glyph unicode="&#xf2;" horiz-adv-x="391" d="M38 141q0 117 67 208.5t153 91.5q50 0 80.5 -40t30.5 -104q0 -121 -67.5 -215.5t-153.5 -94.5q-50 0 -80 42t-30 112zM106 89q0 -65 45 -65q49 0 97 106q22 49 38 113.5t16 104.5q0 25 -12 40t-32 15q-30 0 -54 -27t-49 -89q-49 -124 -49 -198zM194 617q0 10 17 10h68 l37 -122q1 -3 1 -8q0 -10 -14 -10q-9 0 -14 6l-92 117q-3 3 -3 7z" />
<glyph unicode="&#xf3;" horiz-adv-x="391" d="M38 141q0 117 67 208.5t153 91.5q50 0 80.5 -40t30.5 -104q0 -121 -67.5 -215.5t-153.5 -94.5q-50 0 -80 42t-30 112zM106 89q0 -65 45 -65q49 0 97 106q22 49 38 113.5t16 104.5q0 25 -12 40t-32 15q-30 0 -54 -27t-49 -89q-49 -124 -49 -198zM235 493q0 5 3 9l83 125 h76q13 0 13 -8q0 -4 -7 -9l-141 -117q-8 -6 -17 -6q-10 0 -10 6z" />
<glyph unicode="&#xf4;" horiz-adv-x="391" d="M38 141q0 117 67 208.5t153 91.5q50 0 80.5 -40t30.5 -104q0 -121 -67.5 -215.5t-153.5 -94.5q-50 0 -80 42t-30 112zM106 89q0 -65 45 -65q49 0 97 106q22 49 38 113.5t16 104.5q0 25 -12 40t-32 15q-30 0 -54 -27t-49 -89q-49 -124 -49 -198zM152 501q0 7 11 15 l149 119l92 -119q5 -6 5 -11q0 -6 -7 -12.5t-14 -6.5q-5 0 -14 7l-76 66l-115 -66q-12 -7 -18 -7q-5 0 -9 5t-4 10z" />
<glyph unicode="&#xf5;" horiz-adv-x="391" d="M38 141q0 117 67 208.5t153 91.5q50 0 80.5 -40t30.5 -104q0 -121 -67.5 -215.5t-153.5 -94.5q-50 0 -80 42t-30 112zM106 89q0 -65 45 -65q49 0 97 106q22 49 38 113.5t16 104.5q0 25 -12 40t-32 15q-30 0 -54 -27t-49 -89q-49 -124 -49 -198zM143 515q57 79 101 79 q15 0 51 -16q27 -12 45 -12q24 0 54 29l14 -10q-56 -74 -99 -74q-7 0 -45 14q-35 14 -51 14q-23 0 -54 -34z" />
<glyph unicode="&#xf6;" horiz-adv-x="391" d="M38 141q0 117 67 208.5t153 91.5q50 0 80.5 -40t30.5 -104q0 -121 -67.5 -215.5t-153.5 -94.5q-50 0 -80 42t-30 112zM106 89q0 -65 45 -65q49 0 97 106q22 49 38 113.5t16 104.5q0 25 -12 40t-32 15q-30 0 -54 -27t-49 -89q-49 -124 -49 -198zM158 547q0 20 15 34.5 t35 14.5t34.5 -14.5t14.5 -34.5q0 -21 -14.5 -35.5t-34.5 -14.5q-21 0 -35.5 14.5t-14.5 35.5zM315 547q0 20 15 34.5t35 14.5t34.5 -14.5t14.5 -34.5t-15 -35t-35 -15t-34.5 14.5t-14.5 35.5z" />
<glyph unicode="&#xf7;" d="M67 305v43h453v-43h-453zM246 166q0 20 14 33.5t34 13.5t33.5 -13.5t13.5 -33.5q0 -21 -14 -34.5t-34 -13.5t-33.5 14t-13.5 34zM246 488q0 20 14 33.5t34 13.5t33.5 -13.5t13.5 -33.5q0 -21 -14 -34.5t-34 -13.5t-33.5 14t-13.5 34z" />
<glyph unicode="&#xf8;" horiz-adv-x="391" d="M19 -9l39 53q-20 37 -20 95q0 117 67 209t152 92q45 0 75 -33l34 45l24 -18l-39 -52q18 -34 18 -92q0 -117 -68 -210.5t-153 -93.5q-43 0 -72 32l-33 -45zM107 104l192 267q-12 31 -41 31q-64 0 -117 -152q-27 -77 -34 -146zM109 57q10 -34 41 -34q55 0 107 127 q32 80 43 172z" />
<glyph unicode="&#xf9;" horiz-adv-x="463" d="M43 317q24 59 57.5 91t70.5 32q53 0 53 -56q0 -29 -15 -75l-68 -216q-9 -30 -9 -38q0 -22 20 -22q40 0 88 72.5t84 185.5l43 136h79l-107 -347q-7 -21 -7 -34q0 -15 14 -15q28 0 73 91l29 -14q-62 -121 -125 -121q-25 0 -39.5 18.5t-14.5 50.5q0 19 5 44 q-78 -113 -152 -113q-29 0 -47.5 19t-18.5 49q0 24 9 53l79 248q5 16 5 23q0 13 -10 13q-30 0 -63 -83zM230 617q0 10 17 10h68l37 -122q1 -3 1 -8q0 -10 -14 -10q-9 0 -14 6l-92 117q-3 3 -3 7z" />
<glyph unicode="&#xfa;" horiz-adv-x="463" d="M43 317q24 59 57.5 91t70.5 32q53 0 53 -56q0 -29 -15 -75l-68 -216q-9 -30 -9 -38q0 -22 20 -22q40 0 88 72.5t84 185.5l43 136h79l-107 -347q-7 -21 -7 -34q0 -15 14 -15q28 0 73 91l29 -14q-62 -121 -125 -121q-25 0 -39.5 18.5t-14.5 50.5q0 19 5 44 q-78 -113 -152 -113q-29 0 -47.5 19t-18.5 49q0 24 9 53l79 248q5 16 5 23q0 13 -10 13q-30 0 -63 -83zM271 493q0 5 3 9l83 125h76q13 0 13 -8q0 -4 -7 -9l-141 -117q-8 -6 -17 -6q-10 0 -10 6z" />
<glyph unicode="&#xfb;" horiz-adv-x="463" d="M43 317q24 59 57.5 91t70.5 32q53 0 53 -56q0 -29 -15 -75l-68 -216q-9 -30 -9 -38q0 -22 20 -22q40 0 88 72.5t84 185.5l43 136h79l-107 -347q-7 -21 -7 -34q0 -15 14 -15q28 0 73 91l29 -14q-62 -121 -125 -121q-25 0 -39.5 18.5t-14.5 50.5q0 19 5 44 q-78 -113 -152 -113q-29 0 -47.5 19t-18.5 49q0 24 9 53l79 248q5 16 5 23q0 13 -10 13q-30 0 -63 -83zM174 501q0 7 11 15l149 119l92 -119q5 -6 5 -11q0 -6 -7 -12.5t-14 -6.5q-5 0 -14 7l-76 66l-115 -66q-12 -7 -18 -7q-5 0 -9 5t-4 10z" />
<glyph unicode="&#xfc;" horiz-adv-x="463" d="M43 317q24 59 57.5 91t70.5 32q53 0 53 -56q0 -29 -15 -75l-68 -216q-9 -30 -9 -38q0 -22 20 -22q40 0 88 72.5t84 185.5l43 136h79l-107 -347q-7 -21 -7 -34q0 -15 14 -15q28 0 73 91l29 -14q-62 -121 -125 -121q-25 0 -39.5 18.5t-14.5 50.5q0 19 5 44 q-78 -113 -152 -113q-29 0 -47.5 19t-18.5 49q0 24 9 53l79 248q5 16 5 23q0 13 -10 13q-30 0 -63 -83zM180 547q0 20 15 34.5t35 14.5t34.5 -14.5t14.5 -34.5q0 -21 -14.5 -35.5t-34.5 -14.5q-21 0 -35.5 14.5t-14.5 35.5zM337 547q0 20 15 34.5t35 14.5t34.5 -14.5 t14.5 -34.5t-15 -35t-35 -15t-34.5 14.5t-14.5 35.5z" />
<glyph unicode="&#xfd;" horiz-adv-x="358" d="M-148 -232q0 14 12 25t28 11q14 0 48 -13q8 -4 18 -4q21 0 51.5 20t55.5 50q38 46 54 103t16 148q0 125 -23 251q-5 26 -16 26t-22.5 -28.5t-18.5 -74.5l-28 16q26 142 91 142q84 0 84 -310q0 -34 -2 -58q38 57 70.5 138t32.5 121q0 12 -3 18t-22 29q-11 15 -11 31 q0 15 9 25t23 10q23 0 37 -23.5t14 -61.5q0 -81 -80 -242q-118 -237 -216 -321q-80 -67 -146 -67q-24 0 -40 11t-16 28zM219 493q0 5 3 9l83 125h76q13 0 13 -8q0 -4 -7 -9l-141 -117q-8 -6 -17 -6q-10 0 -10 6z" />
<glyph unicode="&#xfe;" horiz-adv-x="428" d="M-118 -253l10 30h14q35 0 46 8t22 41l249 789q4 12 4 20q0 18 -40 18h-30l12 31h28q61 0 121 17l11 -6l-91 -288q34 33 79 33q44 0 71.5 -35.5t27.5 -91.5q0 -119 -71.5 -222.5t-153.5 -103.5q-44 0 -72 44l-65 -207q-6 -21 -6 -29q0 -11 9.5 -14.5t38.5 -3.5h15l-10 -30 h-219zM142 77q0 -22 13 -35.5t34 -13.5q36 0 69 47q36 51 60.5 128t24.5 140q0 59 -43 59q-52 0 -87 -81q-25 -59 -48 -138.5t-23 -105.5z" />
<glyph unicode="&#xff;" horiz-adv-x="358" d="M-148 -232q0 14 12 25t28 11q14 0 48 -13q8 -4 18 -4q21 0 51.5 20t55.5 50q38 46 54 103t16 148q0 125 -23 251q-5 26 -16 26t-22.5 -28.5t-18.5 -74.5l-28 16q26 142 91 142q84 0 84 -310q0 -34 -2 -58q38 57 70.5 138t32.5 121q0 12 -3 18t-22 29q-11 15 -11 31 q0 15 9 25t23 10q23 0 37 -23.5t14 -61.5q0 -81 -80 -242q-118 -237 -216 -321q-80 -67 -146 -67q-24 0 -40 11t-16 28zM128 547q0 20 15 34.5t35 14.5t34.5 -14.5t14.5 -34.5q0 -21 -14.5 -35.5t-34.5 -14.5q-21 0 -35.5 14.5t-14.5 35.5zM285 547q0 20 15 34.5t35 14.5 t34.5 -14.5t14.5 -34.5t-15 -35t-35 -15t-34.5 14.5t-14.5 35.5z" />
<glyph unicode="&#x152;" horiz-adv-x="933" d="M77 260q0 85 37 170.5t101 149.5q109 107 274 107q59 0 112 -15q20 -5 26 -5h330v-151h-28q0 71 -31 99q-24 21 -84 21h-111l-77 -267h78q49 0 66.5 17t33.5 81l4 12h33l-76 -263h-33q21 51 21 86q0 30 -49 30h-88l-67 -233q-9 -32 -9 -42q0 -19 20 -24t91 -5 q77 0 113 12.5t65 49.5q27 34 44 93h33l-52 -183h-418q-8 0 -24 -3q-35 -8 -74 -8q-100 0 -171 57q-90 71 -90 214zM179 226q0 -87 42 -143q40 -54 124 -54q50 0 75.5 20t39.5 70l128 447q7 22 7 44q0 40 -88 40q-162 0 -244 -137q-38 -64 -61 -142.5t-23 -144.5z" />
<glyph unicode="&#x153;" horiz-adv-x="561" d="M35 131q0 64 23.5 127.5t64.5 112.5q57 69 133 69q79 0 101 -71q75 71 144 71q30 0 49 -16t19 -41q0 -100 -235 -221q-17 -48 -17 -78q0 -25 11.5 -39.5t31.5 -14.5q53 0 117 107l35 -10q-80 -140 -165 -140q-58 0 -86 53q-57 -53 -115 -53q-51 0 -81 38.5t-30 105.5z M105 86q0 -60 46 -60q35 0 61 39.5t56 138.5q32 107 32 148q0 23 -12 36t-33 13q-59 0 -109 -127q-41 -104 -41 -188zM347 207l15 7q61 28 107.5 80.5t46.5 88.5q0 10 -7.5 17t-17.5 7q-35 0 -75.5 -56.5t-68.5 -143.5z" />
<glyph unicode="&#x178;" horiz-adv-x="625" d="M116 0l10 31h20q47 0 61.5 12.5t31.5 65.5l65 212l-88 266q-10 29 -16 35q-16 13 -47 13h-31l7 32h262l-8 -32h-11q-33 0 -41.5 -2t-16.5 -10q-7 -7 -7 -16q0 -7 7 -31l65 -209l198 213q19 20 19 33t-12 18q-10 4 -58 4h-12l8 32h256l-8 -32h-13q-44 0 -64.5 -9.5 t-57.5 -48.5l-236 -243l-67 -227q-7 -26 -7 -40q0 -20 13 -28t46 -8h26l-9 -31h-285zM327 780q0 23 16.5 39t39.5 16q22 0 38.5 -16.5t16.5 -38.5q0 -23 -16 -39.5t-39 -16.5t-39.5 16.5t-16.5 39.5zM519 780q0 23 16.5 39t39.5 16q22 0 38.5 -16.5t16.5 -38.5 q0 -23 -16.5 -39.5t-39.5 -16.5t-39 16.5t-16 39.5z" />
<glyph unicode="&#x2c6;" d="M192 501q0 7 11 15l149 119l92 -119q5 -6 5 -11q0 -6 -7 -12.5t-14 -6.5q-5 0 -14 7l-76 66l-115 -66q-12 -7 -18 -7q-5 0 -9 5t-4 10z" />
<glyph unicode="&#x2dc;" d="M198 515q57 79 101 79q15 0 51 -16q27 -12 45 -12q24 0 54 29l14 -10q-56 -74 -99 -74q-7 0 -45 14q-35 14 -51 14q-23 0 -54 -34z" />
<glyph unicode="&#x2000;" horiz-adv-x="445" />
<glyph unicode="&#x2001;" horiz-adv-x="890" />
<glyph unicode="&#x2002;" horiz-adv-x="445" />
<glyph unicode="&#x2003;" horiz-adv-x="890" />
<glyph unicode="&#x2004;" horiz-adv-x="296" />
<glyph unicode="&#x2005;" horiz-adv-x="222" />
<glyph unicode="&#x2006;" horiz-adv-x="148" />
<glyph unicode="&#x2007;" horiz-adv-x="148" />
<glyph unicode="&#x2008;" horiz-adv-x="111" />
<glyph unicode="&#x2009;" horiz-adv-x="178" />
<glyph unicode="&#x200a;" horiz-adv-x="49" />
<glyph unicode="&#x2010;" horiz-adv-x="163" d="M3 195l18 57h162l-18 -57h-162z" />
<glyph unicode="&#x2011;" horiz-adv-x="163" d="M3 195l18 57h162l-18 -57h-162z" />
<glyph unicode="&#x2012;" horiz-adv-x="163" d="M3 195l18 57h162l-18 -57h-162z" />
<glyph unicode="&#x2013;" horiz-adv-x="516" d="M43 195l18 57h435l-18 -57h-435z" />
<glyph unicode="&#x2014;" horiz-adv-x="487" d="M3 195l18 57h486l-18 -57h-486z" />
<glyph unicode="&#x2018;" horiz-adv-x="220" d="M146 515q0 31 15.5 65t39.5 57q20 19 51 35t45 15q7 0 12.5 -4.5t5.5 -9.5q0 -10 -26 -19q-31 -12 -55 -41t-24 -55q0 -10 3.5 -13t21.5 -9q13 -4 22 -18.5t9 -30.5q0 -23 -16.5 -40t-38.5 -17q-29 0 -47 23.5t-18 61.5z" />
<glyph unicode="&#x2019;" horiz-adv-x="220" d="M126 444q0 10 26 19q31 12 55 41t24 55q0 10 -3.5 13t-21.5 9q-13 4 -22 18.5t-9 30.5q0 23 16.5 40t38.5 17q29 0 47 -23.5t18 -61.5q0 -31 -15.5 -65t-39.5 -57q-20 -19 -50 -34.5t-46 -15.5q-7 0 -12.5 4.5t-5.5 9.5z" />
<glyph unicode="&#x201a;" horiz-adv-x="220" d="M-35 -125q0 7 24 17q28 11 48 37.5t20 52.5q0 14 -4 18t-24 10q-14 4 -25 20.5t-11 33.5q0 22 14 37t35 15q32 0 53.5 -28.5t21.5 -69.5q0 -65 -42 -109q-18 -19 -46 -34.5t-44 -15.5q-7 0 -13.5 5t-6.5 11z" />
<glyph unicode="&#x201c;" horiz-adv-x="393" d="M146 515q0 31 15.5 65t39.5 57q20 19 51 35t45 15q7 0 12.5 -4.5t5.5 -9.5q0 -10 -26 -19q-31 -12 -55 -41t-24 -55q0 -10 3.5 -13t21.5 -9q13 -4 22 -18.5t9 -30.5q0 -23 -16.5 -40t-38.5 -17q-29 0 -47 23.5t-18 61.5zM319 515q0 31 15.5 65t39.5 57q20 19 51 35t45 15 q7 0 12.5 -4.5t5.5 -9.5q0 -10 -26 -19q-31 -12 -55 -41t-24 -55q0 -10 3.5 -13t22.5 -9q13 -4 22 -18.5t9 -30.5q0 -23 -16.5 -40t-39.5 -17q-29 0 -47 24t-18 61z" />
<glyph unicode="&#x201d;" horiz-adv-x="393" d="M126 444q0 10 26 19q31 12 55 41t24 55q0 10 -3.5 13t-21.5 9q-13 4 -22 18.5t-9 30.5q0 23 16.5 40t38.5 17q29 0 47 -23.5t18 -61.5q0 -31 -15.5 -65t-39.5 -57q-20 -19 -50 -34.5t-46 -15.5q-7 0 -12.5 4.5t-5.5 9.5zM299 444q0 10 26 19q31 12 55 41t24 55 q0 10 -3.5 13t-21.5 9q-13 4 -22 18.5t-9 30.5q0 23 16.5 40t38.5 17q29 0 47 -23.5t18 -61.5q0 -31 -15.5 -65t-39.5 -57q-20 -19 -50 -34.5t-46 -15.5q-7 0 -12.5 4.5t-5.5 9.5z" />
<glyph unicode="&#x201e;" horiz-adv-x="393" d="M-35 -125q0 7 24 17q28 11 48 37.5t20 52.5q0 14 -4 18t-24 10q-14 4 -25 20.5t-11 33.5q0 22 14 37t35 15q32 0 53.5 -28.5t21.5 -69.5q0 -65 -42 -109q-18 -19 -46 -34.5t-44 -15.5q-7 0 -13.5 5t-6.5 11zM138 -125q0 7 24 17q28 11 48 37.5t20 52.5q0 14 -4 18t-24 10 q-14 4 -25 20.5t-11 33.5q0 22 14 37t35 15q32 0 53.5 -28.5t21.5 -69.5q0 -65 -42 -109q-18 -19 -46 -34.5t-44 -15.5q-8 0 -14 5t-6 11z" />
<glyph unicode="&#x2022;" horiz-adv-x="667" d="M213 333q0 50 35.5 85t85.5 35q49 0 84 -35.5t35 -84.5t-35.5 -84.5t-84.5 -35.5t-84.5 35.5t-35.5 84.5z" />
<glyph unicode="&#x2026;" horiz-adv-x="660" d="M30 42q0 23 16.5 39t39.5 16q22 0 38 -16.5t16 -38.5t-16 -38.5t-39 -16.5t-39 16.5t-16 38.5zM250 42q0 23 16.5 39t39.5 16q22 0 38 -16.5t16 -38.5t-16 -38.5t-39 -16.5t-39 16.5t-16 38.5zM470 42q0 23 16.5 39t39.5 16q22 0 38 -16.5t16 -38.5t-16 -38.5t-39 -16.5 t-39 16.5t-16 38.5z" />
<glyph unicode="&#x202f;" horiz-adv-x="178" />
<glyph unicode="&#x2039;" horiz-adv-x="257" d="M54 223l4 20q31 16 81 54t76 64l14 13h45q-15 -22 -68 -78t-75 -73q31 -71 48 -146h-33q-23 50 -36.5 71.5t-55.5 74.5z" />
<glyph unicode="&#x203a;" horiz-adv-x="257" d="M5 72q15 22 68.5 78t75.5 73q-29 64 -48 146h32q25 -52 38.5 -73t53.5 -73l-3 -20q-32 -16 -82 -53.5t-76 -64.5l-14 -13h-45z" />
<glyph unicode="&#x205f;" horiz-adv-x="222" />
<glyph unicode="&#x20ac;" horiz-adv-x="664" d="M50 294l17 26h50q1 12 5 26h-61l17 26h51q42 134 144.5 224.5t212.5 90.5q45 0 87.5 -17t64.5 -45l41 42h27l-53 -215h-31q5 23 5 41q0 71 -36.5 114t-97.5 43q-115 0 -204 -162q-30 -53 -50 -116h261l-17 -26h-252q-1 -2 -3 -11t-3 -15h241l-16 -26h-230q-8 -50 -8 -85 q0 -88 40 -138.5t110 -50.5q69 0 119 43.5t89 137.5h38l-77 -215h-27l-11 34q-79 -40 -148 -40q-104 0 -169.5 75t-65.5 196q0 21 3 43h-63z" />
<glyph unicode="&#x2122;" horiz-adv-x="819" d="M131 300l6 17h17q25 0 33.5 7.5t17.5 37.5l90 286h-45q-32 0 -52 -15.5t-33 -52.5h-16l31 87h301l-28 -87h-18q8 25 8 39q0 29 -41 29h-54l-92 -292q-3 -8 -3 -18q0 -21 40 -21h17l-5 -17h-174zM411 300l4 17h14q16 0 22.5 6t14.5 29l104 271q2 8 2 10q0 11 -7.5 14 t-32.5 3h-13l2 17h100l16 -285l184 285h98l-4 -17h-5q-25 0 -33 -6t-14 -31l-66 -261q-2 -12 -2 -14q-1 -9 7 -15t21 -6h18l-5 -17h-152l4 17h14q21 0 29.5 6.5t13.5 25.5q12 51 35.5 145.5t29.5 118.5l-201 -313h-17l-17 278l-82 -220q-7 -21 -7 -27q0 -14 35 -14h8l-4 -17 h-114z" />
<glyph unicode="&#xe000;" horiz-adv-x="450" d="M0 0v450h450v-450h-450z" />
</font>
</defs>
</svg>
