<?xml version="1.0" standalone="no"?> <!DOCTYPE svg PUBLIC "-//W3C//DTD SVG 1.0//EN" "http://www.w3.org/TR/2001/REC-SVG-20010904/DTD/svg10.dtd" > <svg xmlns="http://www.w3.org/2000/svg" width="100%" height="100%">
<defs >
<font id="mrseavesotbold" horiz-adv-x="834" ><font-face
    font-family="Mrs Eaves OT"
    units-per-em="2048"
    panose-1="0 0 0 0 0 0 0 0 0 0"
    ascent="1264"
    descent="-512"
    alphabetic="0" />
<missing-glyph horiz-adv-x="1024" />
<glyph unicode=" " glyph-name="space" horiz-adv-x="477" />
<glyph unicode="!" glyph-name="exclam" horiz-adv-x="673" d="M184 1042T184 1106T229 1217T338 1264T450 1217T498 1106Q498 1052 487 1006T459 915T425 810T392 644T373 395H303Q298 568 278 692T238 868T201 981ZM457 100Q457 53 422 19T338 -16T256 18T223
100Q223 150 256 184T338 219T422 184T457 100Z" />
<glyph unicode="&quot;" glyph-name="quotedbl" horiz-adv-x="845" d="M117 1139Q117 1190 152 1227T236 1264Q286 1264 323 1227T360 1139Q360 1118 347 1078T318 992T284 863T258 686H215Q205 806 181 905T137 1059T117 1139ZM485 1139Q485 1189 520 1226T604
1264Q655 1264 692 1227T729 1139Q729 1115 709 1060T663 905T627 686H584Q574 806 549 905T505 1059T485 1139Z" />
<glyph unicode="#" glyph-name="numbersign" horiz-adv-x="890" d="M637 662H780L754 518H610L573 285H457L498 518H313L274 285H160L199 518H55L80 662H221L254 854H113L139 995H281L319 1229H436L395 995H580L618 1229H733L694 995H838L813 854H670L637 662ZM338
662H520L553 854H371L338 662Z" />
<glyph unicode="$" glyph-name="dollar" horiz-adv-x="1019" d="M532 1206Q685 1186 766 1097Q823 1035 810 980Q802 941 758 928Q731 919 711 931T675 968T642 1021T597 1076T532 1116V737L676 664Q777 610 832 531T887 367Q887 215 786 121T532 16V-170H426V20Q262
42 157 142Q85 210 84 270Q83 309 117 324Q145 334 160 331T193 311T221 274T252 226T292 177T348 135T426 106V549L328 600Q231 649 169 731T106 918Q106 1038 196 1120T426 1210V1399H532V1206ZM532 100Q604 110 648 155T692 272Q692 402 532 494V100ZM426 1122Q372
1110 337 1070T301 975Q301 916 330 875T426 795V1122Z" />
<glyph unicode="%" glyph-name="percent" horiz-adv-x="1562" d="M762 969Q762 849 663 763T426 676T188 762T88 969Q88 1090 188 1177T426 1264T663 1177T762 969ZM559 885T559 969T525 1118T426 1184T327 1119T291 969Q291 886 326 820T426 754T524 819ZM1202
1225L446 -37L365 6L1122 1270L1202 1225ZM1473 262Q1473 141 1374 54T1137 -33Q998 -33 900 53T801 262Q801 382 900 468T1137 555T1374 469T1473 262ZM1272 262Q1272 345 1237 411T1137 477Q1093 477 1061 443T1015 362T1001 262Q1001 178 1036 113T1137 47Q1201
47 1236 112T1272 262Z" />
<glyph unicode="&amp;" glyph-name="ampersand" horiz-adv-x="1345" d="M510 754Q611 816 665 879T719 1028Q719 1094 684 1130T592 1167Q528 1167 489 1116T449 1001Q449 867 510 754ZM766 137Q507 413 416 535Q344 435 344 307Q344 202 414 132T584 61Q680 61
766 137ZM829 78Q707 -35 516 -35Q401 -35 308 4T154 126T94 324Q94 380 112 428T166 516T241 586T334 651Q215 828 215 969Q215 1101 324 1182T592 1264Q730 1264 824 1202T918 1028Q918 985 902 947T863 881T800 824T728 774T645 724T563 672Q626 580 851 334Q871
312 881 301Q899 339 918 395Q945 488 911 522T750 557V616H1229V557Q1172 557 1138 549T1077 515T1032 452T989 344Q974 293 944 231Q1051 119 1143 119Q1205 119 1276 190L1317 152Q1189 -35 1059 -35Q960 -35 829 78Z" />
<glyph unicode="&apos;" glyph-name="quotesingle" horiz-adv-x="477" d="M117 1139Q117 1190 152 1227T236 1264Q286 1264 323 1227T360 1139Q360 1118 347 1078T318 992T284 863T258 686H215Q205 806 181 905T137 1059T117 1139Z" />
<glyph unicode="(" glyph-name="parenleft" horiz-adv-x="733" d="M684 -176L631 -227Q547 -159 479 -92T346 57T236 223T164 404T137 604Q137 729 176 848T287 1072T442 1263T629 1436L684 1384Q365 1026 365 604T684 -176Z" />
<glyph unicode=")" glyph-name="parenright" horiz-adv-x="733" d="M598 730T598 604T559 359T448 136T293 -54T104 -227L49 -176Q371 185 371 604T49 1384L106 1436Q211 1349 293 1263T448 1073T559 849Z" />
<glyph unicode="*" glyph-name="asterisk" horiz-adv-x="870" d="M371 879Q315 899 242 903T145 922Q107 943 94 988T102 1071Q124 1109 170 1122T254 1112Q275 1099 294 1071T341 1003T406 932Q395 989 362 1056T328 1151Q328 1196 359 1230T436 1264T514 1230T547
1151Q547 1123 512 1057T467 936Q510 973 551 1034T618 1108Q655 1131 700 1120T768 1071T778 987T727 918Q705 906 630 903T498 879Q542 864 589 859T669 851T725 836Q763 814 776 770T768 688Q746 649 700 637T616 647Q596 659 577 687T530 754T467 823Q477 767
510 702T543 608Q543 563 512 530T436 496Q391 496 358 529T324 608Q324 635 359 701T406 823Q369 794 341 756T293 690T252 651Q215 628 170 639T102 688Q81 725 93 771T143 840Q166 852 240 855T371 879Z" />
<glyph unicode="+" glyph-name="plus" horiz-adv-x="937" d="M549 532H836V375H549V86H389V375H102V532H389V819H549V532Z" />
<glyph unicode="," glyph-name="comma" horiz-adv-x="641" d="M221 -285L180 -244Q299 -122 313 -16H303Q249 -16 213 22T176 115T213 207T303 246Q362 246 407 203T453 86Q453 -10 393 -112T221 -285Z" />
<glyph unicode="-" glyph-name="hyphen" horiz-adv-x="937" d="M768 340H170V498H768V340Z" />
<glyph unicode="." glyph-name="period" horiz-adv-x="641" d="M250 246T305 246T398 208T436 115T398 22T305 -16T213 21T176 115Q176 170 213 208Z" />
<glyph unicode="/" glyph-name="slash" horiz-adv-x="712" d="M684 1231L129 -37L29 -2L584 1270L684 1231Z" />
<glyph unicode="0" glyph-name="zero" horiz-adv-x="1212" d="M510 922T606 922T790 884T943 782T1045 630T1083 444T1045 258T943 105T791 3T606 -35T421 3T269 105T167 258T129 444T167 629T269 782T421 884ZM726 750T606 750T399 660T311 444Q311 317 398 228T606
139T814 228T901 444Q901 570 814 660Z" />
<glyph unicode="1" glyph-name="one" horiz-adv-x="827" d="M725 0H102V59Q147 59 176 62T228 75T264 101T285 146T296 210T299 299V590Q299 671 293 714T264 784T206 819T102 827V887H725V827Q657 827 622 820T563 785T534 714T528 590V299Q528 245 530 210T541
146T562 102T598 76T651 62T725 59V0Z" />
<glyph unicode="2" glyph-name="two" horiz-adv-x="1132" d="M713 334L473 188H958L907 -162H864Q864 -91 846 -59T779 -13T625 0H152V49L537 365Q607 423 641 482T676 621Q676 706 627 761T487 817Q417 817 369 781T312 680T348 528L252 465Q192 501 161 550T129
649T154 748T227 836T348 898T508 922Q708 922 828 843T948 647Q948 593 928 544T869 456T796 390T713 334Z" />
<glyph unicode="3" glyph-name="three" horiz-adv-x="1075" d="M528 236Q517 228 504 214T481 188T459 165T436 148T413 143T387 154Q372 165 370 178T378 208T397 234T426 264L539 383Q590 435 617 499T645 612Q645 707 600 762T477 817Q414 817 369 779T314
676T348 528L252 465Q192 501 160 550T125 649T145 748T214 836T331 898T489 922Q607 922 703 890T857 795T915 647Q915 595 894 546T838 460T770 395T698 346L598 289Q751 267 850 173T950 -41Q950 -146 888 -225T726 -343T510 -383Q329 -383 212 -286Q138 -224
131 -159Q125 -104 176 -90Q180 -89 184 -88Q209 -83 230 -96T267 -131T303 -181T346 -232T407 -273T494 -289Q578 -289 623 -219T668 -41Q668 58 636 125T528 236Z" />
<glyph unicode="4" glyph-name="four" horiz-adv-x="1157" d="M733 1008V178H739Q795 178 833 184T895 201T935 233T959 275T977 334L987 375H1047L1030 86H733V-49Q733 -103 735 -138T746 -202T767 -246T803 -272T856 -286T930 -289V-348H307V-289Q352 -289 381
-286T433 -273T469 -247T490 -202T501 -138T504 -49V86H74V141L680 1008H733ZM504 178V594L211 178H504Z" />
<glyph unicode="5" glyph-name="five" horiz-adv-x="1026" d="M272 381Q298 418 360 444T485 471Q662 471 779 348T897 45T775 -258T467 -383Q392 -383 327 -359T220 -297T156 -220T133 -147Q133 -88 190 -88Q217 -88 235 -103T263 -140T285 -188T315 -237T367
-274T451 -289Q533 -289 587 -195T641 45Q641 189 587 279T451 369Q379 369 335 332T254 184H162L225 887H590Q646 887 683 893T745 909T784 940T808 983T825 1042H872L823 657H303L272 381Z" />
<glyph unicode="6" glyph-name="six" horiz-adv-x="1091" d="M367 569Q367 445 380 351T412 204T458 119T508 76T559 66Q719 66 719 352Q719 496 673 565T543 635Q488 635 438 619T367 569ZM367 680Q430 733 543 733Q655 733 754 682T913 542T973 350Q973 192
851 79T559 -35Q508 -35 455 -21T342 32T236 134T160 302T129 545Q129 678 161 805T253 1037T407 1206T616 1270Q749 1270 847 1200Q917 1150 918 1100Q919 1071 891 1053Q873 1040 854 1043T822 1059T789 1091T748 1127T694 1156T618 1169Q383 1169 367 680Z"
/>
<glyph unicode="7" glyph-name="seven" horiz-adv-x="980" d="M891 905V848L434 -303Q400 -385 336 -385Q289 -385 267 -340T274 -225L723 674H416Q345 674 303 667T236 638T201 592T178 518L168 477H125L211 1067H252Q252 1013 260 984T295 935T367 911T492 905H891Z" />
<glyph unicode="8" glyph-name="eight" horiz-adv-x="1116" d="M612 774Q711 873 711 1016Q711 1085 666 1126T559 1167Q500 1167 462 1127T424 1036Q424 972 473 910T612 774ZM489 600Q344 478 344 299Q344 204 401 133T559 61Q648 61 701 120T754 264Q754 308
733 352T670 441T588 520T489 600ZM688 715Q826 608 875 558Q989 441 989 324Q989 224 929 141T770 12T559 -35Q386 -35 258 67T129 315Q129 353 138 387T160 448T197 501T242 544T298 585T355 620T418 655Q305 746 248 816T190 969Q190 1052 240 1120T373 1226T549
1264Q641 1264 724 1228T858 1131T909 1001Q909 908 851 843T688 715Z" />
<glyph unicode="9" glyph-name="nine" horiz-adv-x="1091" d="M965 344Q965 238 945 134T884 -63T786 -228T649 -341T477 -383Q342 -383 244 -312Q175 -262 174 -212Q173 -183 201 -166Q220 -152 239 -155T272 -172T305 -204T345 -240T399 -270T475 -283Q710 -283
725 209Q659 154 549 154Q438 154 339 205T180 345T119 539Q119 697 240 809T532 922Q584 922 637 908T751 855T858 754T934 586T965 344ZM725 319Q725 444 712 538T680 685T634 770T583 813T532 823Q375 823 375 537Q375 393 420 323T549 252Q604 252 653 269T725
319Z" />
<glyph unicode=":" glyph-name="colon" horiz-adv-x="583" d="M408 100Q408 53 373 19T291 -16Q242 -16 209 18T176 100Q176 150 209 184T291 219Q339 219 373 184T408 100ZM408 487Q408 440 373 406T291 371Q242 371 209 405T176 487Q176 537 209 571T291 606Q339
606 373 571T408 487Z" />
<glyph unicode=";" glyph-name="semicolon" horiz-adv-x="569" d="M201 -262L166 -225Q270 -115 285 -20H274Q227 -20 194 15T160 98T193 181T274 217Q328 217 369 179T410 72Q410 -14 356 -106T201 -262ZM395 487Q395 440 360 406T276 371Q228 371 195 405T162
487Q162 537 195 571T276 606Q326 606 360 571T395 487Z" />
<glyph unicode="&lt;" glyph-name="less" horiz-adv-x="989" d="M137 457L827 903L874 840L467 457L874 78L827 12L137 457Z" />
<glyph unicode="=" glyph-name="equal" horiz-adv-x="937" d="M768 518H170V678H768V518ZM768 229H170V387H768V229Z" />
<glyph unicode="&gt;" glyph-name="greater" horiz-adv-x="989" d="M854 457L162 12L117 78L522 457L117 840L162 903L854 457Z" />
<glyph unicode="?" glyph-name="question" horiz-adv-x="1050" d="M803 958Q803 1046 717 1114T498 1182Q415 1182 363 1151T311 1090Q311 1069 328 1056T381 1042Q418 1042 444 1017T471 956T447 895T395 860T340 850Q311 850 283 859T227 887T182 943T164 1026Q164
1099 218 1155T347 1237T498 1264Q605 1264 694 1230T839 1142T925 1025T956 899Q956 775 894 682T731 537T498 469V358H406V715Q580 715 691 780T803 958ZM569 100Q569 52 535 18T453 -16Q404 -16 371 18T338 100Q338 150 371 184T453 219T535 185T569 100Z" />
<glyph unicode="@" glyph-name="at" horiz-adv-x="1449" d="M1380 489Q1380 386 1344 289T1250 125T1123 16T987 -25Q940 -25 903 -2T846 57Q808 19 755 -6T659 -31Q525 -31 462 83T428 365Q457 523 572 635T819 748Q888 748 952 715H1090L991 168Q982 122 991
100T1030 78Q1066 78 1108 106T1188 184T1251 314T1276 487Q1276 618 1212 718T1048 868T831 918Q674 918 542 834T335 613T260 324Q260 85 400 -66T760 -217Q879 -217 979 -183T1190 -78L1229 -135Q1113 -222 986 -267T743 -313Q634 -313 533 -283T349 -195T206
-61T112 112T78 315Q78 510 176 676T441 939T803 1036Q966 1036 1097 969T1304 777T1380 489ZM909 623Q871 657 815 657Q764 657 719 612T646 500T604 354Q595 282 595 221T619 119T692 78Q741 78 785 125T844 242L909 623Z" />
<glyph unicode="A" glyph-name="A" horiz-adv-x="1280" d="M348 410L264 215Q226 132 259 96T418 59V0H-78V59Q28 59 77 94T174 240L618 1264H662L1108 240Q1133 183 1148 155T1192 102T1258 68T1358 59V0H686V59Q816 59 848 96T840 215L754 410H348ZM715 502L551
877L389 502H715Z" />
<glyph unicode="B" glyph-name="B" horiz-adv-x="1345" d="M711 92Q837 92 904 164T971 348Q971 459 904 531T711 604H528V319Q528 268 530 235T541 174T562 133T598 108T651 95T725 92H711ZM528 1137V696H643Q753 696 810 757T868 915T811 1074T643 1137H528ZM991
668Q1110 631 1177 544T1245 344Q1245 198 1131 99T831 0H78V59Q123 59 151 62T203 76T239 102T259 146T269 209T272 299V930Q272 985 270 1019T259 1083T239 1127T204 1152T152 1166T78 1169V1229H774Q939 1229 1041 1141T1143 922Q1143 842 1103 776T991 668Z"
/>
<glyph unicode="C" glyph-name="C" horiz-adv-x="1417" d="M1266 23H1208Q1184 119 1155 139Q987 -35 774 -35Q604 -35 459 52T230 289T145 614Q145 790 229 939T459 1176T774 1264Q990 1264 1155 1090Q1186 1113 1208 1206H1266V756H1206Q1166 952 1052 1058T782
1165Q701 1165 638 1132T534 1045T468 918T432 770T422 614T432 459T468 311T534 184T637 97T782 63Q937 63 1051 171T1206 473H1266V23Z" />
<glyph unicode="D" glyph-name="D" horiz-adv-x="1581" d="M78 0V59Q123 59 151 62T203 76T239 102T259 146T269 209T272 299V930Q272 985 270 1019T259 1083T239 1127T204 1152T152 1166T78 1169V1229H754Q927 1229 1060 1181T1274 1048T1395 854T1436 614T1396
375T1274 181T1060 48T754 0H78ZM528 1137V324Q528 261 532 223T548 157T583 116T639 98T725 92H745Q841 92 914 125T1029 209T1099 331T1135 470T1145 614T1136 758T1099 897T1030 1020T914 1104T745 1137H528Z" />
<glyph unicode="E" glyph-name="E" horiz-adv-x="1312" d="M78 0V59Q123 59 151 62T203 76T239 102T259 146T269 209T272 299V930Q272 985 270 1019T259 1083T239 1127T204 1152T152 1166T78 1169V1229H1133L1149 940H1090L1079 981Q1069 1019 1062 1039T1038
1082T999 1114T937 1130T842 1137H528V696H641Q706 696 745 700T813 716T855 751T873 807T879 893H938V408H879Q879 453 876 482T863 535T837 571T794 591T731 601T641 604H528V332Q528 278 530 243T541 179T562 135T598 109T651 95T725 92H909Q979 92 1021 100T1089
130T1124 176T1147 248L1157 289H1217L1200 0H78Z" />
<glyph unicode="F" glyph-name="F" horiz-adv-x="1216" d="M528 1137V696H641Q706 696 745 700T813 716T855 751T873 807T879 893H938V408H879Q879 453 876 482T863 535T837 571T794 591T731 601T641 604H528V299Q528 245 530 210T541 146T562 102T598 76T651
62T725 59V0H78V59Q123 59 151 62T203 76T239 102T259 146T269 209T272 299V930Q272 985 270 1019T259 1083T239 1127T204 1152T152 1166T78 1169V1229H1165L1184 940H1122L1112 981Q1100 1028 1090 1052T1055 1099T988 1129T877 1137H528Z" />
<glyph unicode="G" glyph-name="G" horiz-adv-x="1484" d="M1090 249T1090 317T1046 417T897 449V508H1501V449Q1456 449 1428 446T1376 433T1340 407T1320 364T1310 301T1307 211V72Q1226 72 1151 56T1027 19T910 -18T774 -35Q604 -35 459 52T230 289T145 614Q145
790 229 939T459 1176T774 1264Q990 1264 1155 1090Q1186 1113 1208 1206H1266V756H1206Q1166 952 1052 1058T782 1165Q701 1165 638 1132T534 1045T468 918T432 770T422 614T432 459T468 311T534 184T637 97T782 63Q845 63 898 76T995 119T1065 198Z" />
<glyph unicode="H" glyph-name="H" horiz-adv-x="1685" d="M528 606V299Q528 245 530 210T541 146T562 102T598 76T651 62T725 59V0H78V59Q123 59 151 62T203 76T239 102T259 146T269 209T272 299V930Q272 985 270 1019T259 1083T239 1127T204 1152T152 1166T78
1169V1229H725V1169Q671 1169 639 1164T583 1145T548 1102T533 1034T528 930V698H1157V930Q1157 985 1155 1019T1144 1083T1124 1127T1088 1152T1036 1166T961 1169V1229H1610V1169Q1556 1169 1524 1164T1468 1145T1433 1102T1418 1034T1413 930V299Q1413 245 1415
210T1426 146T1447 102T1483 76T1536 62T1610 59V0H961V59Q1015 59 1047 65T1103 84T1137 126T1152 194T1157 299V606H528Z" />
<glyph unicode="I" glyph-name="I" horiz-adv-x="802" d="M725 0H78V59Q123 59 151 62T203 76T239 102T259 146T269 209T272 299V930Q272 985 270 1019T259 1083T239 1127T204 1152T152 1166T78 1169V1229H725V1169Q671 1169 639 1164T583 1145T548 1102T533 1034T528
930V299Q528 245 530 210T541 146T562 102T598 76T651 62T725 59V0Z" />
<glyph unicode="J" glyph-name="J" horiz-adv-x="784" d="M104 -365Q272 -365 272 -109V930Q272 985 270 1019T259 1083T239 1127T204 1152T152 1166T78 1169V1229H725V1169Q671 1169 639 1164T583 1145T548 1102T533 1034T528 930V-8Q528 -227 411 -342T111 -457Q-25
-457 -123 -386T-221 -205Q-221 -169 -197 -144T-137 -119T-77 -144T-53 -205Q-53 -267 -13 -316T104 -365Z" />
<glyph unicode="K" glyph-name="K" horiz-adv-x="1613" d="M793 768L1360 180Q1409 131 1493 95T1624 59V0H944V59Q999 59 1029 71T1060 111T1020 180L616 618L528 547V299Q528 245 530 210T541 146T562 102T598 76T651 62T725 59V0H78V59Q123 59 151 62T203 76T239
102T259 146T269 209T272 299V930Q272 985 270 1019T259 1083T239 1127T204 1152T152 1166T78 1169V1229H725V1169Q671 1169 639 1164T583 1145T548 1102T533 1034T528 930V655L958 1001Q984 1022 1005 1046T1045 1100T1045 1149T967 1169V1229H1460V1169Q1418
1169 1384 1165T1314 1148T1259 1127T1201 1091T1147 1052T1083 1001L793 768Z" />
<glyph unicode="L" glyph-name="L" horiz-adv-x="1296" d="M272 930Q272 985 270 1019T259 1083T239 1127T204 1152T152 1166T78 1169V1229H725V1169Q671 1169 639 1164T583 1145T548 1102T533 1034T528 930V332Q528 278 530 243T541 179T562 135T598 109T651
95T725 92H961Q1031 92 1073 100T1140 130T1175 176T1198 248L1208 289H1268L1251 0H78V59Q123 59 151 62T203 76T239 102T259 146T269 209T272 299V930Z" />
<glyph unicode="M" glyph-name="M" horiz-adv-x="1740" d="M365 889V299Q365 217 371 174T399 103T458 67T561 59V0H78V59Q123 59 151 62T203 76T239 102T259 146T269 209T272 299V930Q272 985 270 1019T259 1083T239 1127T204 1152T152 1166T78 1169V1229H487L883
342L1266 1229H1665V1169Q1597 1169 1561 1162T1503 1126T1474 1055T1468 930V299Q1468 233 1472 195T1487 127T1522 84T1578 65T1665 59V0H1026V59Q1071 59 1100 62T1152 75T1188 101T1209 146T1220 210T1223 299V891L821 -35H776L365 889Z" />
<glyph unicode="N" glyph-name="N" horiz-adv-x="1533" d="M1171 414V930Q1171 1012 1165 1055T1137 1126T1078 1161T975 1169V1229H1460V1169Q1415 1169 1386 1166T1333 1153T1298 1127T1277 1083T1267 1020T1264 930V-35H1212L365 977V299Q365 217 371 174T399
103T458 67T561 59V0H78V59Q123 59 151 62T203 76T239 102T259 146T269 209T272 299V930Q272 985 270 1019T259 1083T239 1127T204 1152T152 1166T78 1169V1229H487L1171 414Z" />
<glyph unicode="O" glyph-name="O" horiz-adv-x="1603" d="M1485 614Q1485 439 1394 290T1145 53T803 -35Q664 -35 538 16T320 155T174 363T119 614Q119 746 173 866T319 1073T537 1212T803 1264Q941 1264 1067 1212T1285 1073T1430 866T1485 614ZM1210 537T1210
614T1196 766T1150 914T1072 1042T956 1131T803 1165Q699 1165 618 1115T489 982T419 806T395 614Q395 551 405 488T435 362T490 246T567 151T672 87T803 63Q886 63 955 96T1071 185T1150 313T1196 461Z" />
<glyph unicode="P" glyph-name="P" horiz-adv-x="1224" d="M764 1229Q950 1229 1064 1130T1178 883T1064 638T764 539H528V299Q528 245 530 210T541 146T562 102T598 76T651 62T725 59V0H78V59Q123 59 151 62T203 76T239 102T259 146T269 209T272 299V930Q272
985 270 1019T259 1083T239 1127T204 1152T152 1166T78 1169V1229H764ZM641 631Q769 631 836 701T903 883T836 1065T641 1137H528V631H641Z" />
<glyph unicode="Q" glyph-name="Q" horiz-adv-x="1654" d="M717 -27Q467 16 306 197T145 614Q145 789 237 939T486 1176T827 1264Q966 1264 1092 1212T1310 1073T1456 866T1511 614Q1511 488 1463 374T1331 176T1136 38T897 -31Q835 -37 754 -71T618 -150Q739
-125 823 -133T993 -174T1141 -241T1278 -304T1419 -332Q1651 -332 1757 -158L1806 -178Q1787 -233 1770 -274T1716 -374T1637 -470T1527 -535T1380 -563Q1311 -563 1248 -543T1135 -491T1039 -419T952 -341T873 -270T794 -217T713 -197Q658 -197 620 -210T562
-242T529 -281T501 -316T467 -334Q438 -339 418 -320T397 -268Q397 -218 491 -142T717 -27ZM827 1165Q724 1165 643 1115T515 982T444 806T420 614T444 423T515 247T643 114T827 63Q897 63 958 86T1062 151T1140 245T1194 361T1225 487T1235 614Q1235 712 1212
805T1141 981T1013 1114T827 1165Z" />
<glyph unicode="R" glyph-name="R" horiz-adv-x="1388" d="M815 539L1014 322Q1146 176 1223 124T1397 59V0H952L588 539H528V299Q528 245 530 210T541 146T562 102T598 76T651 62T725 59V0H78V59Q123 59 151 62T203 76T239 102T259 146T269 209T272 299V930Q272
985 270 1019T259 1083T239 1127T204 1152T152 1166T78 1169V1229H764Q950 1229 1064 1130T1178 883Q1178 747 1079 651T815 539ZM641 631Q769 631 836 701T903 883T836 1065T641 1137H528V631H641Z" />
<glyph unicode="S" glyph-name="S" horiz-adv-x="1038" d="M227 61Q181 22 168 -35H109V416H170Q198 256 307 157T547 57Q639 57 695 109T752 260Q752 317 711 374T600 467L406 569Q263 641 195 727T127 956Q127 1083 231 1173T483 1264Q566 1264 622 1242T733
1180Q778 1216 793 1274H850V823H791Q786 876 776 922T743 1017T689 1098T608 1153T496 1174Q430 1174 380 1129T330 1010Q330 959 373 900T494 801L690 700Q808 639 881 546T954 338Q954 230 896 144T746 11T547 -35Q478 -35 415 -15T300 31T227 61Z" />
<glyph unicode="T" glyph-name="T" horiz-adv-x="1314" d="M1280 1229L1296 940H1237L1227 981Q1215 1028 1205 1052T1169 1099T1102 1129T989 1137H784V299Q784 245 786 210T797 146T818 102T854 76T907 62T981 59V0H334V59Q379 59 407 62T459 76T495 102T515
146T525 209T528 299V1137H324Q255 1137 213 1129T146 1099T111 1053T88 981L78 940H16L35 1229H1280Z" />
<glyph unicode="U" glyph-name="U" horiz-adv-x="1501" d="M1135 930Q1135 985 1133 1019T1122 1083T1102 1127T1066 1152T1013 1166T938 1169V1229H1440V1169Q1386 1169 1354 1163T1299 1144T1265 1102T1250 1035T1245 930V457Q1245 339 1206 245T1100 90T943
-3T752 -35Q649 -35 560 -3T404 89T299 244T260 457V930Q260 995 256 1034T240 1102T205 1144T149 1163T63 1169V1229H713V1169Q645 1169 609 1162T551 1126T522 1055T516 930V479Q516 289 605 191T834 92Q972 92 1053 190T1135 479V930Z" />
<glyph unicode="V" glyph-name="V" horiz-adv-x="1280" d="M1358 1169Q1252 1169 1203 1134T1106 989L662 -35H618L172 989Q152 1035 140 1059T108 1109T64 1145T6 1162T-78 1169V1229H594V1169Q464 1169 432 1132T440 1014L727 348L1016 1014Q1054 1096 1021
1132T862 1169V1229H1358V1169Z" />
<glyph unicode="W" glyph-name="W" horiz-adv-x="1593" d="M1679 1169Q1627 1169 1593 1163T1534 1147T1492 1112T1463 1062T1436 989L1104 -35H1061L803 758L549 -35H506L174 989Q155 1047 141 1077T99 1131T34 1161T-70 1169V1229H578V1169Q451 1169 419 1137T416
1014L602 438L854 1229H899L1157 436L1346 1014Q1372 1098 1341 1133T1202 1169V1229H1679V1169Z" />
<glyph unicode="X" glyph-name="X" horiz-adv-x="1257" d="M735 713L1032 240Q1099 136 1159 98T1321 59V0H635V59Q752 59 775 94T745 215L567 500L334 215Q270 142 294 101T444 59V0H-59V59Q30 59 94 102T236 240L514 582L260 989Q195 1089 134 1129T-27 1169V1229H657V1169Q546
1169 521 1134T547 1014L684 795L864 1014Q928 1088 904 1128T754 1169V1229H1257V1169Q1204 1169 1166 1160T1093 1125T1033 1072T963 989L735 713Z" />
<glyph unicode="Y" glyph-name="Y" horiz-adv-x="1296" d="M1362 1169Q1298 1169 1257 1161T1182 1128T1126 1075T1067 989L774 547V299Q774 233 778 195T793 127T827 84T883 65T969 59V0H330V59Q397 59 433 67T491 103T520 174T526 299V541L229 989Q157 1099
99 1134T-68 1169V1229H627V1169Q518 1169 491 1132T518 1014L748 668L977 1014Q1034 1096 1010 1132T866 1169V1229H1362V1169Z" />
<glyph unicode="Z" glyph-name="Z" horiz-adv-x="1212" d="M723 1153H401Q345 1153 307 1147T244 1130T205 1099T181 1057T164 999L154 958H111L129 1229H1036V1184L395 76H791Q838 76 871 79T929 92T969 112T995 143T1013 181T1028 231L1038 272H1081L1063 0H88V49L723
1153Z" />
<glyph unicode="[" glyph-name="bracketleft" horiz-adv-x="768" d="M688 -180H240V1389H688V1307H475V-98H688V-180Z" />
<glyph unicode="\" glyph-name="backslash" horiz-adv-x="712" d="M29 1231L129 1270L684 -2L584 -37L29 1231Z" />
<glyph unicode="]" glyph-name="bracketright" horiz-adv-x="768" d="M528 -180H80V-98H293V1307H80V1389H528V-180Z" />
<glyph unicode="^" glyph-name="asciicircum" horiz-adv-x="993" d="M942 606L895 573L498 897L98 573L51 606L498 1264L942 606Z" />
<glyph unicode="_" glyph-name="underscore" horiz-adv-x="733" d="M735 -90H-2V0H735V-90Z" />
<glyph unicode="`" glyph-name="grave" horiz-adv-x="827" d="M553 1004L539 985L172 1141Q111 1174 111 1221Q111 1249 131 1272T186 1296Q218 1296 243 1282T303 1235L553 1004Z" />
<glyph unicode="a" glyph-name="a" horiz-adv-x="903" d="M874 53Q831 20 776 -1T682 -23Q615 -23 576 8T526 96Q435 24 385 -1T268 -27Q190 -27 131 20T72 145Q72 209 104 258T199 341T341 397T526 436V438Q526 547 493 590T393 633Q353 633 318 612T283 553Q283
513 260 489T201 465T143 489T119 553Q119 626 209 671T418 717Q588 717 664 651T741 438V162Q741 84 784 84Q807 84 846 109L874 53ZM526 180V354Q395 320 335 281T274 170Q274 127 297 108T354 88Q382 88 429 112T526 180Z" />
<glyph unicode="b" glyph-name="b" horiz-adv-x="1028" d="M682 342Q682 466 644 543T528 621Q474 621 434 570T393 440V242Q393 165 434 113T528 61Q580 61 615 99T666 199T682 342ZM162 -16V913Q162 994 157 1038T132 1109T84 1145T0 1153V1212L393 1264V657Q467
717 561 717Q730 717 832 610T934 342T832 74T561 -35Q414 -35 330 98L221 -16H162Z" />
<glyph unicode="c" glyph-name="c" horiz-adv-x="829" d="M489 635Q344 635 344 324Q344 201 399 134T553 66Q651 66 760 160L795 100Q670 -35 489 -35Q319 -35 207 67T94 324Q94 441 146 532T285 670T473 717Q593 717 663 666T733 551Q733 519 712 492T643 465Q611
465 587 489T563 547Q563 592 542 613T489 635Z" />
<glyph unicode="d" glyph-name="d" horiz-adv-x="1044" d="M635 657V913Q635 994 630 1038T605 1109T557 1145T473 1153V1212L866 1264V315Q866 235 871 192T896 121T944 86T1028 78V16L670 -35Q663 -23 651 39Q574 -35 467 -35Q298 -35 196 73T94 342T196 609T467
717Q561 717 635 657ZM635 242V440Q635 518 594 569T498 621Q423 621 384 543T344 342Q344 218 383 140T498 61Q553 61 594 113T635 242Z" />
<glyph unicode="e" glyph-name="e" horiz-adv-x="886" d="M354 469H627Q632 534 599 576T500 618Q386 618 354 469ZM340 379Q329 232 390 153T541 74Q687 74 784 160L819 100Q764 42 678 4T508 -35Q327 -35 211 74T94 342Q94 448 148 534T292 669T489 717Q554
717 610 696T702 639T764 559T792 468T784 379H340Z" />
<glyph unicode="f" glyph-name="f" horiz-adv-x="671" d="M821 1083Q821 1048 801 1024T743 999Q709 999 688 1017T657 1063T638 1116T609 1161T559 1180Q495 1180 471 1126T446 936V682H653V592H446V299Q446 219 452 175T477 103T526 67T610 59V0H55V59Q126 59
158 77T204 144T217 299V592H49V682H217V848Q217 1059 300 1161T563 1264Q678 1264 749 1206T821 1083Z" />
<glyph unicode="g" glyph-name="g" horiz-adv-x="870" d="M512 438Q512 526 483 579T397 633Q341 633 312 580T283 438Q283 352 312 298T397 244Q454 244 483 298T512 438ZM231 92Q231 67 268 58T405 39Q434 36 449 35Q542 25 612 -5T720 -77T778 -163T797 -254Q797
-386 685 -466T406 -547Q203 -547 98 -461Q18 -396 35 -315Q52 -231 168 -174L207 -197Q157 -250 146 -295T155 -370T214 -420T297 -450T385 -459Q493 -459 561 -421T629 -319Q629 -282 607 -258T517 -214T324 -180Q193 -166 131 -117T68 25Q68 80 117 129T246
203Q179 233 136 297T92 438Q92 553 182 635T397 717Q519 717 610 639Q635 671 681 694T762 717Q860 717 896 648Q923 596 901 548Q879 500 828 509Q825 509 821 510Q795 516 782 535T765 572T751 606T717 621Q688 621 653 588Q681 554 691 521T702 438Q702 332
623 251T420 160Q304 151 275 141Q231 126 231 92Z" />
<glyph unicode="h" glyph-name="h" horiz-adv-x="1110" d="M180 913Q180 1019 167 1068T121 1135T16 1153V1212L410 1264V606Q502 717 651 717Q787 717 867 631T948 412V299Q948 218 953 174T978 103T1026 67T1110 59V0H637V59Q665 59 681 75T707 146T717 299V385Q717
493 690 547T590 602Q521 602 466 549T410 399V299Q410 193 423 144T468 77T571 59V0H16V59Q88 59 121 77T167 144T180 299V913Z" />
<glyph unicode="i" glyph-name="i" horiz-adv-x="661" d="M627 0H72V59Q126 59 155 67T203 103T227 174T233 299V367Q233 448 228 491T204 562T156 598T72 606V666L465 717V299Q465 234 469 195T482 127T510 84T556 65T627 59V0ZM479 1115T479 1061T441 968T348
928Q295 928 258 967T221 1061Q221 1115 257 1153T348 1192T440 1154Z" />
<glyph unicode="j" glyph-name="j" horiz-adv-x="575" d="M422 -160Q422 -361 339 -454T88 -547Q-45 -547 -127 -484T-211 -354Q-211 -322 -193 -303T-141 -283Q-110 -283 -92 -301T-65 -346T-46 -399T-11 -444T55 -463Q98 -463 126 -438T172 -340T190 -143V367Q190
448 185 491T161 562T113 598T29 606V666L422 717V-160ZM436 1115T436 1061T398 968T305 928Q252 928 215 967T178 1061Q178 1115 214 1153T305 1192T397 1154Z" />
<glyph unicode="k" glyph-name="k" horiz-adv-x="952" d="M410 406L565 516Q618 553 598 588T502 623V682H930V623Q876 623 831 607T733 549L578 430L817 141Q887 59 973 59V0H682L410 326V283Q410 148 435 104T539 59V0H16V59Q88 59 121 77T167 144T180 299V913Q180
1019 167 1068T121 1135T16 1153V1212L410 1264V406Z" />
<glyph unicode="l" glyph-name="l" horiz-adv-x="622" d="M590 0H35V59Q106 59 138 77T184 144T197 299V913Q197 1019 184 1068T139 1135T35 1153V1212L426 1264V299Q426 219 432 175T457 103T506 67T590 59V0Z" />
<glyph unicode="m" glyph-name="m" horiz-adv-x="1695" d="M999 399V299Q999 218 1004 174T1029 103T1077 67T1161 59V0H688V59Q716 59 732 75T758 146T768 299V385Q768 493 743 547T653 602Q583 602 524 549T465 399V299Q465 195 477 145T516 77T600 59V0H72V59Q126
59 155 67T203 103T227 174T233 299V367Q233 448 228 491T204 562T156 598T72 606V666L430 717Q453 670 459 600Q554 717 715 717Q805 717 869 677T967 565Q1077 717 1249 717Q1384 717 1458 632T1532 412V299Q1532 219 1538 175T1563 103T1612 67T1696 59V0H1223V59Q1251
59 1267 75T1293 146T1303 299V385Q1303 493 1278 547T1188 602Q1118 602 1059 549T999 399Z" />
<glyph unicode="n" glyph-name="n" horiz-adv-x="1193" d="M459 600Q554 717 715 717Q852 717 942 630T1032 412V299Q1032 193 1045 144T1090 77T1194 59V0H723V59Q751 59 767 75T793 146T803 299V385Q803 492 769 547T653 602Q583 602 524 549T465 399V299Q465
234 469 195T482 127T510 84T556 65T627 59V0H72V59Q126 59 155 67T203 103T227 174T233 299V367Q233 448 228 491T204 562T156 598T72 606V666L430 717Q453 670 459 600Z" />
<glyph unicode="o" glyph-name="o" horiz-adv-x="1013" d="M920 497T920 342T799 76T508 -35Q338 -35 216 76T94 342T215 607T508 717Q677 717 798 607ZM670 220T670 342T629 542T508 621Q427 621 386 543T344 342T385 140T508 61Q587 61 628 140Z" />
<glyph unicode="p" glyph-name="p" horiz-adv-x="1028" d="M682 342Q682 466 644 543T528 621Q474 621 434 570T393 440V242Q393 165 434 113T528 61Q580 61 615 99T666 199T682 342ZM393 -213Q393 -294 398 -338T423 -409T471 -445T555 -453V-512H0V-453Q54 -453
83 -445T132 -410T156 -338T162 -213V367Q162 447 157 491T132 562T84 598T0 606V666L358 717Q364 708 377 643Q454 717 561 717Q730 717 832 610T934 342T832 74T561 -35Q465 -35 393 27V-213Z" />
<glyph unicode="q" glyph-name="q" horiz-adv-x="1028" d="M635 242V440Q635 518 594 569T498 621Q423 621 384 543T344 342Q344 218 383 140T498 61Q553 61 594 113T635 242ZM866 -213Q866 -294 871 -338T896 -409T944 -445T1028 -453V-512H473V-453Q527 -453
556 -445T605 -410T629 -338T635 -213V27Q563 -35 467 -35Q298 -35 196 73T94 342T196 609T467 717Q541 717 600 682T698 586L805 700H866V-213Z" />
<glyph unicode="r" glyph-name="r" horiz-adv-x="866" d="M864 549Q864 505 835 466T754 426Q725 426 708 440T683 473T667 513T640 547T590 561Q539 561 502 509T465 342V299Q465 234 469 195T482 127T510 84T556 65T627 59V0H72V59Q126 59 155 67T203 103T227
174T233 299V367Q233 448 228 491T204 562T156 598T72 606V666L430 717Q450 674 465 569Q498 631 559 674T682 717Q777 717 820 666T864 549Z" />
<glyph unicode="s" glyph-name="s" horiz-adv-x="784" d="M698 197Q698 138 674 92T609 19T520 -21T420 -35Q375 -35 330 -21T258 7T209 28T177 21T168 -35H109V264H168Q168 191 244 121T416 51Q466 51 495 73T524 131Q524 165 493 191T393 252L279 303Q203 338
164 394T125 512Q125 567 147 608T207 672T284 706T367 717Q408 717 448 709T511 693T554 681T580 685T588 717H647V479H588Q588 541 528 588T399 635Q357 635 328 616T299 565Q299 532 327 512T440 453L539 406Q615 371 656 315T698 197Z" />
<glyph unicode="t" glyph-name="t" horiz-adv-x="653" d="M166 592H57V659Q153 680 235 762T326 940H395V682H573V592H395V236Q395 88 487 88Q544 88 627 147L655 88Q606 42 532 7T406 -29Q293 -29 230 37T166 221V592Z" />
<glyph unicode="u" glyph-name="u" horiz-adv-x="1122" d="M1122 16L764 -35Q746 3 735 84Q693 30 627 -2T479 -35Q342 -35 252 53T162 272V385Q162 466 157 509T132 580T84 615T0 623V682H393V299Q393 192 426 136T541 80Q611 80 671 134T731 283V385Q731 449
727 488T714 556T685 598T639 617T569 623V682H961V315Q961 209 974 161T1019 96T1122 78V16Z" />
<glyph unicode="v" glyph-name="v" horiz-adv-x="786" d="M463 256L586 520Q612 576 598 599T526 623V682H829V623Q776 623 743 600T684 520L426 -37H369L94 520Q66 578 37 600T-43 623V682H406V623Q342 623 327 598T338 520L463 256Z" />
<glyph unicode="w" glyph-name="w" horiz-adv-x="1112" d="M561 358L393 -37H352L111 520Q85 581 56 602T-29 623V682H403V623Q338 623 325 601T338 520L436 305L598 682H647L823 305L909 520Q933 577 922 600T854 623V682H1157V623Q1100 623 1067 602T1010 520L784
-37H743L561 358Z" />
<glyph unicode="x" glyph-name="x" horiz-adv-x="849" d="M373 242L297 162Q197 59 332 59V0H6V59Q92 59 186 162L324 305L158 520Q111 580 71 601T-23 623V682H459V623Q393 623 384 602T416 520L465 457L526 520Q577 576 570 599T500 623V682H834V623Q732 623
637 520L516 393L692 162Q742 101 783 80T889 59V0H383V59Q455 59 465 86T434 162L373 242Z" />
<glyph unicode="y" glyph-name="y" horiz-adv-x="776" d="M262 -477Q232 -553 186 -553Q157 -553 131 -536T104 -477Q104 -451 119 -430T157 -393T208 -338T260 -246L348 -29L102 520Q78 575 46 599T-35 623V682H416V623Q351 623 336 600T346 520L467 254L578
520Q601 576 588 599T518 623V682H821V623Q767 623 733 599T676 520L262 -477Z" />
<glyph unicode="z" glyph-name="z" horiz-adv-x="768" d="M668 682V649L362 82H401Q457 82 496 87T559 101T599 126T622 159T637 203L647 244H690L674 0H80V35L385 600H375Q319 600 280 595T217 581T177 556T154 523T139 479L129 438H86L100 682H668Z" />
<glyph unicode="{" glyph-name="braceleft" horiz-adv-x="768" d="M86 623Q168 651 197 674Q263 725 278 864Q283 914 283 979Q283 1026 289 1066T310 1141T340 1202T382 1255T429 1299T484 1339T541 1373T602 1407T662 1440L709 1378Q626 1322 588 1279T533 1170T516
983Q516 910 508 855T483 761T446 697T394 653T334 626T264 606Q306 596 334 587T394 559T445 516T482 452T508 358T516 229Q516 109 533 43T587 -67T709 -168L662 -227Q642 -215 609 -197T554 -168T502 -138T451 -104T406 -67T365 -24T331 25T305 84T289 153T283
233Q283 444 220 517Q189 554 111 581Q105 583 86 590V623Z" />
<glyph unicode="|" glyph-name="bar" horiz-adv-x="561" d="M227 1405H334V-197H227V1405Z" />
<glyph unicode="}" glyph-name="braceright" horiz-adv-x="768" d="M682 590Q648 578 633 573T592 553T555 525T527 484T505 425T493 343T487 233Q487 180 477 134T454 54T413 -13T365 -66T304 -113T242 -152T173 -190T106 -227L59 -168Q143 -111 180 -68T235
42T252 229Q252 302 260 357T285 451T322 515T374 559T434 586T504 606Q462 616 434 625T374 653T323 696T286 760T260 854T252 983Q252 1103 235 1169T180 1279T59 1378L106 1440Q127 1428 172 1403T241 1365T304 1325T364 1278T413 1224T453 1157T477 1077T487
979Q487 768 548 696Q579 659 656 632Q662 630 682 623V590Z" />
<glyph unicode="~" glyph-name="asciitilde" horiz-adv-x="866" d="M610 455Q657 455 685 480T729 565H772Q772 412 724 332T584 252Q543 252 476 285T345 351T248 385Q210 385 178 355T133 274H90Q90 417 138 500T266 584Q302 584 351 564T442 520T530 475T610 455Z" />
</font>
</defs>
</svg>
