<?xml version="1.0" standalone="no"?> <!DOCTYPE svg PUBLIC "-//W3C//DTD SVG 1.0//EN" "http://www.w3.org/TR/2001/REC-SVG-20010904/DTD/svg10.dtd" > <svg xmlns="http://www.w3.org/2000/svg" width="100%" height="100%">
<defs >
<font id="mrseavesotitalic" horiz-adv-x="609" ><font-face
    font-family="Mrs Eaves OT"
    units-per-em="2048"
    panose-1="0 0 0 0 0 0 0 0 0 0"
    ascent="1263"
    descent="-512"
    alphabetic="0" />
<missing-glyph horiz-adv-x="1024" />
<glyph unicode=" " glyph-name="space" horiz-adv-x="358" />
<glyph unicode="!" glyph-name="exclam" horiz-adv-x="614" d="M334 82Q328 42 294 13T219 -16Q180 -16 157 13T139 82Q147 122 181 151T254 180Q294 180 317 151T334 82ZM332 1163Q340 1204 372 1234T444 1264Q485 1264 509 1234T526 1163Q519 1120 491 1033T414
762T313 328H246Q283 579 299 761T320 1032T332 1163Z" />
<glyph unicode="&quot;" glyph-name="quotedbl" horiz-adv-x="667" d="M231 1163Q238 1204 267 1234T332 1264T390 1234T406 1163Q403 1144 381 1100T328 978T274 805H244Q253 920 247 983T234 1095T231 1163ZM539 1163Q545 1204 574 1234T639 1264T697 1234T713
1163Q710 1144 689 1101T636 979T582 805H551Q560 920 554 983T542 1095T539 1163Z" />
<glyph unicode="#" glyph-name="numbersign" horiz-adv-x="890" d="M678 643H838L801 537H641L555 285H473L559 537H342L256 285H174L262 537H100L139 643H297L377 870H219L256 979H416L502 1229H584L498 979H713L801 1229H883L795 979H956L918 870H758L678 643ZM379
643H596L676 870H459L379 643Z" />
<glyph unicode="$" glyph-name="dollar" horiz-adv-x="1019" d="M674 1192Q788 1179 854 1127T913 1026Q908 1005 891 989T854 973Q839 973 826 985T800 1015T771 1052T727 1087T662 1110L588 696L719 621Q795 578 836 509T866 367Q840 224 726 131T469 33L434
-170H360L397 37Q259 48 178 112T106 236Q110 257 128 273T166 289Q181 289 195 274T225 235T262 188T323 143T412 115L496 592L408 645Q352 679 317 712T261 800T252 918Q270 1030 371 1110T600 1194L639 1399H713L674 1192ZM483 111Q578 116 650 173T739 322Q750
386 703 447T561 555L483 111ZM588 1112Q511 1106 449 1059T373 938Q361 878 395 835T520 733L588 1112Z" />
<glyph unicode="%" glyph-name="percent" horiz-adv-x="1562" d="M1438 262Q1416 141 1311 54T1081 -33Q955 -33 880 54T825 262Q848 382 953 468T1184 555T1384 469T1438 262ZM1376 1229L367 -37L301 0L1309 1266L1376 1229ZM850 969Q830 849 725 763T494 676T293
762T240 969Q261 1090 365 1177T596 1264T797 1177T850 969ZM1315 262Q1333 365 1298 430T1174 496Q1083 496 1025 431T948 262Q932 157 966 92T1092 27Q1182 27 1239 92T1315 262ZM727 969Q747 1073 712 1138T586 1204T438 1139T362 969Q344 866 378 801T504 735T652
800T727 969Z" />
<glyph unicode="&amp;" glyph-name="ampersand" horiz-adv-x="1161" d="M672 154Q496 427 430 580Q289 453 260 291Q253 249 262 207T294 128T363 68T467 45Q580 45 672 154ZM741 264Q755 292 846 498Q911 629 1026 629Q1105 629 1141 584T1169 494Q1164 466 1147
446T1102 426Q1073 426 1060 447T1047 494T1036 541T997 563Q960 563 931 529T862 406Q856 392 826 320T776 211Q779 205 786 193T797 174Q877 47 958 47Q1008 47 1083 119L1108 84Q1065 28 1012 -3T907 -35Q847 -35 799 1T702 104Q580 -35 416 -35Q349 -35 292
-13T193 51T132 164T129 324Q149 426 217 502T399 655Q335 844 356 969Q380 1100 482 1182T698 1264Q819 1264 878 1192T920 1014Q898 898 797 823L762 887Q807 946 817 1010Q831 1083 795 1129T692 1176Q614 1176 561 1123T496 1001Q488 954 488 908T493 817T516
721T551 623T602 515T664 397T741 264Z" />
<glyph unicode="&apos;" glyph-name="quotesingle" horiz-adv-x="360" d="M231 1163Q238 1204 267 1234T332 1264T390 1234T406 1163Q403 1144 381 1100T328 978T274 805H244Q253 920 247 983T234 1095T231 1163Z" />
<glyph unicode="(" glyph-name="parenleft" horiz-adv-x="733" d="M592 -184L539 -227Q146 151 225 604Q306 1057 829 1436L870 1393Q826 1352 802 1329T724 1250T635 1151T552 1039T472 907T411 764T367 604Q356 541 355 478T357 363T375 255T402 158T438 68T477
-9T519 -79T557 -136T592 -184Z" />
<glyph unicode=")" glyph-name="parenright" horiz-adv-x="733" d="M618 604Q538 149 14 -227L-27 -184Q16 -144 41 -120T120 -41T208 58T292 170T372 301T433 444T477 604Q488 667 490 730T488 845T470 953T443 1050T406 1140T367 1218T325 1287T287 1344T252
1393L307 1436Q699 1058 618 604Z" />
<glyph unicode="*" glyph-name="asterisk" horiz-adv-x="833" d="M498 881Q431 920 336 940T231 967Q208 982 205 1012T223 1071Q244 1100 278 1108T336 1102Q347 1094 369 1060T429 982T512 907Q522 988 509 1080T498 1184Q504 1216 530 1240T588 1264Q620 1264
639 1240T651 1184Q649 1169 628 1129T579 1029T539 907Q597 938 648 981T734 1058T784 1100Q811 1116 842 1108T887 1071Q896 1043 882 1012T838 965Q826 958 726 939T545 881Q594 852 653 836T754 813T807 797Q832 781 835 750T817 690Q794 661 761 654T705 662Q693
670 671 703T613 780T528 856Q520 779 526 731T540 638T547 578Q541 547 513 523T453 498T403 522T391 578Q393 594 414 634T462 734T502 856Q445 824 393 780T307 702T258 662Q229 646 198 653T156 690Q144 717 158 748T201 795Q216 803 260 811T370 835T498 881Z"
/>
<glyph unicode="+" glyph-name="plus" horiz-adv-x="937" d="M553 516H877L860 426H539L481 102H391L446 426H127L141 516H463L518 836H610L553 516Z" />
<glyph unicode="," glyph-name="comma" horiz-adv-x="512" d="M184 -16H168Q129 -16 106 13T88 82Q96 122 129 151T203 180Q247 180 274 147T291 51Q277 -25 212 -113T47 -258L29 -233Q96 -174 131 -125T184 -16Z" />
<glyph unicode="-" glyph-name="hyphen" horiz-adv-x="937" d="M784 375H186L201 465H799L784 375Z" />
<glyph unicode="." glyph-name="period" horiz-adv-x="512" d="M290 122T283 82T242 13T168 -16Q129 -16 106 13T88 82Q96 122 129 151T203 180T266 151Z" />
<glyph unicode="/" glyph-name="slash" horiz-adv-x="712" d="M848 1229L45 -37L-23 0L782 1266L848 1229Z" />
<glyph unicode="0" glyph-name="zero" horiz-adv-x="1081" d="M981 444Q947 246 801 106T483 -35Q371 -35 288 29T169 203T156 444Q190 641 336 781T651 922Q763 922 847 858T968 684T981 444ZM844 444Q861 558 850 647T784 791T639 846Q504 846 415 734T293 444Q276
360 282 287T310 160T380 75T498 43Q632 43 722 155T844 444Z" />
<glyph unicode="1" glyph-name="one" horiz-adv-x="724" d="M539 0H86L92 43Q164 43 200 61T257 128T297 283L354 596Q365 658 365 698T357 763T325 800T273 815T195 817L203 860L539 928L426 283Q414 218 411 179T412 111T433 68T476 49T545 43L539 0Z" />
<glyph unicode="2" glyph-name="two" horiz-adv-x="976" d="M96 0L104 49L547 385Q704 504 723 623Q733 677 721 719T679 786T613 823T535 836Q461 836 395 785T313 655Q303 589 334 528L266 465Q218 503 198 553T188 655Q206 762 310 842T565 922Q706 922 796
846T866 647Q858 601 832 555T775 475T715 414T665 374L645 360L319 119H797L696 -162H653Q660 -126 661 -103T656 -61T635 -31T595 -13T533 -3T444 0H96Z" />
<glyph unicode="3" glyph-name="three" horiz-adv-x="962" d="M475 236Q461 224 440 197T400 155T362 139Q343 139 331 152T324 184Q330 222 373 252L547 385Q699 502 723 623Q741 725 688 780T551 836Q464 836 396 782T313 651Q301 595 334 528L266 465Q218 503
198 553T188 655Q206 762 310 842T565 922Q706 922 796 846T866 647Q858 601 832 555T774 475T713 414T663 374L643 360L549 289Q677 259 737 169T776 -41Q751 -179 624 -281T352 -383Q275 -383 212 -359T114 -298T62 -224T49 -156Q59 -104 106 -104Q123 -104 133
-119T149 -156T167 -204T200 -253T260 -290T360 -305Q453 -305 530 -237T631 -41Q648 68 610 143T475 236Z" />
<glyph unicode="4" glyph-name="four" horiz-adv-x="1036" d="M492 160L590 723L164 160H492ZM621 160H682Q734 160 767 168T823 198T858 245T887 315L901 356H934L872 86H606L580 -68Q568 -133 565 -171T564 -239T582 -281T621 -299T684 -305L678 -348H252L258
-305Q325 -305 358 -288T412 -222T451 -68L477 86H47L55 125L723 1008H768L621 160Z" />
<glyph unicode="5" glyph-name="five" horiz-adv-x="942" d="M262 381Q299 421 364 446T487 471Q645 471 721 349T766 45Q734 -130 596 -256T303 -383Q234 -383 177 -358T88 -296T41 -219T31 -147Q38 -104 84 -104Q104 -104 115 -124T136 -174T161 -234T216 -284T315
-305Q431 -305 512 -207T621 45Q635 144 632 220T584 341T457 387Q382 387 311 337T211 184H143L326 887H643Q694 887 729 893T788 909T830 940T860 982T887 1042H920L825 760H358L262 381Z" />
<glyph unicode="6" glyph-name="six" horiz-adv-x="999" d="M313 500Q300 417 298 349T302 234T323 153T353 99T390 67T427 51T459 47Q573 47 645 136T739 352Q752 408 747 461T724 557T665 625T565 651Q484 651 411 608T313 500ZM334 612Q378 666 442 699T580
733Q733 733 823 621T885 350Q856 191 727 78T444 -35Q411 -35 380 -28T314 -3T251 43T200 117T164 221T153 363T172 545Q195 679 244 805T363 1037T527 1206T725 1270Q835 1270 907 1219T969 1112Q965 1088 948 1075T907 1061Q890 1061 873 1083T842 1132T794
1181T715 1204Q655 1204 602 1170T509 1079T435 944T378 785T334 612Z" />
<glyph unicode="7" glyph-name="seven" horiz-adv-x="886" d="M887 905L879 848L272 -283Q243 -341 218 -365T158 -379Q142 -375 132 -361T122 -319T143 -256L772 776H467Q404 776 366 769T301 740T260 694T227 621L211 580H172L334 1067H373Q354 964 387 935T559
905H887Z" />
<glyph unicode="8" glyph-name="eight" horiz-adv-x="999" d="M596 733Q674 777 732 846T805 993Q817 1069 779 1126T657 1184Q575 1184 518 1127T446 1001Q432 910 472 850T596 733ZM518 635Q413 574 348 499T262 299Q250 236 265 180T330 84T457 45Q516 45 567
68T654 127T712 206T743 291Q765 421 656 527Q619 563 518 635ZM645 700Q672 683 694 668T741 633T785 595T823 552T853 503T873 449T883 388T877 319Q851 167 725 66T442 -35Q288 -35 198 66T133 319Q146 389 178 446T260 546T357 616T467 672Q283 814 313 979Q336
1105 439 1184T672 1264Q801 1264 877 1185T930 979Q914 890 838 823T645 700Z" />
<glyph unicode="9" glyph-name="nine" horiz-adv-x="999" d="M883 344Q859 209 810 82T692 -150T528 -319T332 -383Q222 -383 150 -332T88 -225Q91 -200 108 -186T147 -172Q165 -172 182 -194T213 -243T261 -292T340 -315Q400 -315 453 -281T547 -191T621 -56T679
102T723 274Q678 221 614 188T477 154Q323 154 234 266T172 539Q200 697 328 809T610 922Q643 922 674 915T741 890T804 844T856 771T891 667T903 525T883 344ZM743 387Q756 470 758 538T753 652T733 733T703 788T666 820T630 836T598 840Q539 840 489 814T405
744T349 648T315 537Q304 481 309 427T332 331T389 262T489 236Q572 236 644 279T743 387Z" />
<glyph unicode=":" glyph-name="colon" horiz-adv-x="512" d="M301 82Q295 42 260 13T184 -16Q145 -16 123 13T106 82Q114 122 148 151T221 180T284 151T301 82ZM371 471Q363 431 328 402T252 373Q214 373 192 402T176 471Q182 511 215 540T289 569T353 540T371 471Z" />
<glyph unicode=";" glyph-name="semicolon" horiz-adv-x="512" d="M371 471Q363 431 328 402T252 373Q214 373 192 402T176 471Q182 511 215 540T289 569T353 540T371 471ZM201 -16H184Q145 -16 123 13T106 82Q114 122 148 151T221 180Q264 180 291 147T307 51Q295
-23 230 -112T66 -258L47 -233Q113 -175 147 -126T201 -16Z" />
<glyph unicode="&lt;" glyph-name="less" horiz-adv-x="989" d="M823 47L778 10L182 457L936 901L965 848L420 457L823 47Z" />
<glyph unicode="=" glyph-name="equal" horiz-adv-x="937" d="M811 528H213L229 621H825L811 528ZM764 272H168L184 365H782L764 272Z" />
<glyph unicode="&gt;" glyph-name="greater" horiz-adv-x="989" d="M86 66L629 457L227 866L270 901L866 457L113 10L86 66Z" />
<glyph unicode="?" glyph-name="question" horiz-adv-x="1007" d="M838 995Q851 1067 801 1121T651 1176Q574 1176 508 1128T432 1014Q423 964 446 913L356 872Q303 938 319 1024Q336 1120 435 1192T678 1264Q806 1264 894 1187T961 989Q946 906 892 844T771 745T637
677T521 607T463 518Q454 472 483 444T563 416Q624 416 700 461V408Q671 388 622 371T532 354Q466 354 418 400T385 532Q393 579 420 618T486 685T568 739T656 791T738 844T803 910T838 995ZM556 122T549 82T507 13T432 -16T369 13T354 82T395 151T467 180Q507
180 531 151Z" />
<glyph unicode="@" glyph-name="at" horiz-adv-x="1449" d="M866 238L961 600Q923 651 840 651Q755 651 684 562T575 342Q541 219 563 133T668 47Q726 47 785 102T866 238ZM1018 47Q1057 47 1106 82T1200 173T1279 310T1321 473Q1331 581 1300 670T1208 816T1065
905T887 936Q760 936 640 884T431 744T284 542T215 303Q201 134 259 6T434 -191T709 -260Q931 -260 1153 -129L1174 -166Q929 -330 686 -330Q505 -330 361 -248T141 -22T80 297Q97 491 209 657T495 919T864 1016Q1024 1016 1148 950T1338 760T1389 477Q1380 380
1336 286T1231 124T1099 15T963 -27Q909 -27 876 4T836 78Q799 32 736 -1T625 -35Q541 -35 490 16T429 152T444 342Q486 497 606 607T856 717Q925 717 985 682H1100L963 170Q946 104 959 76T1018 47Z" />
<glyph unicode="A" glyph-name="A" horiz-adv-x="989" d="M309 426L195 199Q152 114 172 79T289 43L283 0H-96L-88 43Q-6 43 31 75T127 221L647 1264H686L842 221Q859 107 884 75T991 43L985 0H549L557 43Q652 43 685 79T705 199L672 426H309ZM662 502L590 985L348
502H662Z" />
<glyph unicode="B" glyph-name="B" horiz-adv-x="987" d="M489 76Q588 76 666 154T766 344Q787 458 736 537T586 616H408L354 313Q342 248 339 210T338 142T356 100T395 82T459 76H489ZM502 1153L420 692H547Q633 692 703 759T791 922T761 1085T629 1153H502ZM756
668Q841 629 886 541T911 344Q885 198 772 99T504 0H16L25 43Q75 43 103 51T154 87T189 158T217 283L334 948Q349 1029 351 1072T342 1143T303 1178T227 1186L233 1229H678Q817 1229 888 1141T936 922Q923 846 873 780T756 668Z" />
<glyph unicode="C" glyph-name="C" horiz-adv-x="1089" d="M907 23H864Q864 119 844 139Q684 -35 526 -35Q399 -35 307 52T177 289T170 614T290 939T504 1176T754 1264Q834 1264 900 1219T1010 1090Q1040 1113 1073 1206H1116L1036 756H993Q999 957 934 1070T743
1184Q665 1184 593 1132T469 994T381 811T326 614Q312 536 310 458T320 305T359 173T433 82T545 47Q669 47 774 160T944 473H987L907 23Z" />
<glyph unicode="D" glyph-name="D" horiz-adv-x="1122" d="M16 0L25 43Q75 43 103 51T154 87T189 158T217 283L334 948Q349 1029 351 1072T342 1143T303 1178T227 1186L233 1229H662Q767 1229 847 1198T975 1110T1052 977T1080 808T1065 614Q1043 484 994 375T869
181T685 48T446 0H16ZM502 1153L354 313Q342 248 339 210T337 142T354 100T391 82T453 76H457Q545 76 617 110T737 196T821 322T877 465T911 614Q1008 1153 647 1153H502Z" />
<glyph unicode="E" glyph-name="E" horiz-adv-x="917" d="M16 0L25 43Q75 43 103 51T154 87T189 158T217 283L334 948Q349 1029 351 1072T342 1143T303 1178T227 1186L233 1229H946L911 958H879V999Q878 1045 874 1069T855 1115T810 1145T727 1153H502L420 688H496Q545
688 574 692T628 707T666 741T690 798T709 885H741L659 416H627Q636 470 637 502T634 558T608 592T559 607T481 612H406L354 313Q342 248 339 210T338 142T356 100T395 82T459 76H590Q642 76 675 84T731 114T766 160T795 231L809 272H842L780 0H16Z" />
<glyph unicode="F" glyph-name="F" horiz-adv-x="860" d="M502 1153L420 688H496Q545 688 574 692T628 707T666 741T690 798T709 885H741L659 416H627Q636 470 637 502T634 558T608 592T559 607T481 612H406L348 283Q337 217 334 179T333 111T351 68T390 49T455
43L446 0H16L25 43Q75 43 103 51T154 87T189 158T217 283L334 948Q349 1029 351 1072T342 1143T303 1178T227 1186L233 1229H971L938 958H905V999Q904 1046 900 1069T882 1115T837 1145T754 1153H502Z" />
<glyph unicode="G" glyph-name="G" horiz-adv-x="1140" d="M526 -35Q399 -35 307 52T177 289T170 614T290 939T504 1176T754 1264Q834 1264 900 1219T1010 1090Q1040 1113 1073 1206H1116L1036 756H993Q999 957 934 1070T743 1184Q665 1184 593 1132T468 994T379
811T324 614Q309 536 307 458T318 305T361 173T441 82T561 47Q680 47 762 119T866 324Q880 395 853 431T743 467L752 508H1171L1163 467Q1112 467 1084 459T1033 423T999 352T971 227L944 72Q896 72 848 56T762 19T662 -18T526 -35Z" />
<glyph unicode="H" glyph-name="H" horiz-adv-x="1218" d="M406 614L348 283Q337 217 334 179T333 111T351 68T390 49T455 43L446 0H16L25 43Q75 43 103 51T154 87T189 158T217 283L334 948Q349 1029 351 1072T342 1143T303 1178T227 1186L233 1229H664L657 1186Q606
1186 578 1179T527 1143T493 1072T467 948L420 690H938L985 948Q996 1013 999 1052T1000 1120T981 1162T942 1180T877 1186L885 1229H1315L1307 1186Q1257 1186 1229 1179T1178 1144T1144 1073T1116 948L999 283Q988 218 985 179T984 111T1002 68T1040 49T1104
43L1098 0H668L674 43Q725 43 754 51T805 87T839 158T866 283L926 614H406Z" />
<glyph unicode="I" glyph-name="I" horiz-adv-x="567" d="M446 0H16L25 43Q75 43 103 51T154 87T189 158T217 283L334 948Q349 1029 351 1072T342 1143T303 1178T227 1186L233 1229H664L657 1186Q606 1186 578 1179T527 1143T493 1072T467 948L348 283Q337 217
334 179T333 111T351 68T390 49T455 43L446 0Z" />
<glyph unicode="J" glyph-name="J" horiz-adv-x="565" d="M334 948Q349 1029 351 1072T342 1143T303 1178T227 1186L233 1229H664L657 1186Q606 1186 578 1179T527 1143T493 1072T467 948L281 -111Q251 -283 164 -370T-33 -457Q-126 -457 -177 -407T-219 -305Q-205
-252 -152 -252Q-121 -252 -108 -274T-93 -323T-72 -372T-12 -395Q25 -395 52 -373T104 -287T150 -111L334 948Z" />
<glyph unicode="K" glyph-name="K" horiz-adv-x="1075" d="M522 676Q563 688 598 688Q644 688 679 667T735 614T773 530T799 431T820 316Q824 287 827 272L854 131Q860 86 870 67T901 47Q918 47 943 62T983 92V45Q952 14 915 -6T848 -27Q794 -27 755 14T711 117L698
256Q693 315 689 352T678 435T661 510T635 564T599 602T549 614Q454 614 385 487L348 283Q337 217 334 179T333 111T351 68T390 49T455 43L446 0H16L25 43Q75 43 103 51T154 87T189 158T217 283L334 948Q349 1029 351 1072T342 1143T303 1178T227 1186L233 1229H664L657
1186Q606 1186 578 1179T527 1143T493 1072T467 948L408 616L586 850Q704 1005 787 1088T925 1198T1040 1225Q1102 1225 1137 1183T1163 1094Q1147 1030 1100 1030Q1075 1030 1063 1045T1050 1080T1036 1114T999 1130Q937 1130 853 1054T629 807L522 676Z" />
<glyph unicode="L" glyph-name="L" horiz-adv-x="901" d="M16 0L25 43Q75 43 103 51T154 87T189 158T217 283L334 948Q349 1029 351 1072T342 1143T303 1178T227 1186L233 1229H664L657 1186Q606 1186 578 1179T527 1143T493 1072T467 948L354 313Q342 248 339
210T338 142T356 100T395 82T459 76H641Q693 76 726 84T782 114T817 160T846 231L860 272H893L831 0H16Z" />
<glyph unicode="M" glyph-name="M" horiz-adv-x="1413" d="M1303 0H874L881 43Q975 43 1017 100T1071 283L1147 983L635 -35H614L463 1016L283 283Q250 158 272 101T387 43L381 0H6L14 43Q46 43 69 48T111 69T142 100T167 147T187 207T207 283L375 948Q409 1080
386 1133T268 1186L274 1229H565L709 254L1196 1229H1468L1460 1186Q1366 1186 1324 1133T1270 948L1204 283Q1195 201 1195 148T1221 69T1309 43L1303 0Z" />
<glyph unicode="N" glyph-name="N" horiz-adv-x="1253" d="M1020 872Q1040 990 1065 1068T1124 1189T1191 1247T1272 1264Q1334 1264 1365 1225T1389 1141Q1376 1081 1327 1081Q1302 1081 1292 1097T1282 1131T1271 1166T1235 1182Q1207 1182 1185 1157T1146 1082T1119
988T1096 877L934 -35H897L457 1004L344 356Q323 239 297 161T237 41T169 -18T88 -35Q27 -35 -4 5T-27 88Q-14 147 35 147Q60 147 70 132T80 97T92 63T129 47Q216 47 266 352L373 948Q387 1029 389 1072T380 1143T341 1178T264 1186L272 1229H516L918 287L1020
872Z" />
<glyph unicode="O" glyph-name="O" horiz-adv-x="1216" d="M1176 614Q1144 439 1049 290T821 53T549 -35Q411 -35 309 52T164 289T152 614Q182 789 277 939T506 1176T778 1264Q917 1264 1020 1177T1165 940T1176 614ZM1018 614Q1031 693 1033 771T1021 924T977
1057T893 1149T764 1184Q691 1184 625 1149T508 1057T418 924T351 771T311 614Q296 535 295 457T308 305T353 173T437 82T565 47T705 82T821 173T912 305T978 457T1018 614Z" />
<glyph unicode="P" glyph-name="P" horiz-adv-x="872" d="M635 1229Q791 1229 868 1130T920 883Q895 736 783 638T514 539H395L348 283Q337 217 334 179T333 111T351 68T390 49T455 43L446 0H16L25 43Q75 43 103 51T154 87T189 158T217 283L334 948Q349 1029 351
1072T342 1143T303 1178T227 1186L233 1229H635ZM498 612Q597 612 676 691T774 883Q795 995 744 1074T594 1153H502L406 612H498Z" />
<glyph unicode="Q" glyph-name="Q" horiz-adv-x="1216" d="M594 -33Q437 -53 297 -150Q382 -126 455 -125T583 -142T686 -187T777 -246T862 -305T955 -350T1061 -369Q1188 -369 1278 -315T1438 -158L1464 -170Q1437 -226 1395 -279T1295 -382T1160 -462T999 -492Q931
-492 863 -461T739 -386T631 -297T521 -221T412 -190Q359 -190 320 -202T259 -234T221 -271T189 -305T154 -322Q126 -325 109 -306T98 -258Q107 -208 207 -133T442 -18Q275 34 194 209T152 614Q183 789 278 939T507 1176T778 1264Q917 1264 1020 1177T1165 940T1176
614Q1130 356 962 174T594 -33ZM1020 614Q1033 693 1034 771T1022 924T977 1057T893 1149T764 1184Q674 1184 594 1132T458 994T365 811T309 614Q294 536 293 458T307 305T352 173T437 82T565 47Q656 47 736 99T871 236T964 417T1020 614Z" />
<glyph unicode="R" glyph-name="R" horiz-adv-x="966" d="M498 612Q597 612 676 691T774 883Q795 995 744 1074T594 1153H502L406 612H498ZM465 539H395L348 283Q337 217 334 179T333 111T351 68T390 49T455 43L446 0H16L25 43Q75 43 103 51T154 87T189 158T217
283L334 948Q349 1029 351 1072T342 1143T303 1178T227 1186L233 1229H635Q791 1229 868 1130T920 883Q898 762 815 670T618 549Q708 485 733 338L768 131Q776 85 786 66T815 47Q832 47 857 62T897 92V45Q871 16 824 -5T741 -27Q684 -27 648 8T610 117L600 324Q592
418 559 478T465 539Z" />
<glyph unicode="S" glyph-name="S" horiz-adv-x="854" d="M162 72Q109 23 88 -35H47L127 416H170Q161 339 171 274T210 158T294 77T424 47Q497 47 564 104T649 260Q662 337 626 402T483 547L367 633Q208 753 244 956Q265 1084 358 1174T569 1264Q635 1264 677
1242T756 1180Q798 1218 819 1274H860L780 823H737Q747 884 743 948T725 1064T670 1149T565 1182Q494 1182 433 1129T358 999Q345 922 379 864T487 754L614 664Q705 597 745 508T766 322Q738 161 630 63T391 -35Q365 -35 342 -31T297 -19T260 -3T227 17T202 36T179
56T162 72Z" />
<glyph unicode="T" glyph-name="T" horiz-adv-x="927" d="M680 1151L526 283Q514 218 511 179T510 111T528 68T567 49T631 43L625 0H195L201 43Q252 43 281 51T332 87T367 158T395 283L549 1151H428Q372 1151 333 1145T269 1129T224 1098T192 1055T164 995H119L201
1229H1049V995H1010Q1006 1034 1002 1054T985 1097T951 1128T892 1144T799 1151H680Z" />
<glyph unicode="U" glyph-name="U" horiz-adv-x="1193" d="M1286 1186Q1235 1186 1207 1179T1156 1144T1121 1073T1094 948L1008 457Q966 225 833 95T539 -35Q376 -35 291 95T248 457L334 948Q349 1029 352 1072T343 1143T305 1178T229 1186L236 1229H664L657
1186Q606 1186 578 1179T527 1143T493 1072T467 948L377 446Q344 253 402 155T586 57Q705 57 796 155T920 446L1010 948Q1021 1013 1024 1052T1024 1120T1005 1162T966 1180T903 1186L909 1229H1292L1286 1186Z" />
<glyph unicode="V" glyph-name="V" horiz-adv-x="989" d="M1194 1186Q1136 1186 1103 1172T1045 1123T979 1008L457 -35H416L262 1008Q254 1069 247 1098T224 1150T183 1179T113 1186L119 1229H555L549 1186Q454 1186 420 1150T397 1030L516 244L907 1030Q951
1115 931 1150T815 1186L823 1229H1200L1194 1186Z" />
<glyph unicode="W" glyph-name="W" horiz-adv-x="1441" d="M932 1229L1026 283L1362 1030Q1402 1118 1384 1152T1270 1186L1276 1229H1655L1647 1186Q1564 1186 1524 1153T1432 1008L961 -35H922L829 905L406 -35H367L264 1008Q253 1120 227 1153T115 1186L121
1229H559L551 1186Q458 1186 426 1151T401 1030L475 287L897 1229H932Z" />
<glyph unicode="X" glyph-name="X" horiz-adv-x="987" d="M518 532L262 199Q238 168 227 141T218 92T244 56T315 43L309 0H-68L-59 43Q14 43 72 90T195 221L492 610L358 1008Q328 1096 286 1141T170 1186L176 1229H610L604 1186Q513 1186 489 1146T494 1030L592
743L813 1030Q936 1186 760 1186L766 1229H1143L1135 1186Q1092 1186 1059 1176T997 1141T949 1095T897 1029Q887 1015 881 1008L621 664L768 221Q802 128 842 86T958 43L950 0H514L520 43Q613 43 637 82T631 199L518 532Z" />
<glyph unicode="Y" glyph-name="Y" horiz-adv-x="956" d="M547 393L526 283Q514 218 511 179T510 111T528 68T567 49T631 43L625 0H190L199 43Q249 43 277 51T328 87T363 158T391 283L410 385Q431 507 441 613T450 798T438 942T412 1050T375 1122T330 1165T281
1178Q258 1178 229 1163T180 1130V1178Q214 1214 257 1231T338 1249Q419 1249 467 1193T539 1003T555 645Q595 756 632 843T712 1008T797 1137T887 1217T985 1247Q1047 1247 1078 1208T1102 1124Q1097 1100 1081 1084T1040 1067T1003 1082T990 1116T976 1149T938
1165Q879 1165 794 1031T641 715T547 393Z" />
<glyph unicode="Z" glyph-name="Z" horiz-adv-x="884" d="M1182 -72Q1099 -193 1014 -262T825 -332Q766 -332 716 -295T633 -203T566 -83T505 37T438 129T354 166Q299 166 257 147T190 101T147 45T110 -6T74 -33Q49 -38 36 -14T29 47Q39 104 135 237T361 518T624
805T848 1024Q772 997 717 997Q668 997 624 1017T551 1060T480 1104T391 1124Q378 1124 365 1121T337 1109T313 1095T286 1074T263 1054T238 1031T217 1010L199 1020Q245 1115 308 1181T440 1247Q485 1247 528 1229T605 1186T669 1135T734 1091T799 1073Q843 1073
876 1100T926 1160T959 1220T991 1247Q1013 1247 1020 1234T1022 1188Q1010 1120 862 965Q693 795 524 587T268 231Q311 242 365 242Q431 242 483 219T569 157T631 74T684 -17T736 -101T802 -162T891 -186Q958 -186 1021 -149T1155 -49L1182 -72Z" />
<glyph unicode="[" glyph-name="bracketleft" horiz-adv-x="733" d="M569 -180H156L432 1389H846L836 1323H555L301 -115H582L569 -180Z" />
<glyph unicode="\" glyph-name="backslash" horiz-adv-x="712" d="M733 0L651 -37L90 1229L170 1266L733 0Z" />
<glyph unicode="]" glyph-name="bracketright" horiz-adv-x="733" d="M412 -180H-4L8 -115H291L545 1323H262L272 1389H688L412 -180Z" />
<glyph unicode="^" glyph-name="asciicircum" horiz-adv-x="993" d="M668 1264L979 692L936 662L629 1034L186 662L156 692L668 1264Z" />
<glyph unicode="_" glyph-name="underscore" horiz-adv-x="733" d="M670 -90H-68L-53 0H684L670 -90Z" />
<glyph unicode="`" glyph-name="grave" horiz-adv-x="827" d="M506 1001L494 989L231 1108Q216 1117 204 1133T197 1169Q200 1191 218 1210T264 1229Q288 1229 304 1219T346 1182L506 1001Z" />
<glyph unicode="a" glyph-name="a" horiz-adv-x="778" d="M510 238L573 600Q524 651 446 651Q360 651 297 562T211 342Q186 212 215 130T328 47Q388 47 441 101T510 238ZM485 68Q447 23 393 -6T291 -35Q207 -35 152 16T79 153T78 342Q107 498 217 607T457 717Q527
717 590 682H702L606 131Q592 47 629 47Q656 47 711 92V45Q680 14 642 -6T575 -27Q492 -27 485 68Z" />
<glyph unicode="b" glyph-name="b" horiz-adv-x="753" d="M561 342Q584 472 556 553T446 635Q386 635 332 581T262 446L227 238Q210 143 244 92T334 41Q419 41 478 126T561 342ZM295 625Q334 664 385 690T481 717Q607 717 664 609T692 342Q666 187 555 76T313
-35Q262 -35 222 -17T160 31T124 96T109 166T111 231L233 930Q248 1011 251 1054T246 1125T217 1161T156 1169L162 1212L406 1264L295 625Z" />
<glyph unicode="c" glyph-name="c" horiz-adv-x="598" d="M539 100Q483 37 416 1T283 -35Q159 -35 104 66T76 324Q91 411 129 486T216 611T316 689T416 717Q464 717 499 703T551 668T574 624T578 582Q564 514 510 514Q487 514 475 528T460 562T454 602T440 637T406
651Q347 651 285 564T195 324Q173 196 209 122T338 47Q377 47 425 71T518 141L539 100Z" />
<glyph unicode="d" glyph-name="d" horiz-adv-x="778" d="M510 238L573 600Q524 651 446 651Q360 651 297 562T211 342Q186 212 215 130T328 47Q388 47 441 101T510 238ZM631 930Q646 1011 649 1054T644 1125T614 1161T553 1169L559 1212L805 1264L606 131Q592
47 629 47Q656 47 711 92V45Q680 14 642 -6T575 -27Q492 -27 485 68Q447 23 393 -6T291 -35Q207 -35 152 16T79 153T78 342Q107 498 217 607T457 717Q527 717 590 682L631 930Z" />
<glyph unicode="e" glyph-name="e" horiz-adv-x="641" d="M193 307Q318 337 390 403T477 539Q483 581 468 608T416 635Q344 635 283 555T199 340Q196 322 193 307ZM188 252Q186 156 227 102T350 47Q388 47 441 74T537 141L555 100Q502 41 432 3T297 -35Q172 -35
112 74T78 342Q108 500 213 608T430 717Q510 717 552 666T580 541Q564 451 465 370T188 252Z" />
<glyph unicode="f" glyph-name="f" horiz-adv-x="458" d="M221 610H88L102 682H236L270 885Q301 1056 398 1160T598 1264Q686 1264 733 1215T772 1112Q762 1061 709 1061Q685 1061 673 1075T658 1111T650 1153T628 1189T580 1204Q524 1204 469 1124T385 885L350
682H514L500 610H336L190 -219Q132 -547 -78 -547Q-162 -547 -205 -500T-238 -401Q-226 -344 -170 -344Q-146 -344 -136 -358T-124 -394T-120 -437T-103 -472T-57 -487Q-11 -487 19 -427T76 -219L221 610Z" />
<glyph unicode="g" glyph-name="g" horiz-adv-x="641" d="M434 438Q452 533 432 592T354 651Q295 651 255 593T197 438Q180 344 200 285T279 225Q336 225 377 285T434 438ZM489 662Q519 686 558 701T625 717Q673 717 697 688T715 625Q712 602 694 583T653 563Q626
563 616 576T605 604T596 632T561 645Q541 645 516 629Q566 550 545 438Q524 327 444 244T268 160Q212 160 153 130T86 61Q81 35 109 16T173 -10T248 -20Q341 -28 407 -54T506 -117T551 -195T555 -283Q534 -402 423 -473T166 -545Q13 -545 -71 -484T-139 -338Q-122
-240 18 -174L51 -197Q-34 -270 -43 -330Q-54 -398 16 -437T178 -477Q272 -477 352 -433T446 -319Q460 -245 401 -209T213 -158Q87 -143 21 -98T-31 31Q-20 86 33 131T160 197Q113 233 93 297T86 438Q106 553 188 635T365 717Q440 717 489 662Z" />
<glyph unicode="h" glyph-name="h" horiz-adv-x="788" d="M233 930Q248 1011 251 1054T246 1125T217 1161T156 1169L162 1212L406 1264L283 549Q328 626 390 671T518 717Q618 717 653 634T664 412L616 131Q602 47 639 47Q654 47 679 62T721 92V45Q690 14 652 -6T586
-27Q534 -27 511 13T498 117L549 401Q559 469 558 517T532 593T461 621Q403 621 334 536T240 305L184 0H70L233 930Z" />
<glyph unicode="i" glyph-name="i" horiz-adv-x="421" d="M242 131Q233 96 238 72T262 47Q279 47 304 62T344 92V45Q313 14 276 -6T211 -27Q158 -27 135 13T123 117L201 551Q215 637 178 637Q162 637 136 621T96 590V639Q125 670 162 689T229 709Q282 709 305
670T317 567L242 131ZM410 1010Q405 979 380 959T324 938Q295 938 278 958T264 1010Q270 1039 295 1060T350 1081T397 1060T410 1010Z" />
<glyph unicode="j" glyph-name="j" horiz-adv-x="399" d="M180 -201Q151 -374 73 -460T-106 -547Q-194 -547 -242 -498T-281 -395Q-268 -344 -217 -344Q-193 -344 -182 -358T-167 -394T-159 -437T-137 -472T-88 -487Q-35 -487 2 -426T68 -201L201 551Q215 637
178 637Q162 637 136 621T96 590V639Q125 670 162 689T229 709Q282 709 305 670T317 567L180 -201ZM410 1010Q405 979 380 959T324 938Q295 938 278 958T264 1010Q270 1039 295 1060T350 1081T397 1060T410 1010Z" />
<glyph unicode="k" glyph-name="k" horiz-adv-x="720" d="M248 356L184 0H70L233 930Q248 1011 251 1054T246 1125T217 1161T156 1169L162 1212L406 1264L262 440Q305 497 332 531T395 604T458 663T519 696T586 709Q649 709 680 669T702 584Q697 559 681 544T641
528Q616 528 604 543T591 577T577 611T539 627Q500 627 451 588T313 442Q351 451 360 451Q425 451 452 425T489 330L522 131Q528 84 538 66T569 47Q586 47 611 62T651 92V45Q620 14 581 -6T514 -27Q461 -27 432 11T399 117L391 313Q389 360 379 379T338 399Q300
399 248 356Z" />
<glyph unicode="l" glyph-name="l" horiz-adv-x="413" d="M233 930Q248 1011 251 1054T246 1125T217 1161T156 1169L162 1212L406 1264L209 131Q195 47 231 47Q246 47 271 62T313 92V45Q282 14 244 -6T178 -27Q126 -27 104 13T90 117L233 930Z" />
<glyph unicode="m" glyph-name="m" horiz-adv-x="1181" d="M686 528Q725 613 793 665T928 717Q997 717 1032 677T1069 569T1057 412L1010 131Q1001 96 1006 72T1030 47Q1047 47 1072 62T1112 92V45Q1081 14 1044 -6T979 -27Q926 -27 903 13T891 117L940 401Q964
515 949 568T870 621Q812 621 746 539T655 305L600 0H487L557 401Q580 515 566 568T487 621Q461 621 430 602T369 547T312 447T272 305L217 0H102L201 551Q215 637 178 637Q162 637 136 621T96 590V639Q125 670 162 689T229 709Q282 709 305 670T317 567L313 549Q353
623 416 670T545 717Q689 717 686 528Z" />
<glyph unicode="n" glyph-name="n" horiz-adv-x="821" d="M217 0H102L201 551Q215 637 178 637Q162 637 136 621T96 590V639Q125 670 162 689T229 709Q282 709 305 670T317 567L313 549Q361 626 423 671T551 717Q618 717 657 677T703 569T696 412L649 131Q635
47 672 47Q699 47 754 92V45Q723 14 685 -6T618 -27Q566 -27 544 13T530 117L580 401Q602 502 583 561T494 621Q467 621 436 601T372 544T313 444T272 305L217 0Z" />
<glyph unicode="o" glyph-name="o" horiz-adv-x="776" d="M698 342Q671 187 561 76T324 -35Q195 -35 124 75T78 342Q107 498 217 607T457 717Q585 717 655 607T698 342ZM567 342Q581 430 577 499T538 610T446 653Q358 653 297 566T211 342Q197 254 201 185T240
72T334 29Q422 29 482 117T567 342Z" />
<glyph unicode="p" glyph-name="p" horiz-adv-x="788" d="M596 342Q609 426 603 495T562 607T469 651Q391 651 324 600L262 238Q247 157 281 102T375 47Q459 47 516 129T596 342ZM266 915L283 1010H395L340 682Q411 717 481 717Q610 717 682 607T727 342Q700 182
605 74T383 -35Q337 -35 296 -9T229 59L178 -231Q164 -311 162 -355T173 -426T216 -461T299 -469L291 -512H-150L-139 -469Q-68 -469 -33 -452T23 -386T63 -231L195 508Q130 378 41 272L6 297Q80 384 154 549T266 915Z" />
<glyph unicode="q" glyph-name="q" horiz-adv-x="753" d="M510 238L573 600Q524 651 446 651Q360 651 297 562T211 342Q186 212 215 130T328 47Q388 47 441 101T510 238ZM541 -231Q530 -295 528 -334T529 -402T550 -444T593 -463T662 -469L653 -512H215L223 -469Q295
-469 330 -452T387 -386T426 -231L477 59Q437 18 387 -8T291 -35Q207 -35 152 16T79 153T78 342Q107 498 217 607T457 717Q527 717 590 682H702L541 -231Z" />
<glyph unicode="r" glyph-name="r" horiz-adv-x="583" d="M299 516Q337 611 393 664T508 717Q571 717 595 676T610 588Q606 562 586 540T528 518Q501 518 485 538T473 584Q476 607 473 617T455 627Q405 627 344 514T246 199L211 0H102L201 551Q215 637 178 637Q162
637 136 621T96 590V639Q125 670 162 689T229 709Q281 709 301 670T309 567L299 516Z" />
<glyph unicode="s" glyph-name="s" horiz-adv-x="495" d="M420 176Q402 77 333 21T184 -35Q96 -35 48 11T8 104Q12 127 28 139T66 152Q90 152 100 133T113 92T139 50T209 31Q251 31 282 62T319 129Q326 166 307 207T260 272L186 344Q149 379 130 431T119 530Q131
607 189 662T342 717Q417 717 451 678T481 596Q474 555 436 555Q417 555 408 566T395 592T386 624T365 651T319 662Q284 662 254 637T217 571Q210 533 224 504T279 436L352 367Q392 328 410 276T420 176Z" />
<glyph unicode="t" glyph-name="t" horiz-adv-x="466" d="M305 610L233 201Q209 53 279 53Q333 53 408 145L410 88Q368 32 317 2T227 -29Q80 -29 119 201L190 610H57L72 682H205L262 1010H375L319 682H483L469 610H305Z" />
<glyph unicode="u" glyph-name="u" horiz-adv-x="821" d="M754 45Q723 14 685 -6T618 -27Q566 -27 544 13T530 117L535 133Q489 57 425 11T295 -35Q196 -35 161 50T150 272L201 551Q215 637 178 637Q162 637 136 621T96 590V639Q125 670 162 689T229 709Q282 709
305 670T317 567L266 283Q244 183 264 123T354 63Q414 63 482 147T578 377L631 682H745L649 131Q635 47 672 47Q699 47 754 92V45Z" />
<glyph unicode="v" glyph-name="v" horiz-adv-x="700" d="M338 717H373Q362 658 314 509T244 238Q228 141 254 91T334 41Q407 41 476 125T569 342Q588 475 574 527T537 618T518 678Q526 717 569 717Q598 717 619 682T649 564T633 342Q607 186 513 76T313 -35Q249
-35 206 -14T144 44T121 126T127 221Q140 295 204 428T274 596Q266 600 244 610T212 625T183 633T143 637Q111 637 61 590V639Q90 669 128 689T195 709Q220 709 248 703T295 697T338 717Z" />
<glyph unicode="w" glyph-name="w" horiz-adv-x="1040" d="M557 242Q616 356 637 477Q646 528 646 564T642 617T627 633Q613 633 596 594T567 487Q543 356 557 242ZM569 172Q591 108 627 75T709 41Q772 41 830 119T913 342Q929 433 922 492T898 577T869 629T860
680Q868 719 911 719Q937 719 958 682T989 560T975 342Q945 172 863 69T690 -35Q566 -35 500 80Q395 -35 297 -35Q198 -35 152 33T127 221Q140 294 204 428T274 596Q269 598 248 608T216 623T184 632T143 637Q111 637 61 590V639Q90 669 128 689T195 709Q220 709
248 703T293 698T336 717H373Q364 670 314 508T244 238Q228 142 255 92T334 41Q408 41 479 125Q432 258 467 457Q489 574 537 645T631 717Q673 717 692 652T692 477Q659 308 569 172Z" />
<glyph unicode="x" glyph-name="x" horiz-adv-x="612" d="M262 303L211 559Q192 645 154 645Q137 645 112 630T72 600V647Q101 677 139 697T205 717Q256 717 283 684T326 575L350 471Q375 522 397 560T449 636T510 696T575 717Q624 717 642 686T653 614Q651 597
641 582T621 567Q597 567 592 581T590 612T589 643T557 657Q529 657 489 600T410 465L367 381L422 123Q440 37 477 37Q494 37 520 53T559 84V37Q529 5 492 -15T426 -35Q373 -35 347 -3T303 109L283 211Q256 159 234 123T182 47T120 -14T55 -35Q7 -35 -12 -3T-25
66Q-21 85 -10 101T12 117Q36 117 41 103T42 72T43 41T76 27Q125 27 221 219L262 303Z" />
<glyph unicode="y" glyph-name="y" horiz-adv-x="632" d="M309 18Q460 244 487 416Q502 496 493 546T467 618T436 659T424 692Q425 710 441 720T475 731Q505 731 529 703T567 613T561 449Q536 304 463 155T287 -117T68 -338T-167 -490T-385 -545Q-469 -545 -508
-512T-541 -436Q-538 -415 -517 -392T-477 -369Q-466 -369 -458 -378T-441 -400T-422 -426T-387 -448T-330 -457Q-220 -457 -83 -370T180 -141Q222 133 213 306T170 559T88 639Q68 639 37 622T-6 590V639Q61 709 143 709Q220 709 267 623T325 382T309 18Z" />
<glyph unicode="z" glyph-name="z" horiz-adv-x="577" d="M147 137Q177 141 199 141Q241 141 275 125T329 85T370 32T408 -21T453 -62T514 -78Q599 -78 662 -23L684 -45Q577 -213 467 -213Q428 -213 394 -183T336 -108T289 -21T238 53T180 84Q142 84 115 67T74
28T47 -13T20 -35Q0 -39 -12 -26T-18 23Q-7 83 170 275T457 563Q409 553 385 553Q347 553 292 577T197 602Q144 602 102 557L80 571Q108 631 148 674T231 717Q263 717 294 701T347 664T396 627T446 610Q471 610 492 626T524 663T547 700T571 717Q599 717 594 682Q583
626 498 539Q219 260 147 137Z" />
<glyph unicode="{" glyph-name="braceleft" horiz-adv-x="733" d="M143 623Q170 632 180 635T214 647T246 662T275 681T303 707T326 739T349 781T368 833T387 899T403 979Q411 1021 423 1059T450 1127T485 1186T524 1235T571 1279T620 1316T675 1349T730 1379T790
1410T848 1440L874 1397Q824 1366 802 1352T741 1310T682 1263T636 1212T594 1149T565 1076T541 983Q521 872 498 804T441 696T370 639T270 606Q316 594 343 582T392 544T422 480T426 379T408 229Q400 186 398 149T400 80T412 24T435 -26T464 -68T503 -108T546
-145T596 -184L555 -227Q539 -217 507 -198T458 -168T414 -138T371 -104T335 -67T303 -24T281 26T266 85T263 153T272 233Q283 294 286 342T289 423T278 482T257 523T225 551T188 571T142 589Q140 590 139 590L143 623Z" />
<glyph unicode="|" glyph-name="bar" horiz-adv-x="561" d="M432 1405H522L242 -197H150L432 1405Z" />
<glyph unicode="}" glyph-name="braceright" horiz-adv-x="733" d="M702 590Q665 578 650 573T605 553T562 525T527 484T494 425T467 343T442 233Q431 170 410 118T360 26T298 -46T224 -104T143 -152T56 -198Q17 -217 -2 -227L-29 -184Q27 -150 54 -132T124 -83T188
-25T237 40T278 125T305 229Q324 339 346 407T404 516T477 573T578 606Q531 618 504 630T453 668T423 732T419 833T438 983Q445 1022 446 1056T447 1118T437 1172T422 1217T397 1258T368 1294T332 1329T294 1362T250 1397L293 1440Q309 1430 340 1410T389 1380T433
1350T476 1316T512 1279T543 1236T565 1186T580 1127T582 1059T573 979Q558 895 558 836T564 742T596 684T640 650T701 625Q705 624 707 623L702 590Z" />
<glyph unicode="~" glyph-name="asciitilde" horiz-adv-x="866" d="M614 416Q694 416 741 530H780Q761 417 704 353T569 289Q532 289 478 322T372 390T291 424Q258 424 221 390T166 309H129Q146 413 204 481T328 549Q361 549 401 528T474 483T546 437T614 416Z" />
</font>
</defs>
</svg>
